<svg width="288" height="231" viewBox="0 0 288 231" fill="none" xmlns="http://www.w3.org/2000/svg">
<path fill-rule="evenodd" clip-rule="evenodd" d="M165.763 231C200.241 231 230.498 205.38 213.506 170.582C196.513 135.784 259.651 136.908 278.197 112.858C300.816 83.5282 294.265 -40.9736 149.065 34.9288C125.806 47.0875 66.0714 22.4201 46.257 34.6596C22.9333 49.0666 -9.88129 78.5676 22.9333 108.787C39.0975 123.672 -18.8541 162.308 6.52751 196.915C31.2934 230.684 48.6543 198.493 86.3599 205.38C124.066 212.268 140.156 231 165.763 231Z" fill="#64FCD9"/>
<path d="M125.744 170.462C125.744 170.462 133.682 166.732 136.646 164.136C139.61 161.541 143.294 155.093 143.294 155.093C143.294 155.093 183.768 184.292 210.158 180.127C216.239 179.167 228.087 175.13 228.842 168.016C230.905 148.591 202.361 143.628 208.596 133.777C212.402 127.764 224.225 136.713 224.225 136.713L273.265 160.809C273.265 160.809 256.323 202.527 215.209 204.198C164.634 206.255 125.744 170.462 125.744 170.462Z" fill="white"/>
<path fill-rule="evenodd" clip-rule="evenodd" d="M86.8631 7.08594C86.4028 6.90524 83.9308 3.88186 80.7928 3.33167C79.367 3.08155 80.6609 4.8952 79.0919 4.91184C74.4177 4.96034 66.8217 4.083 65.4145 4.91184C64.3687 5.52574 66.6717 7.66988 65.4145 7.76831C53.5508 8.69748 35.452 20.5299 31.5257 26.2705C30.2757 28.0974 40.3828 24.998 38.7724 25.901C36.9649 26.9148 34.9603 33.5526 33.7621 38.6788C32.9324 42.2091 32.4097 46.7522 32.2255 51.6948C32.0717 55.9617 32.1331 56.6678 32.7482 59.0008C33.4546 61.6099 34.0078 62.3774 34.9603 62.0089C35.2988 61.8862 35.452 61.4259 35.452 60.5662C35.452 59.8909 35.821 57.8647 36.2818 56.0535L37.081 52.7999L37.419 54.1504C37.8493 55.7158 40.369 60.5662 42.643 64.0965C42.7658 64.2838 43.2933 64.0456 43.7693 62.8967C44.203 61.8496 44.0268 60.1772 44.7637 58.3845C46.4413 54.3011 49.7359 48.9924 53.5508 44.7427C59.189 38.4624 61.0593 31.1936 66.3447 25.3589C76.2076 14.4703 88.5859 7.76166 86.8631 7.08594Z" fill="white"/>
<path fill-rule="evenodd" clip-rule="evenodd" d="M38.9123 27.3827C37.33 28.6538 34.9817 38.9622 34.9413 39.1343C34.1115 42.6646 33.3118 54.9236 34.1291 57.2446C34.947 59.5656 37.2362 51.1993 37.2362 51.1993C37.2362 51.1993 40.696 60.1743 43.7536 62.6351C43.884 62.7402 40.1195 51.5307 38.9123 44.987C37.3186 36.3492 39.8125 26.6594 38.9123 27.3827Z" fill="#E7EAEE"/>
<path fill-rule="evenodd" clip-rule="evenodd" d="M97.8847 207.922C100.835 207.277 105.813 205.032 107.718 204.265C109.624 203.497 115.432 195.305 117.521 186.065C119.027 179.25 119.795 169.55 118.935 167.923C118.808 167.692 118.343 163.281 119.58 164.722C122.331 167.923 125.596 172.949 135.898 163.943C138.704 161.489 142.423 158.324 141.444 155.525C138.704 147.694 126.827 131.926 125.016 130.731C122.852 129.303 111.91 130.517 95.6259 125.715C77.1592 120.271 69.4693 104.238 62.2427 106.325C56.3984 108.012 42.3959 118.385 38.8819 124.953C22.2916 155.963 42.3959 177.691 46.9749 183.932L51.4201 185.85L51.5738 189.81L51.789 192.297C52.1884 197.055 52.3422 197.485 54.4934 199.081C59.8711 203.164 70.4728 206.97 80.0611 208.321C84.5167 208.935 94.1969 208.72 97.8847 207.922Z" fill="white"/>
<path fill-rule="evenodd" clip-rule="evenodd" d="M53.1681 188.361L53.3832 190.847C53.7831 195.605 53.9364 196.035 56.0876 197.631C59.2603 200.04 64.2511 202.352 69.7788 204.121C73.6213 205.35 77.7238 206.317 81.6553 206.871C86.1115 207.485 95.7911 207.27 99.4789 206.472C101.302 206.077 86.3085 194.311 77.4757 197.631C70.6928 200.181 54.7057 180.732 61.2059 175.651C68.4978 169.951 55.136 147.47 54.7057 142.59C54.2753 137.709 52.5811 136.543 52.5316 136.714C52.4821 136.885 52.4821 137.469 52.6149 138.876C53.1885 144.941 53.1681 188.361 53.1681 188.361Z" fill="#E7EAEE"/>
<path fill-rule="evenodd" clip-rule="evenodd" d="M51.5677 141.196C52.2127 141.071 52.8372 141.492 52.9629 142.137C55.2821 154.039 65.0927 162.097 82.635 166.311C100.282 170.55 112.302 170.321 118.635 165.797C119.17 165.415 118.772 168.685 118.38 168.937C114.249 171.582 100.205 175.531 83.4447 171.962C62.0152 167.4 51.9532 149.4 50.6265 142.591C50.5013 141.946 50.9222 141.322 51.5677 141.196Z" fill="#FFB61D"/>
<path fill-rule="evenodd" clip-rule="evenodd" d="M42.6316 119.721C43.2018 119.395 64.4862 143.762 93.6956 149.278C122.905 154.794 129.977 151.286 131.114 143.762C131.212 143.113 131.818 142.666 132.468 142.764C133.118 142.862 133.565 143.468 133.467 144.117C132.026 153.652 118.511 155.92 93.2953 151.622C68.3964 147.377 51.3254 137.293 42.1893 121.343C41.8632 120.774 42.0608 120.047 42.6316 119.721Z" fill="#FFB61D"/>
<path fill-rule="evenodd" clip-rule="evenodd" d="M165.227 118.37C164.428 118.094 163.568 117.48 163.015 116.773L162.092 115.637L165.35 112.414C170.359 107.503 174.2 102.468 177.519 96.4824C178.626 94.4871 181.422 87.8255 181.422 87.1812C181.422 86.9663 181.76 86.1065 182.16 85.2163C182.774 83.9272 183.235 83.436 184.556 82.6994C186.124 81.7783 187.906 81.4716 188.674 81.9932C190.149 82.9757 190.149 86.0761 188.674 91.4172C187.046 97.2804 184.864 101.486 180.346 107.534C179.64 108.454 178.318 110.265 177.366 111.524C174.815 114.901 173.155 116.528 170.912 117.786C168.7 119.014 167.409 119.168 165.227 118.37ZM187.291 115.607L189.504 116.589C189.963 116.801 195.024 119.23 201.104 122.148C210.906 126.853 223.355 132.828 223.43 132.828C223.554 132.828 224.13 131.496 224.26 129.943C224.567 126.597 225.704 122.053 227.026 118.891C227.64 117.48 228.132 115.715 228.132 115.561C228.132 115.491 227.633 115.29 226.815 114.96C225.841 114.568 224.417 113.994 222.847 113.243C215.103 109.529 199.952 101.947 198.078 100.811C196.234 99.7365 195.865 99.6442 195.865 100.35C195.865 101.271 193.991 105.538 192.546 107.84C191.778 109.099 190.272 111.371 189.197 112.875L187.291 115.607ZM222.908 127.303C223.789 127.813 222.263 128.561 221.894 128.684C219.722 128.868 217.166 128.46 215.072 127.241C213.977 126.466 205.353 121.68 199.633 118.505C197.019 117.055 195.01 115.94 194.606 115.699C193.315 114.932 192.085 114.103 191.87 113.857C191.225 113.028 191.84 112.66 193.652 112.813C194.743 112.906 221.004 126.201 222.908 127.303ZM97.9889 207.669C100.36 207.151 104.039 205.599 106.382 204.612C106.955 204.37 107.448 204.162 107.823 204.012C109.729 203.244 115.536 195.052 117.626 185.812C119.131 178.997 119.9 169.297 119.04 167.67C118.521 166.728 121.603 169.889 123.898 172.242C124.594 172.956 125.218 173.596 125.646 174.024C139.045 187.316 158.989 197.999 179.701 203.003C190.027 205.52 197.371 206.41 207.236 206.41C223.799 206.41 236.86 203.156 248.721 196.004C249.285 195.664 249.813 195.352 250.316 195.054C254.451 192.609 256.914 191.152 263.656 183.571C271.219 175.068 277.946 155.329 280.19 148.515C281.173 145.445 283.57 133.235 283.57 130.189C283.57 126.581 282.31 124.878 280.589 123.128C277.547 120.15 273.428 119.076 270.018 120.365L268.42 120.979L267.928 119.352C267.221 116.896 265.746 114.932 263.472 113.458C260.092 111.217 259.6 111.064 256.558 111.064C254.191 111.064 253.546 111.187 252.04 111.893L250.288 112.691L249.92 111.586C249.213 109.314 246.842 106.147 245.003 105.231C243.372 104.419 240.548 104.344 238.58 104.709C234.278 105.507 231.205 107.503 229.945 110.296C229.576 111.156 229.115 111.831 228.931 111.831C228.778 111.831 222.724 110.142 215.502 106.95C214.284 106.409 213.139 105.903 212.065 105.427C199.097 99.6851 196.286 98.4407 196.542 96.8814C196.756 95.5614 196.695 94.8248 196.326 93.6888C195.681 91.7857 194.943 91.264 192.854 91.264C191.194 91.264 191.194 91.2641 191.378 90.4352C192.362 85.7385 192.331 83.037 191.287 81.318C190.58 80.182 189.75 79.7217 187.844 79.4454C186.738 79.2918 186.216 79.3841 184.987 80.0593C184.157 80.4892 183.45 80.7959 183.389 80.7345C183.327 80.6732 183.543 78.9851 183.88 76.9893C186.4 62.2238 184.454 49.5022 178.031 35.9954C177.97 35.866 177.898 35.7134 177.817 35.5384C175.864 31.3509 168.013 14.5131 145.56 6.01696C144.544 5.63226 143.582 5.2604 142.657 4.90328C135.009 1.946 129.925 -0.0202895 117.657 0.00015797C103.906 0.0229831 99.249 1.96502 90.1834 6.10921C88.9239 6.6922 87.8175 7.02983 87.7252 6.90714C87.6328 6.75355 87.0492 6.38549 86.4651 6.0783C85.8815 5.77158 84.6215 5.00409 83.6994 4.39019C81.0565 2.60935 79.4279 1.87277 78.5982 2.0568C77.6457 2.30264 77.6457 3.10057 78.5982 3.4691C78.9976 3.6227 79.4589 4.14435 79.6431 4.66647C80.0425 5.77159 80.5033 5.89427 80.7799 4.97318C80.9032 4.63556 81.0874 4.3902 81.1797 4.45154C81.2145 4.46866 81.3316 4.52381 81.5101 4.60703C81.9595 4.81721 82.7978 5.20952 83.6994 5.64843C84.9595 6.26233 86.3423 6.90714 86.7112 7.06073C87.3872 7.3061 87.172 7.49061 84.2525 9.20963C72.8516 15.9017 63.5713 26.308 58.3778 38.1571C57.5785 39.9375 56.8721 41.0426 56.1342 41.657C54.2596 43.2224 50.5723 47.6733 49.7116 49.4232C49.2508 50.3747 48.2673 51.8484 47.499 52.7077C46.7616 53.5674 45.9624 54.6725 45.6858 55.1328C45.4402 55.624 45.1945 55.9617 45.1022 55.9003C45.0408 55.8081 45.1326 54.304 45.3478 52.5545C45.8091 48.4717 45.8091 47.397 45.4402 47.3052C44.887 47.1516 44.0882 49.3005 43.7498 51.9711C43.5041 53.5978 43.4427 56.0539 43.5965 58.5709L43.7807 62.5619L41.599 59.0317C40.8488 57.8509 40.11 56.6707 39.5849 55.8323L39.5835 55.8295L39.5826 55.8285L39.5811 55.8261C39.2484 55.294 39.0018 54.9008 38.8947 54.7339C38.0954 53.5674 37.6346 51.8175 37.9726 51.2345C38.1569 50.8969 38.1264 50.7433 37.8189 50.7433C37.1738 50.7433 35.9138 52.7999 35.0841 55.1637C34.6847 56.2689 34.2848 57.1895 34.162 57.1895C33.7012 57.1895 33.9163 46.2001 34.4081 42.6698C35.422 35.7015 38.0954 27.1059 39.2941 27.1059C39.5397 27.1059 39.7549 26.9833 39.7549 26.7992C39.7549 26.2467 38.9561 26.4616 38.3106 27.1678C36.8663 28.7332 34.9608 33.5522 33.7621 38.6788C32.9324 42.2091 32.4097 46.7522 32.2255 51.6948C32.0717 55.9617 32.1331 56.6678 32.7482 59.0008C33.4546 61.6099 34.0078 62.3774 34.9603 62.0089C35.2988 61.8862 35.452 61.4259 35.452 60.5662C35.452 59.8909 35.821 57.8647 36.2818 56.0535L37.081 52.7999L37.419 54.1504C37.8493 55.7158 40.369 60.5662 42.643 64.0965C44.2106 66.4912 44.2415 66.6443 44.7642 70.3895C45.0408 72.5075 45.901 77.6598 47.8984 85.5849C49.6635 92.5874 59.585 99.5334 62.0627 101.268L62.0642 101.269C62.3898 101.497 62.5864 101.635 62.6183 101.67C62.9258 102.008 63.3561 102.192 63.6018 102.1C63.8783 102.008 64.0321 102.131 64.0321 102.468C64.0321 102.776 64.2473 103.174 64.4929 103.359C64.8004 103.573 65.0156 104.402 65.077 105.845C65.2307 108.731 67.3815 114.256 69.0409 116.067C70.1167 117.234 72.3598 117.725 74.849 117.295C76.478 117.05 76.9388 116.866 76.785 116.497C76.6931 116.252 77.2768 116.559 78.076 117.172C87.4177 124.294 96.8826 128.561 107.515 130.403C111.633 131.109 118.455 131.508 122.174 131.232C125.462 131.017 125.462 131.017 125.308 131.662C125.093 132.521 125.37 133.043 129.887 140.687C133.482 146.734 133.79 147.133 137.785 151.216C146.266 159.965 155.516 166.749 165.995 171.998C175.86 176.91 191.609 180.992 206.006 182.282C220.404 183.571 230.744 170.371 230.714 166.995C230.652 162.359 230.007 159.32 228.44 156.373C226.903 153.518 225.889 152.536 221.279 149.466C216.147 146.059 212.982 143.265 210.893 140.288C209.571 138.415 209.079 136.297 209.079 135.161C209.079 134.424 210.032 132.767 211.446 132.429C212.736 132.092 212.982 132.122 214.427 132.828C215.287 133.227 217.53 134.271 219.374 135.161C221.249 136.021 223.062 136.881 223.43 137.065C224.517 137.366 224.977 139.492 225.226 140.644C225.282 140.902 225.327 141.11 225.366 141.239C225.797 142.836 227.833 144.897 229.146 145.598C231.453 146.831 237.137 146.995 238.704 145.307C239.104 144.877 240.428 144.349 240.701 144.509C240.974 144.669 241.961 145.997 241.961 147.072C241.992 148.914 242.944 150.602 244.972 152.29C248.814 155.483 251.795 156.251 254.806 154.838C256.373 154.102 257.658 153.814 257.658 153.814C257.658 153.814 258.939 155.447 259.016 156.005C259.62 160.366 266.084 162.195 267.805 162.379C268.199 162.419 268.967 162.25 269.746 162.079C270.789 161.85 271.853 161.616 272.077 161.868C272.515 162.363 264.732 175.222 263.656 176.848C253.423 192.197 233.51 201.591 209.141 202.573C193.314 203.218 173.862 198.797 156.991 190.755C146.205 185.567 136.648 179.212 126.415 170.31C124.633 168.775 122.573 167.025 121.836 166.412C121.098 165.828 119.347 163.833 117.995 161.991C115.721 158.921 114.43 157.816 114.43 158.86C114.43 159.32 115.905 162.144 117.595 164.938C118.271 166.043 118.701 166.81 118.548 166.688C118.394 166.565 117.902 168.775 117.442 171.599C115.935 180.655 113.447 189.588 110.927 195.144C109.544 198.153 106.892 200.399 106.093 201.013C103.143 203.254 98.7268 204.261 92.6112 204.875C84.8671 205.643 73.4661 203.924 64.7695 200.67C62.465 199.81 56.5336 197.324 56.1342 197.048C56.1104 197.023 55.9743 196.14 55.7843 194.908C55.7306 194.56 55.673 194.185 55.612 193.794C54.5057 186.211 52.9691 157.018 52.9691 143.511C52.9691 137.924 52.9077 136.696 52.5388 136.696C51.7704 136.696 51.4634 137.433 51.1254 140.073C50.3571 146.09 50.5109 177.493 51.3406 184.093L51.5248 185.597L50.4799 185.014C48.8819 184.093 42.7972 177.923 40.677 175.068C38.8818 172.627 37.8151 169.501 37.0168 167.163C36.8311 166.619 36.6602 166.118 36.4974 165.677C32.0417 153.337 33.6088 139.49 39.7549 127.026C44.9794 116.405 51.402 110.511 60.8055 107.656C62.3417 107.196 63.6941 106.705 63.8479 106.582C64.4315 106.03 60.6823 106.306 58.6234 106.95C51.9242 109.007 44.9179 114.625 40.1548 121.808C33.4555 131.877 30.4437 146.734 32.5639 159.412C33.0557 162.42 35.0531 168.928 35.6063 169.389C35.6553 169.438 35.9081 169.967 36.2903 170.769C37.3476 172.984 39.3945 177.273 40.8612 179.212C42.6435 181.637 48.0217 186.917 50.2648 188.544L51.6786 189.557L51.8937 192.044C52.2931 196.802 52.4469 197.232 54.5976 198.828C59.9758 202.911 70.5776 206.717 80.1653 208.068C84.6215 208.682 94.3016 208.467 97.9889 207.669ZM201.858 178.844C184.003 177.278 162.43 168.774 146.819 155.636C140.244 150.08 131.7 139.275 128.32 133.289C127.613 132.061 127.091 131.478 126.476 131.324C125.831 131.14 126.384 130.956 129.027 130.526C140.182 128.623 151.029 123.987 159.788 117.387L161.079 116.436L161.447 117.326C162.277 119.321 165.473 121.348 167.839 121.348C168.792 121.348 171.988 119.905 173.924 118.585L175.245 117.695L176.321 118.769C177.304 119.751 177.488 119.813 179.332 119.813C181.453 119.813 184.003 118.861 185.417 117.51L186.185 116.804L188.367 118.247C189.535 119.076 192.792 120.887 195.589 122.33C199.768 124.478 204.193 126.965 208.403 129.544L209.079 129.974L208.434 130.833C207.758 131.754 206.499 133.503 206.499 136.174C206.499 139.183 209.63 144.588 215.625 148.3C220.335 151.216 228.44 156.952 228.132 165.337C228.095 166.35 226.964 168.867 225.459 171.139C224.475 172.581 221.74 174.73 219.251 175.989C215.01 178.107 207.543 179.335 201.858 178.844ZM38.0036 41.0426C38.8333 41.2271 39.3864 41.5034 39.2631 41.6261C38.8638 42.025 36.7435 41.841 36.2518 41.3498C35.4834 40.6132 35.6677 40.0911 36.7435 39.8761C37.2967 39.7844 38.1264 39.3236 38.5872 38.8633C39.0485 38.403 39.4479 38.188 39.4479 38.3416C39.4479 38.7406 37.9112 40.1524 37.1429 40.4596C36.6512 40.6745 36.8049 40.7663 38.0036 41.0426ZM50.2343 41.5338C51.1254 41.0426 50.9407 40.705 49.8963 40.8586C48.8514 41.0122 48.79 40.8895 49.466 39.8457C49.7425 39.4467 49.8963 38.8633 49.8344 38.5561C49.7425 38.1571 49.5274 38.3416 49.0356 39.3236C48.6667 40.0297 48.1445 40.6132 47.8984 40.6132C47.1305 40.6132 47.0687 41.2271 47.8065 41.5034C48.7591 41.9023 49.4964 41.9023 50.2343 41.5338ZM39.6016 24.773C38.8638 24.8957 36.5593 25.8168 34.5309 26.8297C32.4721 27.8121 30.7203 28.6409 30.5975 28.6105C27.4628 28.2729 31.8266 23.054 39.7549 17.7129C47.3452 12.5863 52.4773 9.88486 57.2405 8.50347C60.2214 7.64372 63.5713 7.52104 64.5238 8.22719C65.046 8.62615 64.8618 8.65706 62.5878 8.68749C57.6709 8.68749 51.9856 11.2049 42.7358 17.3748C37.9422 20.5675 32.3797 25.1416 32.3797 25.8781C32.3797 26.0317 33.2709 25.7245 34.3772 25.2338C36.7435 24.1591 39.1713 23.6066 40.2466 23.8524C41.3839 24.1591 41.1378 24.5581 39.6016 24.773ZM51.4939 27.4131C54.3829 26.8297 54.5057 26.7992 54.5057 26.4921C54.5057 26.3389 53.3994 26.1853 52.0165 26.124L49.5274 26.0317L51.8318 23.4225C53.0919 21.9798 54.5671 20.5371 55.0893 20.1994C56.2266 19.4624 56.288 18.9407 55.3659 18.6335L54.6595 18.4186L55.4273 18.1423C55.8577 17.9892 56.6569 17.9274 57.2101 18.0196C58.0398 18.1423 58.224 18.081 58.1317 17.6511C58.0398 17.2217 57.7018 17.1295 56.1956 17.1604C51.8014 17.2217 49.9268 18.3882 53.3685 18.9407C54.321 19.0943 55.1203 19.3397 55.1203 19.4933C55.1203 19.616 54.9665 19.7387 54.7823 19.7387C54.1982 19.7387 49.2508 24.7426 48.6362 25.9704C47.6837 27.7817 48.2059 28.0579 51.4939 27.4131ZM71.7762 15.5027C70.8851 15.564 70.6699 15.7172 70.7313 16.147L70.7408 16.2098C70.7751 16.4366 70.7951 16.5674 70.7442 16.6069C70.6751 16.6601 70.4776 16.5484 70.013 16.2849L69.932 16.2393C69.3484 15.9321 69.287 15.779 69.625 15.5331C69.8402 15.3491 70.4238 15.0728 70.8851 14.9806L71.7452 14.7656L71.1002 14.0904C70.7618 13.6914 70.5775 13.3229 70.6699 13.2002C70.9155 12.9548 73.9274 13.2925 74.3572 13.6301C74.5419 13.7832 74.8185 13.7528 75.0027 13.5687C75.4331 13.1389 76.0167 13.4765 76.0167 14.1517C76.0167 14.5203 75.9248 14.5507 75.6482 14.2744C75.4021 14.0291 75.187 14.0291 74.9104 14.244C74.6648 14.4589 74.4805 14.4589 74.3268 14.2131C74.2344 14.0595 73.6508 13.9064 73.0363 13.9064C72.4688 13.9064 72.2008 13.9064 72.1461 14.0143C72.097 14.1108 72.2199 14.2944 72.4522 14.6429C72.9425 15.4081 72.9134 15.4104 71.7867 15.5017L71.7762 15.5027ZM67.1049 7.33701C67.1049 6.93805 66.7364 6.2319 66.2752 5.77159L65.4145 4.91184L70.0244 5.09587C72.575 5.21903 75.4635 5.49531 76.478 5.77159C77.4919 6.01696 78.6596 6.20099 79.09 6.20099C79.7355 6.20099 79.6122 6.0783 78.414 5.43349C76.3242 4.35928 73.6508 3.83763 68.5187 3.4691C62.3726 3.03923 59.2689 3.6227 59.8525 5.15721C59.9449 5.4644 60.4366 5.61799 61.174 5.61799C62.6797 5.61799 65.1384 6.50817 65.9681 7.33701C66.8593 8.22719 67.1049 8.22719 67.1049 7.33701ZM52.1084 88.6239C54.5976 91.8166 57.886 95.4387 59.4227 96.6665C60.3443 97.4035 61.1435 98.0174 61.2049 98.0174C61.2354 98.0174 60.5594 96.6051 59.6992 94.8861C56.2266 87.9791 54.1982 81.1031 53.2457 73.1832C53.0305 71.4333 52.6925 69.9597 52.3236 69.3458C51.5862 68.118 51.5862 66.5216 52.3545 65.0175C52.7539 64.2196 52.9691 63.2063 52.9691 62.1012V60.413L51.4939 61.9476C50.0496 63.4521 48.6667 64.066 48.6667 63.1449C48.6667 62.4697 50.9407 59.2157 52.1394 58.2028C53.0919 57.4044 53.2147 57.1281 53.5222 54.7339C53.7374 53.2911 54.2291 50.7433 54.6285 49.0547C55.0589 47.3666 55.3045 45.9238 55.2431 45.8625C55.0279 45.6476 47.8065 53.9326 46.823 56.5756C46.6069 57.1562 46.0243 58.1719 45.563 58.7858L44.7642 59.8106C44.7642 59.8106 45.0122 61.2457 45.2864 63.0489C45.5634 64.8711 45.6934 66.1236 45.8096 67.2392C45.9643 68.7314 46.0937 69.9787 46.5155 72.0168C47.0073 74.5337 47.499 76.713 47.6218 76.8666C47.7142 77.0511 48.1136 78.463 48.5134 80.0284C49.3736 83.4973 50.8179 86.9354 52.1084 88.6239ZM176.812 117.664L176.167 117.019C176.167 117.019 186.878 103.425 188.797 98.4164C190.262 94.5941 191.124 93.5099 192.287 93.5099C192.937 93.5099 193.468 93.6583 193.714 94.0268C194.144 94.6712 194.559 95.4696 194.006 98.2015C193.084 102.622 191.67 105.538 187.429 111.831C186.446 113.274 185.186 114.87 184.633 115.423C183.343 116.62 180.439 117.848 178.748 118.124C177.673 118.278 177.365 118.216 176.812 117.664Z" fill="#00160A"/>
<path d="M261.905 147.693C265.728 137.288 265.15 135.071 264.487 134.854C264.487 134.854 263.027 135.683 262.381 137.433C261.183 140.718 257.081 149.313 255.544 150.848C253.731 152.659 253.731 152.659 251.887 152.659C250.043 152.659 244.726 149.885 244.002 147.151C242.843 142.776 247.831 127.579 247.954 126.72L247.124 126.136C246.571 126.658 239.375 148.453 229.915 142.774C228.831 142.124 226.534 139.06 226.35 137.433C225.326 132.705 230.024 116.175 230.824 112.78C231.539 109.74 235.262 106.92 239.841 106.92C246.878 106.92 245.933 113.064 249.085 115.229C250.482 116.189 252.777 114.45 253.485 114.317C257.449 113.581 258.969 114.439 261.874 116.743C264.118 118.521 265.778 122.041 267.604 123.281C268.619 123.97 269.696 123.029 270.049 122.852C271.494 122.126 274.597 122.667 275.457 123.281C276.719 123.831 279.81 126.799 280.298 128.525C282.511 136.349 275.523 153.696 272.884 156.95C268.517 162.336 258.082 158.099 261.905 147.693Z" fill="white"/>
<path fill-rule="evenodd" clip-rule="evenodd" d="M85.2365 119.182C93.657 124.493 102.339 127.961 112.234 128.913C120.04 129.65 130.564 128.637 138.124 126.181C144.485 124.124 153.089 118.426 158.836 113.607C169.991 104.275 177.028 89.6981 180.101 74.227C180.532 72.0472 181.188 66.5687 181.157 61.1354C181.157 54.8114 178.371 37.5309 169.929 27.5667C152.519 7.01556 123.9 -2.24194 99.8483 5.66839C91.1722 8.52153 81.9343 13.6914 74.9585 20.4448C66.1695 29.0095 59.6854 40.6745 57.1039 52.585C54.3996 65.1711 57.9175 80.2129 64.0326 92.5532C68.919 102.377 76.9702 113.933 85.2365 119.182ZM167.287 82.0855C161.509 99.4293 146.451 112.384 127.522 116.313C124.633 116.896 122.636 117.111 118.579 117.172C115.721 117.265 112.864 117.234 112.279 117.172C99.0348 115.576 88.9553 110.695 79.6745 101.425C75.6183 97.3422 73.8974 95.132 71.3773 90.7728C67.4134 83.8659 65.2926 76.8053 64.6476 68.302C62.435 39.1705 83.301 14.8888 112.679 12.3714C124.203 11.3889 136.987 14.9192 146.698 21.7953C150.293 24.3432 156.808 30.7898 158.836 33.798C159.666 34.9954 167.717 46.7527 169.131 53.5061C170.944 62.2857 170.237 73.275 167.287 82.0855Z" fill="white"/>
<path fill-rule="evenodd" clip-rule="evenodd" d="M181.168 61.1349C181.168 81.7393 171.411 104.266 158.819 113.886C152.811 118.476 144.961 124.033 138.124 126.181C128.104 129.327 112.234 128.913 112.234 128.913C112.234 128.913 128.425 126.75 134.425 124.339C151.63 117.422 161.022 106.804 166.822 96.617C178.27 76.5076 181.168 60.6346 181.168 61.1349Z" fill="#E7EAEE"/>
<path fill-rule="evenodd" clip-rule="evenodd" d="M112.586 113.489C104.381 112.445 96.2372 109.529 89.6612 105.201C85.7582 102.653 79.8578 96.667 77.0002 92.4001C72.913 86.2606 70.2086 79.6912 68.8872 72.6307C67.9346 67.504 67.9656 59.6151 68.9181 55.0411C69.9016 50.3752 71.1612 46.814 73.4047 42.3018C76.0167 37.0829 78.7825 33.2459 82.9311 29.1017C89.9992 22.0411 98.2041 17.5593 107.976 15.4104C111.142 14.7352 122.604 14.1826 123.004 14.7048C123.096 14.8579 123.71 15.2573 124.355 15.595C125.001 15.963 126.722 17.2526 128.136 18.5109C130.256 20.353 131.208 21.5195 133.052 24.405C134.312 26.3698 135.326 28.1502 135.326 28.3038C135.326 28.6414 136.31 29.2553 136.863 29.2553C137.631 29.2553 138.154 26.9528 138.307 22.9009C138.399 20.6598 138.584 18.818 138.707 18.818C139.137 18.818 143.869 21.4272 146.082 22.9009C150.415 25.7864 154.748 29.8383 157.944 34.0747C159.388 35.9778 159.603 36.469 159.603 37.6355C159.603 38.7102 159.911 39.539 160.863 41.1967C163.26 45.3713 165.135 50.6206 166.272 56.4224C167.009 60.3213 167.009 67.6886 166.241 71.7714C164.151 83.0066 157.944 94.1804 149.862 101.271C143.009 107.257 135.726 110.941 127.121 112.752C124.171 113.397 115.321 113.827 112.586 113.489ZM90.6138 92.4919C90.8904 92.1851 91.0746 91.7244 90.9822 91.5099C90.9546 91.4452 90.57 91.2645 90.0068 91.0001C88.6939 90.3834 86.4114 89.3116 85.4222 88.1945C81.4887 83.7127 80.044 80.3665 79.1528 73.4595C78.2926 66.737 79.0152 62.192 80.5666 54.8875C81.3231 51.3244 83.3343 48.3809 84.5858 46.5501C85.4364 45.3047 85.9363 44.5738 85.4512 44.512C84.2526 44.3275 84.0683 44.4198 82.8083 45.6171C80.1039 48.1954 78.8748 50.2521 77.5838 54.2122C75.5864 60.413 75.2003 77.171 79.1528 84.7256C83.1053 92.2802 89.9069 93.2903 90.6138 92.4919ZM134.312 66.7061C133.79 71.4747 131.577 78.3712 128.996 81.3793C127.797 82.7917 123.398 85.2168 119.685 84.7256C116.098 84.251 113.292 82.5767 110.896 78.9851C108.837 75.8847 107.773 72.1214 107.055 67.3814C105.813 59.1967 111.234 49.6691 113.569 47.3052C115.935 44.8801 117.626 44.0208 119.777 43.9899C121.866 43.9899 123.219 44.4507 125.339 45.9548C129.211 48.6562 135.326 57.4396 134.312 66.7061ZM92.8878 41.3194C93.5024 40.6132 93.5947 40.2756 93.41 38.9555C93.2872 37.7277 93.0416 37.2365 92.3961 36.7149C91.2588 35.7938 89.8455 35.7938 88.8006 36.7762C88.0632 37.4824 87.9708 37.7277 88.0632 39.4158C88.1551 41.2271 88.2165 41.3498 89.2309 41.9023C90.5828 42.6394 91.9043 42.4245 92.8878 41.3194ZM112.063 22.3788C106.532 26.3389 104.135 27.9657 101.646 29.5007C99.6794 30.7285 99.0643 30.7594 99.0643 29.6543C99.0643 29.0708 99.4947 28.4265 100.601 27.4131L102.138 26.0013L99.1567 25.6023C95.8073 25.1725 92.5498 24.2514 91.8429 23.5452C90.6752 22.3483 91.6891 22.0721 95.008 22.686C96.4833 22.9313 99.3409 23.2385 101.369 23.2999L105.057 23.4535L107.73 21.5195C113.6 17.2831 119.685 14.8888 122.604 15.6254C124.417 16.0553 124.202 16.5465 122.143 16.7918C119.777 17.0681 118.332 17.8665 112.063 22.3788Z" fill="white"/>
<path d="M119.962 80.5196C119.962 80.366 120.146 80.2129 120.393 80.2129C120.638 80.2129 120.946 80.366 121.038 80.5196C121.13 80.7036 120.946 80.8268 120.608 80.8268C120.239 80.8268 119.962 80.7036 119.962 80.5196Z" fill="white"/>
<path d="M121.805 80.2433C121.805 79.9057 122.573 79.599 123.434 79.599C124.11 79.6294 124.11 79.6294 123.526 80.0593C122.85 80.5809 121.805 80.6732 121.805 80.2433Z" fill="white"/>
<path d="M117.041 79.4454C116.949 79.2 116.826 78.7701 116.734 78.5243C116.642 78.2176 116.796 78.064 117.195 78.064C117.533 78.064 117.81 78.248 117.81 78.4939C117.81 78.7392 117.902 79.1382 117.994 79.4145C118.117 79.7526 118.025 79.9057 117.687 79.9057C117.41 79.9057 117.103 79.6908 117.041 79.4454Z" fill="white"/>
<path d="M118.671 78.6779C118.518 77.7573 118.856 77.4501 119.962 77.4501C120.3 77.4501 120.577 77.7573 120.7 78.2789C120.945 79.1691 120.546 79.599 119.47 79.599C118.979 79.599 118.764 79.3841 118.671 78.6779Z" fill="white"/>
<path d="M115.536 78.8315C114.952 78.3707 114.952 78.3707 115.597 78.3707C115.997 78.3707 116.273 78.5552 116.273 78.8315C116.273 79.3841 116.273 79.3841 115.536 78.8315Z" fill="white"/>
<path d="M121.712 78.8006C121.313 78.4016 121.497 77.2043 121.989 77.0202C122.88 76.6826 123.279 76.8362 123.464 77.6341C123.587 78.0949 123.648 78.4939 123.587 78.5243C123.341 78.8006 121.896 78.9851 121.712 78.8006Z" fill="white"/>
<path d="M124.447 78.1558C124.355 78.064 124.263 77.665 124.263 77.2965C124.263 76.7749 124.509 76.5599 125.247 76.4063C125.892 76.2836 126.291 76.345 126.476 76.5904C126.783 77.0816 126.783 77.6955 126.507 77.8491C125.953 78.1558 124.662 78.3403 124.447 78.1558Z" fill="white"/>
<path d="M114.123 77.2047C114.123 76.8362 114.4 76.5295 114.8 76.4372C115.598 76.2223 115.567 76.1914 115.721 76.9898C115.783 77.4501 115.629 77.6346 114.984 77.696C114.308 77.7877 114.123 77.665 114.123 77.2047Z" fill="white"/>
<path d="M116.458 77.2351C116.028 76.7748 116.304 75.9151 116.888 75.9151C117.288 75.9151 117.503 76.1301 117.503 76.4986C117.503 77.082 116.796 77.5728 116.458 77.2351Z" fill="white"/>
<path d="M118.302 76.3145C118.057 75.7311 118.579 75.3012 119.593 75.3012C120.054 75.3012 120.269 75.4857 120.269 75.8847C120.269 76.2223 119.993 76.5295 119.593 76.6522C118.579 76.8975 118.517 76.8975 118.302 76.3145Z" fill="white"/>
<path d="M127.184 76.2223C127.275 76.0687 127.429 75.9151 127.522 75.9151C127.614 75.9151 127.583 76.0687 127.491 76.2223C127.399 76.4063 127.245 76.5295 127.153 76.5295C127.061 76.5295 127.091 76.4063 127.184 76.2223Z" fill="white"/>
<path d="M121.068 75.7002C120.821 75.0863 121.129 74.7791 122.112 74.6255C122.666 74.5642 122.911 74.6873 122.973 75.1167C123.188 76.1301 121.436 76.6826 121.068 75.7002Z" fill="white"/>
<path d="M113.692 75.178C113.416 74.1652 113.477 74.0729 114.276 74.0729C114.706 74.0729 115.044 74.1961 115.044 74.3492C115.044 74.5028 115.137 74.8404 115.229 75.0863C115.321 75.393 115.137 75.5775 114.614 75.6692C114.03 75.7919 113.815 75.6693 113.692 75.178Z" fill="white"/>
<path d="M123.957 74.8409C123.957 74.2883 124.172 74.0425 124.755 73.8889C125.616 73.674 126.107 74.1038 126.107 75.0863C126.107 75.4852 125.862 75.6079 125.032 75.6079C124.079 75.6079 123.957 75.5161 123.957 74.8409Z" fill="white"/>
<path d="M112.77 74.8404C112.678 74.5951 112.739 74.3801 112.893 74.3801C113.077 74.3801 113.201 74.5951 113.201 74.8404C113.201 75.0863 113.139 75.3012 113.077 75.3012C113.016 75.3012 112.893 75.0863 112.77 74.8404Z" fill="white"/>
<path d="M115.874 75.0863C115.445 74.6873 115.69 73.8276 116.243 73.674C116.581 73.5822 116.919 73.6126 117.012 73.7049C117.381 74.0425 117.165 74.9327 116.704 75.1167C116.121 75.3317 116.121 75.3317 115.874 75.0863Z" fill="white"/>
<path d="M126.846 74.8718C126.508 73.9812 126.877 73.3059 127.737 73.2141C128.382 73.1219 128.567 73.2446 128.567 73.7358C128.567 74.7487 128.228 75.3012 127.614 75.3012C127.276 75.3012 126.938 75.1172 126.846 74.8718Z" fill="white"/>
<path d="M118.025 74.4724C117.656 74.1348 117.779 73.5208 118.302 73.3368C118.885 73.1219 120.115 73.7358 119.777 74.0734C119.347 74.442 118.24 74.7182 118.025 74.4724Z" fill="white"/>
<path d="M120.7 73.7049C120.423 73.275 121.406 72.5384 122.206 72.5384C122.574 72.5384 122.728 72.7224 122.667 73.0601C122.544 73.674 120.976 74.1652 120.7 73.7049Z" fill="white"/>
<path d="M112.279 73.4899C112.279 73.3363 112.187 72.9987 112.095 72.7224C112.002 72.4462 112.033 72.2312 112.218 72.2312C112.617 72.2312 112.924 73.3977 112.556 73.6435C112.402 73.7358 112.279 73.674 112.279 73.4899Z" fill="white"/>
<path d="M113.109 72.7838C112.924 72.1085 113.293 71.6173 114 71.6173C114.399 71.6173 114.799 72.8147 114.553 73.2136C114.215 73.7358 113.262 73.4286 113.109 72.7838Z" fill="white"/>
<path d="M115.259 72.9374C114.798 72.4771 115.075 71.372 115.689 71.2184C116.15 71.0957 116.396 71.2488 116.642 71.8014C116.826 72.2008 116.918 72.5998 116.857 72.6611C116.549 72.9374 115.444 73.1523 115.259 72.9374Z" fill="white"/>
<path d="M123.557 72.9374C123.157 72.5384 123.342 72.2926 124.264 71.955C125.032 71.7096 125.247 71.74 125.401 72.1086C125.677 72.8451 124.141 73.5513 123.557 72.9374Z" fill="white"/>
<path d="M126.261 72.2312C125.954 71.7405 126.384 71.3106 127.183 71.3106C128.136 71.3106 128.413 72.1085 127.552 72.3544C126.63 72.5998 126.477 72.5693 126.261 72.2312Z" fill="white"/>
<path d="M128.873 71.4946C128.873 71.0343 129.426 70.5431 129.672 70.7885C129.887 71.0034 129.457 71.9245 129.15 71.9245C128.996 71.9245 128.873 71.74 128.873 71.4946Z" fill="white"/>
<path d="M111.88 71.0957C111.757 71.0034 111.664 70.6045 111.695 70.2668C111.695 69.6839 111.726 69.6839 112.002 70.3591C112.31 71.0957 112.249 71.4642 111.88 71.0957Z" fill="white"/>
<path d="M112.462 70.6354C112.186 69.5607 112.217 69.4689 113.015 69.4689C113.907 69.4689 114.46 70.6045 113.784 71.0344C113.077 71.4642 112.677 71.3415 112.462 70.6354Z" fill="white"/>
<path d="M123.034 71.2488C123.034 71.157 123.188 70.6658 123.372 70.1132C123.802 68.8854 124.755 68.8236 124.97 70.021C125.062 70.4813 125.093 70.8807 125.062 70.9112C124.909 71.0952 123.034 71.3715 123.034 71.2488Z" fill="white"/>
<path d="M114.645 70.4818C114.523 70.3895 114.43 70.021 114.43 69.6834C114.43 69.1922 114.523 69.1617 114.891 69.4684C115.137 69.6834 115.352 70.0519 115.352 70.2669C115.352 70.7272 114.983 70.8498 114.645 70.4818Z" fill="white"/>
<path d="M125.707 69.8679C125.523 68.9164 125.922 68.4865 126.875 68.6092C127.336 68.6705 127.49 68.9468 127.49 69.6225C127.49 70.39 127.367 70.574 126.69 70.6354C126.014 70.7276 125.861 70.574 125.707 69.8679Z" fill="white"/>
<path d="M128.719 69.9905C128.319 68.7623 128.442 68.3942 129.272 68.302C130.01 68.2097 130.102 68.302 130.102 69.1004C130.102 69.7756 129.917 70.0519 129.457 70.1746C129.118 70.2668 128.78 70.1746 128.719 69.9905Z" fill="white"/>
<path d="M111.418 68.2406C111.418 67.6572 111.479 67.4118 111.572 67.7185C111.633 67.9948 111.633 68.486 111.572 68.7932C111.479 69.0695 111.418 68.8236 111.418 68.2406Z" fill="white"/>
<path d="M112.186 68.6401C111.786 68.2716 111.971 67.0747 112.462 66.8902C113.169 66.6139 113.507 66.9515 113.507 67.9648C113.507 68.6092 113.353 68.855 112.954 68.855C112.647 68.855 112.278 68.7628 112.186 68.6401Z" fill="white"/>
<path d="M114.03 67.8108C113.907 67.3504 113.846 66.8592 113.969 66.767C114.276 66.4603 114.461 66.9515 114.368 67.8417L114.276 68.7009L114.03 67.8108Z" fill="white"/>
<path d="M123.957 67.5963C123.957 67.2587 124.11 67.0742 124.264 67.1664C124.448 67.2587 124.571 67.5654 124.571 67.8112C124.571 68.0566 124.448 68.2406 124.264 68.2406C124.11 68.2406 123.957 67.9644 123.957 67.5963Z" fill="white"/>
<path d="M125.339 67.9953C124.909 67.535 125.247 66.7061 125.954 66.5216C126.845 66.3067 126.876 66.3067 127.152 67.1969C127.336 67.7494 127.214 67.8726 126.414 67.9953C125.923 68.087 125.431 68.0566 125.339 67.9953Z" fill="white"/>
<path d="M128.167 67.4123C127.829 67.1051 127.92 66.0922 128.258 66.0922C128.443 66.0922 128.566 65.9695 128.566 65.785C128.566 65.6319 128.382 65.4783 128.136 65.4783C127.613 65.4783 127.183 63.9742 127.613 63.5444C128.167 62.9918 128.781 63.5748 129.15 65.0794C129.365 65.8773 129.58 66.7984 129.672 67.1051C129.795 67.5041 129.672 67.6272 129.088 67.6272C128.689 67.6272 128.258 67.535 128.167 67.4123Z" fill="white"/>
<path d="M129.826 65.785C129.611 64.864 129.058 63.0222 128.658 61.6713C128.044 59.7069 127.982 59.2157 128.32 59.0007C128.536 58.8471 128.812 58.7245 128.904 58.7245C129.242 58.7245 130.472 65.0175 130.348 66.2453L130.256 67.4731L129.826 65.785Z" fill="white"/>
<path d="M111.111 65.6315C111.111 65.1402 111.172 64.9562 111.265 65.2629C111.326 65.5392 111.326 65.9691 111.265 66.184C111.172 66.368 111.111 66.1531 111.111 65.6315Z" fill="white"/>
<path d="M111.725 65.5701C111.848 64.4959 112.739 64.2501 112.985 65.2325C113.2 66.0304 113.262 65.9386 112.34 66.2454C111.694 66.4299 111.633 66.3685 111.725 65.5701Z" fill="white"/>
<path d="M124.693 65.2938C124.448 64.4036 124.97 63.882 125.954 64.0047C126.691 64.0969 126.967 65.4165 126.353 65.816C125.585 66.3067 124.878 66.0922 124.693 65.2938Z" fill="white"/>
<path d="M113.508 65.0484C113.508 64.5263 113.661 64.2501 113.999 64.2501C114.307 64.2501 114.43 64.465 114.368 64.9253C114.215 65.9077 113.508 65.9999 113.508 65.0484Z" fill="white"/>
<path d="M110.773 63.7588C110.773 63.4212 110.865 63.3294 110.958 63.5748C111.049 63.7898 111.019 64.066 110.927 64.1583C110.834 64.281 110.742 64.0965 110.773 63.7588Z" fill="white"/>
<path d="M111.356 63.667C111.356 63.2063 111.541 63.0223 112.002 63.0223C112.432 63.0223 112.586 63.1758 112.524 63.5444C112.37 64.3423 111.356 64.4345 111.356 63.667Z" fill="white"/>
<path d="M113.047 63.3908C112.832 62.8382 112.832 62.8382 113.754 62.5924C114.307 62.4083 114.43 62.5006 114.43 62.9609C114.43 63.6975 113.323 64.066 113.047 63.3908Z" fill="white"/>
<path d="M124.171 62.9609C123.956 62.1934 124.355 61.7944 125.43 61.7944C125.953 61.7944 126.107 61.9785 126.107 62.5619C126.107 63.0222 125.922 63.3294 125.676 63.3294C125.43 63.3294 125.031 63.4217 124.785 63.5134C124.509 63.6057 124.294 63.4217 124.171 62.9609Z" fill="white"/>
<path d="M126.844 62.2552C126.598 61.6408 126.967 61.1805 127.674 61.1805C128.104 61.1805 128.258 61.3955 128.258 61.948C128.258 62.5006 128.104 62.7155 127.643 62.7155C127.305 62.7155 126.936 62.5006 126.844 62.2552Z" fill="white"/>
<path d="M111.049 61.8249C111.049 61.1801 111.756 60.4435 112.064 60.7811C112.187 60.8734 112.279 61.3028 112.279 61.7022C112.279 62.193 112.094 62.4079 111.664 62.4079C111.265 62.4079 111.049 62.193 111.049 61.8249Z" fill="white"/>
<path d="M112.74 61.4563C112.494 60.6893 112.771 60.3512 113.816 60.1981C114.768 60.0749 115.076 61.0883 114.246 61.7022C113.447 62.2852 112.955 62.1934 112.74 61.4563Z" fill="white"/>
<path d="M123.864 61.2723C123.649 61.0883 123.557 59.9523 123.741 59.9523C123.772 59.9523 124.233 59.8296 124.786 59.676C125.708 59.3997 125.769 59.4306 125.738 60.2595C125.708 60.8733 125.523 61.1805 125.062 61.3032C124.233 61.5181 124.11 61.5181 123.864 61.2723Z" fill="white"/>
<path d="M122.727 60.5662C122.727 60.3517 122.819 60.2595 122.942 60.3517C123.034 60.4744 123.034 60.6584 122.942 60.7811C122.819 60.8733 122.727 60.7811 122.727 60.5662Z" fill="white"/>
<path d="M126.169 60.0754C126.261 59.5538 127.214 58.7863 127.429 59.0317C127.521 59.1239 127.674 59.492 127.767 59.8914C127.982 60.5053 127.89 60.5666 127.029 60.5666C126.291 60.5666 126.077 60.4439 126.169 60.0754Z" fill="white"/>
<path d="M111.356 60.0445C111.356 59.8909 111.51 59.5842 111.663 59.3384C111.91 58.9703 111.971 59.0007 111.971 59.5842C111.971 59.9527 111.848 60.2595 111.663 60.2595C111.51 60.2595 111.356 60.1672 111.356 60.0445Z" fill="white"/>
<path d="M112.279 59.3693C112.279 58.5095 112.924 58.2332 113.416 58.8781C113.723 59.3384 113.723 59.4919 113.416 59.7069C112.77 60.1058 112.279 59.9832 112.279 59.3693Z" fill="white"/>
<path d="M121.621 58.9698C121.068 58.3559 121.068 58.3255 121.591 58.5095C121.898 58.6322 122.297 58.7245 122.451 58.7245C122.605 58.7245 122.727 58.9394 122.727 59.1848C122.727 59.8296 122.297 59.7682 121.621 58.9698Z" fill="white"/>
<path d="M115.014 58.9394C113.692 57.9265 113.508 55.655 114.737 55.655C115.567 55.655 116.335 56.9441 116.212 58.1415C116.12 59.2466 115.752 59.492 115.014 58.9394Z" fill="white"/>
<path d="M123.434 59.1239C123.557 59.0317 123.741 59.0317 123.864 59.1239C123.957 59.2466 123.864 59.3388 123.649 59.3388C123.434 59.3388 123.342 59.2466 123.434 59.1239Z" fill="white"/>
<path d="M128.073 57.9265C128.166 57.6503 128.258 57.374 128.258 57.3126C128.258 57.2513 128.411 57.1899 128.565 57.1899C128.749 57.1899 128.872 57.4662 128.872 57.8039C128.872 58.1719 128.657 58.4178 128.38 58.4178C128.042 58.4178 127.95 58.2642 128.073 57.9265Z" fill="white"/>
<path d="M111.972 57.8343C111.972 57.1286 112.617 55.9617 112.986 55.9617C113.631 55.9617 113.17 57.9265 112.494 58.0492C112.218 58.1105 111.972 58.0188 111.972 57.8343Z" fill="white"/>
<path d="M118.885 57.4966L117.963 57.2817L118.793 57.0668C119.653 56.8214 120.268 57.0054 120.268 57.5276C120.268 57.8343 120.237 57.8343 118.885 57.4966Z" fill="white"/>
<path d="M117.81 56.023C117.81 54.7643 118.517 54.5803 119.163 55.6854C119.593 56.422 119.624 56.5756 119.224 56.5756C118.979 56.5756 118.579 56.6678 118.302 56.7596C117.934 56.9132 117.81 56.7292 117.81 56.023Z" fill="white"/>
<path d="M123.157 56.4529C121.774 55.839 120.883 54.2122 120.883 52.2783C120.883 50.8969 121.006 50.5592 121.835 49.7917C122.358 49.3005 122.88 48.9016 123.034 48.9016C123.71 48.9016 126.199 51.2654 127.029 52.7386L127.981 54.4272L126.967 55.5014C125.799 56.7292 124.509 57.0668 123.157 56.4529Z" fill="white"/>
<path d="M116.735 55.6549C116.642 55.5014 116.704 55.3478 116.857 55.3478C117.042 55.3478 117.195 55.5014 117.195 55.6549C117.195 55.839 117.134 55.9621 117.073 55.9621C116.98 55.9621 116.827 55.839 116.735 55.6549Z" fill="white"/>
<path d="M112.708 55.1637C112.8 54.8875 112.893 54.6112 112.893 54.5499C112.893 54.4885 113.169 54.4272 113.507 54.4272C114.275 54.4272 114.306 54.9184 113.538 55.3483C112.708 55.7776 112.493 55.7472 112.708 55.1637Z" fill="white"/>
<path d="M115.137 54.7952C114.43 54.7034 114.215 54.3045 114.676 54.0282C114.799 53.9359 115.352 53.7823 115.905 53.6597C116.735 53.4756 116.888 53.537 116.888 54.0586C116.888 54.7034 116.243 54.9797 115.137 54.7952Z" fill="white"/>
<path d="M117.502 53.7514C117.502 53.3834 117.533 53.1684 117.594 53.2298C117.625 53.2911 117.871 53.5978 118.086 53.905C118.455 54.3349 118.424 54.4267 117.994 54.4267C117.686 54.4267 117.502 54.1813 117.502 53.7514Z" fill="white"/>
<path d="M113.201 53.5365C113.201 53.3525 113.355 53.1375 113.508 53.0458C113.693 52.9535 113.816 53.0762 113.816 53.322C113.816 53.5983 113.693 53.8128 113.508 53.8128C113.355 53.8128 113.201 53.6901 113.201 53.5365Z" fill="white"/>
<path d="M114.338 53.0762C114.092 52.4623 116.274 51.787 116.643 52.37C116.919 52.8613 116.643 53.0762 115.475 53.3221C114.768 53.4752 114.461 53.4138 114.338 53.0762Z" fill="white"/>
<path d="M117.225 52.0938C117.225 51.7562 117.318 51.6639 117.41 51.9097C117.502 52.1247 117.471 52.4009 117.379 52.4927C117.287 52.6159 117.195 52.4314 117.225 52.0938Z" fill="white"/>
<path d="M114.614 51.603C114.982 50.9273 116.058 49.8222 116.335 49.8222C116.642 49.8222 116.673 51.2649 116.365 51.4494C116.212 51.5108 115.72 51.6644 115.259 51.7871C114.583 51.9406 114.429 51.9097 114.614 51.603Z" fill="white"/>
<path d="M117.072 50.8964C116.734 49.9758 116.888 49.5763 117.625 49.4537C118.394 49.3001 118.394 49.3001 117.902 50.2521C117.287 51.4799 117.318 51.4799 117.072 50.8964Z" fill="white"/>
<path d="M116.888 49.0552C116.888 48.9934 117.503 48.564 118.271 48.1341C119.193 47.5815 119.838 47.3975 120.3 47.5202C120.853 47.7042 120.699 47.8269 119.347 48.4717C117.841 49.1469 116.888 49.3928 116.888 49.0552Z" fill="white"/>
<path d="M133.943 21.8571C133.113 20.6598 131.362 18.7258 130.102 17.5593C128.842 16.3929 128.012 15.4414 128.258 15.4414C128.934 15.4414 134.097 16.8532 135.387 17.4057C136.463 17.8661 136.493 17.9279 136.217 18.8794C136.063 19.4319 135.94 20.8133 135.94 21.9489C135.94 23.1154 135.848 24.0364 135.726 24.0364C135.572 24.0364 134.803 23.054 133.943 21.8571Z" fill="white"/>
<path d="M71.4082 114.84C70.1482 114.195 69.8716 113.827 68.2736 110.665C65.9691 106.183 65.9072 105.139 68.0893 107.687C68.9495 108.7 70.9474 110.788 72.5145 112.323C75.1879 114.901 75.3108 115.085 74.4196 114.963C73.7746 114.87 73.5285 114.932 73.6822 115.177C74.0512 115.73 72.883 115.577 71.4082 114.84Z" fill="white"/>
<path fill-rule="evenodd" clip-rule="evenodd" d="M122.906 170.768C122.652 170.162 122.936 169.466 123.541 169.211L124.204 168.93C130.641 166.179 134.335 164.526 136.846 161.902C139.357 159.277 139.657 155.423 140.129 153.077C140.258 152.434 141.717 153.564 142.362 153.693C143.006 153.823 143.424 154.449 143.294 155.093C142.727 157.913 141.2 160.602 138.741 163.154C136.291 165.697 131.547 168.424 124.465 171.402C123.859 171.657 123.162 171.373 122.906 170.768Z" fill="#00160A"/>
<path fill-rule="evenodd" clip-rule="evenodd" d="M152.018 48.2848C152.582 47.9486 153.313 48.1341 153.649 48.698C157.015 54.3468 158.818 60.8044 158.818 67.5226C158.818 87.876 142.301 104.376 121.926 104.376C116.512 104.376 111.261 103.209 106.452 100.987C105.855 100.711 103.602 98.5158 105.872 99.4084C108.141 100.301 116.922 102.305 121.989 102.305C141.05 102.305 154.534 86.5626 154.534 67.5226C154.534 61.2352 152.018 55.655 151.604 49.9144C151.556 49.2487 151.453 48.6205 152.018 48.2848Z" fill="#00160A"/>
<path fill-rule="evenodd" clip-rule="evenodd" d="M34.1539 138.259C34.5747 137.755 35.3249 136.736 35.83 137.155C37.9017 138.879 40.1129 140.876 42.4778 141.262C44.9384 141.663 47.8579 141.663 51.2321 141.255C51.8847 141.176 52.4778 141.641 52.5568 142.293C52.6359 142.944 52.1708 143.536 51.5182 143.615C47.9351 144.049 44.7951 144.049 42.0941 143.609C39.2974 143.153 36.6969 141.922 34.3067 139.933C33.8016 139.513 33.7336 138.764 34.1539 138.259Z" fill="#00160A"/>
<path d="M59.4227 96.6665C57.886 95.4387 54.5976 91.8166 52.1084 88.6239C50.8179 86.9354 49.3736 83.4973 48.5134 80.0284C48.1136 78.463 47.7142 77.0511 47.6218 76.8666C47.499 76.713 47.0073 74.5337 46.5155 72.0168C45.7781 68.456 45.9338 67.3081 45.2864 63.0489C45.0122 61.2457 44.7642 59.8106 44.7642 59.8106L45.563 58.7858C46.0243 58.1719 46.6069 57.1562 46.823 56.5756C47.8065 53.9326 55.0279 45.6476 55.2431 45.8625C55.3045 45.9238 55.0589 47.3666 54.6285 49.0547C54.2291 50.7433 53.7374 53.2911 53.5222 54.7339C53.2147 57.1281 53.0919 57.4044 52.1394 58.2028C50.9407 59.2157 48.6667 62.4697 48.6667 63.1449C48.6667 64.066 50.0496 63.4521 51.4939 61.9476L52.9691 60.413V62.1012C52.9691 63.2063 52.7539 64.2196 52.3545 65.0175C51.5862 66.5216 51.5862 68.118 52.3236 69.3458C52.6925 69.9597 53.0305 71.4333 53.2457 73.1832C54.1982 81.1031 56.2266 87.9791 59.6992 94.8861C60.5594 96.6051 61.2354 98.0174 61.2049 98.0174C61.1435 98.0174 60.3443 97.4035 59.4227 96.6665Z" fill="white"/>
<path fill-rule="evenodd" clip-rule="evenodd" d="M187.291 115.607L189.504 116.589C189.963 116.801 195.024 119.23 201.104 122.148C210.906 126.853 223.355 132.828 223.43 132.828C223.554 132.828 224.13 131.496 224.26 129.943C224.567 126.597 225.704 122.053 227.026 118.891C227.64 117.48 228.132 115.715 228.132 115.561C228.132 115.491 227.633 115.29 226.815 114.96C225.841 114.568 224.417 113.994 222.847 113.243C215.103 109.529 199.952 101.947 198.078 100.811C196.234 99.7365 195.865 99.6442 195.865 100.35C195.865 101.271 193.991 105.538 192.546 107.84C191.778 109.099 190.272 111.371 189.197 112.875L187.291 115.607ZM222.908 127.303C223.789 127.813 222.263 128.561 221.894 128.684C219.722 128.868 217.166 128.46 215.072 127.241C213.977 126.466 205.353 121.68 199.633 118.505C197.019 117.055 195.01 115.94 194.606 115.699C193.315 114.932 192.085 114.103 191.87 113.857C191.225 113.028 191.84 112.66 193.652 112.813C194.743 112.906 221.004 126.201 222.908 127.303Z" fill="white"/>
<path d="M165.227 118.37C164.428 118.094 163.568 117.48 163.015 116.773L162.092 115.637L165.35 112.414C170.359 107.503 174.047 102.135 177.366 96.1491C178.472 94.1538 181.76 86.1065 182.16 85.2163C182.774 83.9272 183.235 83.436 184.556 82.6994C186.124 81.7783 187.906 81.4716 188.674 81.9932C190.149 82.9757 190.149 86.0761 188.674 91.4172C187.046 97.2804 184.864 101.486 180.346 107.534C179.64 108.454 178.318 110.265 177.366 111.524C174.815 114.901 173.155 116.528 170.912 117.786C168.7 119.014 167.409 119.168 165.227 118.37Z" fill="white"/>
<path d="M176.812 117.664L176.167 117.019C176.167 117.019 186.878 103.425 188.797 98.4164C190.262 94.5941 191.124 93.5099 192.287 93.5099C192.937 93.5099 193.468 93.6583 193.714 94.0268C194.144 94.6712 194.559 95.4696 194.006 98.2015C193.084 102.622 191.67 105.538 187.429 111.831C186.446 113.274 185.186 114.87 184.633 115.423C183.343 116.62 180.439 117.848 178.748 118.124C177.673 118.278 177.365 118.216 176.812 117.664Z" fill="white"/>
<path fill-rule="evenodd" clip-rule="evenodd" d="M194.804 103.449C195.423 102.033 195.865 100.797 195.865 100.35C195.865 99.6442 196.234 99.7365 198.078 100.811C199.952 101.947 215.103 109.529 222.847 113.243C225.735 114.625 228.132 115.408 228.132 115.561C228.132 115.715 194.147 104.951 194.804 103.449Z" fill="#E7EAEE"/>
<path fill-rule="evenodd" clip-rule="evenodd" d="M89.6612 105.201C85.7582 102.653 79.8578 96.667 77.0002 92.4001C72.913 86.2606 70.2086 79.6912 68.8872 72.6307C67.9346 67.504 67.9656 59.6151 68.9181 55.0411C69.9016 50.3752 71.1612 46.814 73.4047 42.3018C76.0167 37.0829 78.7825 33.2459 82.9311 29.1017C86.9993 25.0379 68.9181 41.8439 73.4047 71.9131C77.0002 97.1111 92.4522 107.038 89.6612 105.201Z" fill="#E7EAEE"/>
</svg>
