<svg width="305" height="224" viewBox="0 0 305 224" fill="none" xmlns="http://www.w3.org/2000/svg">
<path fill-rule="evenodd" clip-rule="evenodd" d="M33.1858 199.27C56.2057 224.323 145.224 209.932 203.839 209.932C229.126 209.932 313.985 222.603 278.943 135.58C164.047 -149.757 -39.7529 119.886 33.1858 199.27Z" fill="#64FCD9"/>
<path fill-rule="evenodd" clip-rule="evenodd" d="M135.039 201.285C135.151 201.199 135.268 201.106 135.317 200.974C135.473 200.549 134.861 200.267 134.409 200.277C133.752 200.293 132.911 200.734 133.111 201.359C133.228 201.721 133.673 201.888 134.047 201.821C134.421 201.755 134.738 201.516 135.039 201.285ZM136.99 193.845C137.485 194.001 137.975 194.193 138.406 194.482C139.216 195.024 139.768 195.866 140.296 196.685C140.676 197.273 141.06 197.871 141.25 198.544C141.455 199.273 141.418 200.05 141.281 200.795C140.853 203.114 139.422 205.23 137.429 206.49C135.435 207.75 132.91 208.136 130.63 207.528C130.187 207.41 129.74 207.248 129.399 206.941C129.113 206.683 128.919 206.339 128.742 205.997C127.814 204.197 127.188 202.198 127.26 200.175C127.331 198.152 128.163 196.104 129.739 194.833C131.716 193.237 134.565 193.085 136.99 193.845Z" fill="white"/>
<path fill-rule="evenodd" clip-rule="evenodd" d="M241.637 83.7772C240.551 83.7635 239.532 84.6746 239.424 85.7555C239.381 86.1973 239.568 86.7464 240.007 86.8074C240.337 86.8527 240.626 86.5984 240.848 86.3498C241.316 85.8246 241.719 85.241 242.043 84.6161C242.151 84.4061 242.247 84.1372 242.105 83.9491C242 83.8123 241.809 83.7793 241.637 83.7772ZM241.167 78.9299C242.71 79.4678 244.108 80.4145 245.181 81.6469C246.103 82.706 246.805 84.0813 246.611 85.4718C246.54 85.9828 246.352 86.4693 246.136 86.9381C245.323 88.7125 243.923 90.4131 242.001 90.7573C240.993 90.9373 239.953 90.7212 238.983 90.3913C237.862 90.01 236.793 89.4751 235.815 88.806C235.297 88.4511 234.782 88.0297 234.554 87.444C234.398 87.0403 234.393 86.5959 234.399 86.1627C234.413 85.092 234.484 84.003 234.857 82.9993C235.33 81.7293 236.254 80.6809 237.235 79.7455C237.629 79.3692 238.047 78.9986 238.553 78.7967C239.382 78.4668 240.325 78.6361 241.167 78.9299Z" fill="white"/>
<path fill-rule="evenodd" clip-rule="evenodd" d="M241.639 1.67124C248.022 8.25377 253.061 16.1246 256.359 24.6666C256.586 25.2534 256.805 25.9046 256.589 26.4954C254.925 31.0422 251.714 34.8335 248.566 38.5196C246.553 40.8746 244.542 43.2301 242.53 45.5856C240.609 47.8339 238.688 50.0826 236.702 52.2749C226.593 63.4353 214.647 73.1944 200.812 79.1989C200.289 79.4256 199.73 79.6514 199.167 79.5609C198.605 79.4704 198.078 78.9269 198.225 78.3788C199.936 72.0098 201.657 65.351 200.285 58.9017C199.953 57.3459 199.585 55.3875 200.875 54.4515C211.324 46.8725 218.847 36.0395 226.057 25.3535C227.87 22.6665 229.678 19.9719 231.282 17.1567C234.131 12.1579 236.324 6.78952 237.79 1.22993C237.991 0.467301 238.958 0.123612 239.724 0.323421C240.49 0.523739 241.089 1.10435 241.639 1.67124Z" fill="white"/>
<path fill-rule="evenodd" clip-rule="evenodd" d="M42.559 27.2433C43.5969 36.6242 46.4857 45.7971 51.0103 54.0808C53.8121 59.2093 57.2196 63.9783 60.6184 68.7325C62.9835 72.0408 65.5122 75.4884 69.2024 77.1982C70.1838 77.6528 70.0471 79.0672 69.7836 80.1161C68.6451 84.6492 68.1142 89.3338 68.2088 94.0067C68.218 94.448 68.2297 94.9056 68.0558 95.3118C67.4669 96.6901 65.4497 96.4603 64.0605 95.8965C55.4663 92.4082 48.868 85.3935 42.7039 78.4632C34.7011 69.4652 26.8173 60.0726 22.0898 48.9981C21.7684 48.2452 21.4562 47.4531 21.5101 46.636C21.565 45.8037 21.9927 45.0472 22.4264 44.3349C26.7121 37.2968 32.6743 31.2868 39.6789 26.9449C40.1721 26.6393 40.6989 26.3327 41.2786 26.3124C41.8588 26.2926 42.4949 26.6663 42.559 27.2433Z" fill="white"/>
<path fill-rule="evenodd" clip-rule="evenodd" d="M240.387 191.814C241.128 190.559 242.046 189.178 243.483 188.94C244.05 188.846 244.349 188.23 244.542 187.689C246.919 181.024 247.147 173.612 245.187 166.813C244.627 164.872 245.316 162.815 245.998 160.914C247.757 156.007 249.516 151.1 251.275 146.194C250.268 144.451 247.61 144.503 246.249 143.019C244.497 141.11 245.818 138.075 247.191 135.877C255.209 123.038 263.227 110.199 271.246 97.3597C272.228 95.7866 274.384 95.2935 276.19 95.7129C277.997 96.1319 279.54 97.2687 281.026 98.3786C286.874 102.746 292.722 107.113 298.57 111.48C301.708 113.824 305.173 116.819 304.992 120.731C304.893 122.896 303.654 124.821 302.455 126.626C297.82 133.609 293.186 140.592 288.551 147.574C285.94 151.508 286.661 156.675 285.872 161.33C284.625 168.685 279.581 174.725 274.91 180.541C270.239 186.359 265.565 192.854 265.302 200.309C264.989 209.195 260.768 217.873 253.969 223.604C255.941 218.821 243.483 220.729 229.233 215.06C231.578 206.765 236.005 199.238 240.387 191.814Z" fill="white"/>
<path fill-rule="evenodd" clip-rule="evenodd" d="M83.9078 212.616C83.0194 211.89 82.7362 210.663 82.5791 209.523C80.7642 196.33 88.5585 183.307 87.1698 170.062C86.4543 163.236 83.3179 156.867 79.3704 151.265C76.6443 147.397 76.4918 142.215 77.5088 137.587C78.5258 132.958 80.5771 128.631 81.9607 124.099C88.1141 103.948 80.6269 82.4218 73.2242 62.6996C87.9748 55.568 105.188 56.9494 121.529 57.9154C137.87 58.8819 155.445 58.95 169.065 49.8254C170.932 69.5648 166.816 89.3261 162.723 108.723C183.491 106.7 204.259 104.677 225.027 102.654C225.622 102.596 226.273 102.552 226.768 102.89C227.428 103.341 227.53 104.261 227.567 105.062C228.538 125.59 229.127 146.137 229.333 166.688C229.338 167.203 229.32 167.778 228.959 168.143C228.649 168.456 228.177 168.521 227.74 168.57C198.643 171.812 169.547 175.054 140.451 178.296C137.934 178.576 134.351 177.921 134.498 175.382C135.155 164.058 134.771 152.674 133.353 141.422C125.621 141.129 117.836 142.308 110.532 144.878C108.876 145.46 106.883 147.028 107.777 148.546C113.689 158.591 106.351 173.691 114.381 182.123C117.141 185.022 116.951 189.583 116.404 193.558C115.231 202.078 113.238 210.484 110.463 218.621C111.805 209.256 84.728 217.639 83.9078 212.616Z" fill="white"/>
<path fill-rule="evenodd" clip-rule="evenodd" d="M0.684293 0.0137813C0.709159 0.213592 0.600947 0.423578 0.423632 0.51967C0.282421 0.378328 0.141211 0.236988 0 0.0956463C0.211689 0.00311317 0.45175 -0.023327 0.678542 0.0209059L0.684293 0.0137813Z" fill="#00160A"/>
<path fill-rule="evenodd" clip-rule="evenodd" d="M136.481 193.845C136.977 194.001 137.466 194.193 137.898 194.482C138.708 195.024 139.259 195.866 139.788 196.685C140.167 197.273 140.552 197.871 140.741 198.544C140.946 199.273 140.91 200.05 140.772 200.795C140.345 203.114 138.913 205.23 136.92 206.49C134.927 207.75 132.401 208.136 130.122 207.528C129.678 207.41 129.232 207.248 128.891 206.941C128.604 206.683 128.411 206.339 128.234 205.997C127.306 204.197 126.68 202.198 126.752 200.175C126.823 198.152 127.655 196.104 129.23 194.833C131.208 193.237 134.057 193.085 136.481 193.845ZM133.703 205.891C134.942 205.703 136.033 204.894 136.746 203.862C137.458 202.831 137.823 201.594 137.999 200.353C138.099 199.644 138.108 198.832 137.608 198.32C137.308 198.014 136.88 197.877 136.47 197.754C134.929 197.293 133.17 196.901 131.789 197.727C130.784 198.328 130.224 199.443 129.716 200.498C129.121 201.734 129.268 203.293 130.083 204.396C130.898 205.499 132.347 206.097 133.703 205.891Z" fill="#00160A"/>
<path fill-rule="evenodd" clip-rule="evenodd" d="M193.098 138.183C193.12 137.92 193.152 137.638 193.326 137.44C193.496 137.245 193.763 137.176 194.015 137.117C200.49 135.61 207.178 135.021 213.817 135.371C214.663 135.416 215.75 135.702 215.806 136.547C216.127 141.39 216.448 146.233 216.768 151.076C216.785 151.322 216.793 151.593 216.636 151.782C216.508 151.936 216.302 151.996 216.108 152.046C209.203 153.846 201.924 154.201 194.876 153.081C194.695 153.052 194.504 153.019 194.363 152.901C194.193 152.758 194.133 152.525 194.085 152.309C193.045 147.686 192.712 142.905 193.098 138.183ZM194.625 146.217C194.752 148.046 195.136 149.857 195.761 151.58C196.385 151.67 197.003 151.799 197.624 151.905C202.98 152.811 208.458 151.899 213.813 150.988C214.193 150.923 214.609 150.838 214.844 150.531C215.083 150.219 215.052 149.784 215.009 149.393C214.824 147.724 214.639 146.055 214.455 144.386C214.44 144.252 214.421 144.108 214.33 144.007C214.219 143.886 214.038 143.866 213.875 143.855C210.069 143.605 206.251 143.888 202.448 144.173C200.346 144.329 198.244 144.486 196.142 144.643C195.647 144.68 195.086 144.753 194.802 145.159C194.593 145.458 194.6 145.853 194.625 146.217ZM194.684 139.237C194.352 140.304 194.292 141.454 194.512 142.549C194.552 142.746 194.608 142.953 194.757 143.088C194.979 143.286 195.316 143.254 195.611 143.211C199.192 142.686 202.813 142.425 206.432 142.431C206.943 142.432 207.099 141.745 207.094 141.234C207.086 140.487 207.077 139.739 207.069 138.99C207.065 138.558 207.043 138.081 206.746 137.765C206.39 137.386 205.795 137.398 205.276 137.438C204.077 137.529 202.878 137.621 201.679 137.712C201.106 137.756 199.584 138.146 198.884 138.192C197.667 138.386 196.45 138.58 195.232 138.774C195.103 138.795 194.965 138.819 194.865 138.904C194.768 138.987 194.722 139.114 194.684 139.237ZM210.741 142.491C211.693 142.503 212.646 142.408 213.576 142.208C213.798 142.16 214.031 142.099 214.188 141.937C214.42 141.699 214.418 141.325 214.401 140.992C214.352 140.028 214.303 139.063 214.253 138.099C214.236 137.755 214.197 137.368 213.928 137.152C213.692 136.963 213.358 136.974 213.055 136.995C211.997 137.067 210.939 137.139 209.881 137.211C209.713 137.222 209.537 137.236 209.397 137.329C209.141 137.499 209.102 137.853 209.095 138.16C209.072 139.182 209.113 140.206 209.22 141.223C209.251 141.518 209.294 141.828 209.476 142.061C209.76 142.425 210.28 142.485 210.741 142.491Z" fill="#FFB61D"/>
<path fill-rule="evenodd" clip-rule="evenodd" d="M209.671 117.018C211.085 116.406 212.821 116.611 214.054 117.536C215.287 118.461 215.969 120.069 215.777 121.599C216.644 121.13 217.743 120.669 218.552 121.231C219.466 121.867 219.257 123.235 219.12 124.339C218.88 126.268 219.191 128.262 220.006 130.026C220.343 130.754 220.633 131.86 219.885 132.155C219.759 132.204 219.622 132.216 219.486 132.226C210.725 132.932 201.964 133.638 193.202 134.344C192.962 134.364 192.693 134.374 192.511 134.216C192.326 134.054 192.302 133.779 192.293 133.533C192.208 131.473 192.124 129.413 192.041 127.352C192.018 126.799 192.008 126.203 192.32 125.747C192.836 124.991 193.918 124.993 194.823 124.849C195.727 124.704 196.779 123.941 196.43 123.094C196.042 122.15 197.365 121.46 198.374 121.307C199.383 121.153 200.722 120.552 200.416 119.578C200.082 118.515 201.546 117.854 202.651 117.708C203.432 117.604 204.247 117.504 204.986 117.771C205.726 118.039 206.352 118.8 206.185 119.569C205.994 120.45 207.067 121.27 207.912 120.959C208.758 120.648 209.1 119.492 208.672 118.7C208.323 118.053 208.996 117.31 209.671 117.018ZM214.195 130.596C213.867 129.989 213.865 129.266 213.862 128.575C213.848 125.335 213.649 122.094 213.266 118.877C213.247 118.714 213.216 118.532 213.083 118.437C212.968 118.355 212.814 118.365 212.674 118.378C211.989 118.442 211.178 118.593 210.907 119.225C210.792 119.495 210.806 119.799 210.822 120.092C210.995 123.341 211.168 126.588 211.342 129.837C211.358 130.139 211.399 130.486 211.65 130.656C211.787 130.748 211.96 130.765 212.124 130.774C212.818 130.812 213.518 130.752 214.195 130.596ZM202.411 125.602C202.326 126.143 202.207 126.68 202.175 127.227C202.122 128.141 202.314 129.05 202.506 129.945C202.629 130.519 203.37 130.801 203.914 130.58C204.458 130.359 204.786 129.779 204.877 129.199C204.967 128.618 204.861 128.029 204.769 127.449C204.406 125.172 204.249 122.862 204.3 120.556C204.313 119.973 203.744 119.447 203.163 119.504C202.582 119.561 202.128 120.19 202.255 120.759C202.609 122.345 202.663 123.997 202.411 125.602ZM208.173 122.491C207.832 122.044 207.048 122.283 206.782 122.778C206.516 123.274 206.597 123.875 206.663 124.434C206.835 125.893 206.852 127.371 206.712 128.835C206.671 129.266 206.625 129.737 206.863 130.099C207.229 130.656 208.033 130.651 208.697 130.584C208.904 130.562 209.143 130.522 209.248 130.341C209.321 130.215 209.304 130.059 209.284 129.914C208.979 127.644 208.673 125.375 208.367 123.105C208.338 122.89 208.304 122.664 208.173 122.491ZM215.762 123.467C215.505 123.818 215.45 124.275 215.428 124.709C215.351 126.199 215.549 127.688 215.746 129.167C215.824 129.75 216.09 130.499 216.676 130.459C217.271 130.419 217.426 129.624 217.413 129.028C217.376 127.451 217.34 125.873 217.303 124.295C217.293 123.881 217.25 123.401 216.905 123.169C216.544 122.926 216.019 123.116 215.762 123.467ZM197.803 123.094C197.803 123.094 198.065 125.153 198.156 126.202C198.27 127.519 198.416 128.833 198.593 130.143C198.618 130.333 198.653 130.539 198.793 130.67C199.036 130.897 199.975 130.746 200.148 130.462C200.321 130.178 200.311 129.823 200.296 129.49C200.248 128.439 200.201 127.387 200.153 126.336C200.102 125.208 199.834 122.778 199.834 122.778L197.803 123.094ZM194.398 130.549C194.473 130.784 194.562 131.031 194.753 131.189C195.125 131.497 195.729 131.306 196.022 130.923C196.316 130.539 196.382 130.034 196.438 129.554C196.506 128.965 196.573 128.354 196.382 127.792C196.191 127.231 195.664 126.737 195.073 126.79C194.531 126.837 194.11 127.334 193.983 127.864C193.856 128.394 193.963 128.95 194.095 129.479C194.185 129.839 194.286 130.196 194.398 130.549Z" fill="#E7EAEE"/>
<path fill-rule="evenodd" clip-rule="evenodd" d="M229.915 46.2466C229.207 47.3082 228.44 48.3835 227.346 49.0393C226.251 49.6947 224.74 49.8223 223.757 49.0098C222.672 48.113 222.605 46.4967 222.69 45.092C222.724 44.5515 222.767 44.006 222.922 43.4869C223.191 42.5865 223.778 41.8177 224.39 41.1054C225.134 40.2406 225.958 39.4068 226.988 38.9202C228.02 38.4337 229.301 38.3483 230.268 38.9538C231.424 39.6783 231.852 41.2193 231.633 42.5666C231.414 43.9134 230.671 45.1108 229.915 46.2466ZM227.668 47.3697C228.56 46.4199 229.325 45.3507 229.937 44.2002C230.339 43.4432 230.681 42.62 230.665 41.7628C230.649 40.9056 230.197 40.0093 229.401 39.6915C228.363 39.2771 227.225 39.9396 226.358 40.6438C225.74 41.1456 225.143 41.6952 224.747 42.3846C224.497 42.8208 224.334 43.3008 224.173 43.7767C223.868 44.6776 223.559 45.6166 223.675 46.5603C223.791 47.5044 224.467 48.4521 225.413 48.5497C226.289 48.6402 227.066 48.0113 227.668 47.3697Z" fill="#FFB61D"/>
<path fill-rule="evenodd" clip-rule="evenodd" d="M47.6974 58.2463C48.8054 59.3684 49.7202 60.6812 50.3894 62.1093C51.0617 63.5446 50.3838 65.3892 49.0643 66.2672C47.7442 67.1452 45.9599 67.1336 44.5127 66.4868C43.066 65.8396 41.9285 64.6321 41.091 63.2863C40.4599 62.2715 39.9702 61.1347 39.9174 59.9409C39.865 58.7471 40.3048 57.4908 41.2491 56.7587C42.2046 56.0184 43.548 55.9127 44.7034 56.2676C45.8587 56.6229 46.8482 57.3861 47.6974 58.2463ZM43.3736 57.5635C42.4151 57.4649 41.5634 58.345 41.3986 59.2947C41.2344 60.2439 41.5964 61.2079 42.0648 62.0499C43.0807 63.8761 44.893 65.4985 46.9809 65.3978C48.0544 65.3454 49.2305 64.6021 49.2117 63.5283C49.2031 63.0636 48.9743 62.635 48.7449 62.2308C48.1373 61.1571 47.4803 60.094 46.6031 59.2256C45.726 58.3572 44.6017 57.6901 43.3736 57.5635Z" fill="#FFB61D"/>
<path fill-rule="evenodd" clip-rule="evenodd" d="M131.485 199.532C132.255 198.947 133.212 198.569 134.177 198.631C135.142 198.693 136.096 199.246 136.5 200.124C136.933 201.067 136.663 202.238 135.987 203.025C135.312 203.812 134.294 204.247 133.266 204.391C132.565 204.489 131.729 204.401 131.345 203.806C131.16 203.519 131.118 203.166 131.08 202.826C131.013 202.216 130.947 201.607 130.88 200.997C130.852 200.739 130.824 200.471 130.907 200.225C131.005 199.935 131.242 199.717 131.485 199.532ZM134.53 201.285C134.642 201.199 134.759 201.106 134.808 200.973C134.964 200.549 134.352 200.267 133.9 200.277C133.243 200.292 132.402 200.734 132.602 201.359C132.719 201.721 133.164 201.888 133.538 201.821C133.912 201.755 134.229 201.516 134.53 201.285Z" fill="#00160A"/>
<path fill-rule="evenodd" clip-rule="evenodd" d="M240.517 4.64194C246.514 10.8493 251.247 18.2722 254.346 26.3276C254.559 26.8808 254.765 27.4955 254.562 28.0522C252.999 32.3407 249.982 35.9154 247.024 39.3915L241.354 46.0554C239.549 48.176 237.744 50.2967 235.878 52.3639C226.381 62.8887 215.158 72.0922 202.16 77.755C201.67 77.9685 201.143 78.1815 200.615 78.0961C200.087 78.0107 199.592 77.4982 199.73 76.9811C201.337 70.9752 202.955 64.6957 201.665 58.6134C201.354 57.1461 201.007 55.299 202.22 54.4164C212.036 47.269 219.104 37.0528 225.877 26.9754C227.581 24.4414 229.279 21.9008 230.786 19.2453C233.463 14.5312 235.524 9.46839 236.901 4.22606C237.09 3.50664 237.998 3.18227 238.717 3.37089C239.437 3.55952 239.999 4.10709 240.517 4.64194ZM236.319 12.3506C235.71 12.0985 235.148 12.7802 234.837 13.3619C234.501 13.9918 234.165 14.6223 233.829 15.2537C227.615 26.9235 221.306 38.7728 211.837 47.9645C210.943 48.8329 209.942 49.8818 210.107 51.1178C210.636 55.0794 208.521 59.2627 205.017 61.1855C203.426 62.059 203.445 64.3118 203.678 66.1111C203.771 66.8315 204.043 67.7345 204.767 67.7955C206.891 67.9745 208.928 69.0198 210.313 70.6396C210.749 71.1506 211.577 70.8313 212.146 70.4734C226.471 61.4692 237.478 48.1694 248.225 35.1015C248.596 34.6505 248.99 34.0826 248.797 33.532C247.171 28.9003 247.431 23.6361 249.507 19.1874C248.282 16.7505 246.822 14.4321 245.155 12.2739C242.379 13.4783 239.115 13.5068 236.319 12.3506ZM202.341 75.3761C202.906 75.672 203.59 75.3908 204.156 75.0954C205.641 74.3201 207.072 73.44 208.435 72.4638C208.795 72.2061 208.902 71.6905 208.775 71.2665C208.648 70.8425 208.329 70.5003 207.976 70.2324C206.875 69.3965 205.335 69.1769 204.044 69.6711C203.805 69.7626 203.568 69.8816 203.404 70.0768C203.211 70.3061 203.141 70.6106 203.079 70.9035C202.766 72.3825 202.521 73.8752 202.341 75.3761ZM242.57 9.26655C241.597 7.36353 240.095 5.73404 238.279 4.60788C237.647 5.1646 237.523 6.01112 237.398 6.87442C237.312 7.46622 237.225 8.06616 236.972 8.58576C236.889 8.75456 236.789 8.91624 236.688 9.07791C236.496 9.38551 236.305 9.69159 236.243 10.0449C236.149 10.5834 236.605 11.2585 237.122 11.0806C237.542 10.9357 237.983 11.0287 238.427 11.1228C238.661 11.1721 238.897 11.2219 239.131 11.2372C240.495 11.3251 241.627 10.2564 242.57 9.26655ZM250.285 20.6715C249.242 22.7453 249.407 25.1949 249.596 27.5077L249.868 30.8256C249.898 31.1902 250.097 31.6828 250.449 31.5817C250.667 30.9705 251.083 30.4662 251.5 29.9608C251.865 29.519 252.23 29.0757 252.465 28.5591C253.262 26.8091 252.378 24.7927 251.507 23.0788L250.285 20.6715ZM203.608 57.4928C203.652 58.1421 204.326 58.6276 204.976 58.6093C205.627 58.591 206.212 58.1706 206.592 57.6428C206.972 57.1146 207.181 56.4862 207.384 55.8679L208.054 53.8276C208.241 53.2587 208.252 52.3888 207.657 52.3222C207.443 52.2978 207.237 52.4117 207.061 52.5368C206.394 53.0111 205.908 53.6919 205.436 54.36L204.147 56.1791C203.868 56.5736 203.576 57.0109 203.608 57.4928ZM49.9933 52.0466C45.4687 43.7634 42.5799 34.5905 41.542 25.2091C41.4779 24.6321 40.8418 24.2589 40.2616 24.2787C39.6819 24.2985 39.1551 24.6051 38.6619 24.9112C31.6572 29.2531 25.6951 35.2626 21.4094 42.3012C20.9757 43.0135 20.548 43.77 20.4931 44.6023C20.4392 45.4189 20.7514 46.2115 21.0728 46.964C25.8003 58.0384 33.6841 67.4315 41.6869 76.429C47.851 83.3593 54.4493 90.3745 63.0435 93.8628C64.4327 94.4266 66.4499 94.6559 67.0388 93.2776C67.2101 92.8764 67.201 92.4255 67.1923 91.9892L67.1918 91.9725C67.0972 87.3001 67.6281 82.615 68.7667 78.0824C69.0301 77.0335 69.1668 75.6191 68.1854 75.1646C64.4952 73.4547 61.9665 70.0071 59.6014 66.6983C56.2026 61.9441 52.7951 57.1756 49.9933 52.0466ZM57.9813 88.2554C57.4728 88.3906 56.9654 88.0703 56.5408 87.7592C48.719 82.0293 42.6571 74.2738 36.7016 66.6226L26.1914 53.1204C27.9655 51.9907 28.1908 49.5361 28.2294 47.4332C28.2793 44.7 28.3164 41.8863 27.3289 39.3371C27.1092 38.7707 27.395 38.1428 27.7011 37.6176C29.013 35.3664 30.833 33.4125 32.986 31.9442C33.1945 31.8018 33.4151 31.661 33.6653 31.6254C34.3243 31.5323 34.8303 32.1735 35.1827 32.7383C36.5739 34.9693 38.4864 37.4926 41.1098 37.309C42.1085 37.2389 42.6627 38.4154 42.9541 39.3732C46.5777 51.2845 53.3814 62.028 61.3603 71.5863C62.3972 72.8284 62.657 74.5051 62.9148 76.1661C63.2021 78.0188 63.4869 79.8522 64.842 81.0429C65.9994 82.0603 65.7848 83.8865 65.4726 85.395C65.4085 85.7036 65.3322 86.0341 65.0978 86.2446C64.9239 86.4012 64.6885 86.4663 64.4622 86.5268L57.9813 88.2554ZM39.4378 34.5498C38.0028 33.5472 36.7631 32.2665 35.8087 30.7992C35.6022 30.482 35.4018 30.1261 35.438 29.7493C35.4776 29.3395 35.7858 29.0116 36.0924 28.7371C36.8501 28.0593 37.7064 27.4919 38.6258 27.0582C38.9624 26.8991 39.3971 26.7705 39.6773 27.016C39.8416 27.1604 39.8939 27.3918 39.9367 27.6068L41.2623 34.2341C41.3406 34.6256 40.9293 34.9784 40.5301 34.9901C40.1304 35.0013 39.7653 34.7786 39.4378 34.5498ZM26.3226 47.3682C26.2941 48.6148 26.199 50.014 25.2644 50.8396C25.0691 50.8625 24.9394 50.648 24.8627 50.467C24.1894 48.8736 23.507 47.2415 23.4007 45.5155C23.2949 43.7889 23.8736 41.9194 25.2847 40.9188C25.4754 40.7831 25.7556 40.6712 25.9239 40.8339C25.9915 40.899 26.0205 40.9941 26.0454 41.0846C26.4288 42.4939 26.3988 43.978 26.3658 45.4377L26.3226 47.3682ZM64.3991 88.8325C64.6259 89.018 64.6498 89.3495 64.6559 89.6424L64.7236 92.8464C63.4086 92.1179 62.1495 91.2896 60.9591 90.3714C60.7339 90.1975 60.4857 89.9154 60.624 89.6663C60.6927 89.5427 60.8351 89.4832 60.9678 89.4344C61.818 89.1207 62.6977 88.8853 63.5911 88.7323C63.8678 88.685 64.182 88.655 64.3991 88.8325ZM64.4749 76.2114C64.4627 76.0665 64.4627 75.9089 64.5486 75.7919C64.7759 75.4833 65.2687 75.763 65.4767 76.0843C65.978 76.8586 66.0889 77.8729 65.7665 78.7372C65.0297 78.1058 64.5553 77.1779 64.4749 76.2114ZM260.287 51.8819C261.597 50.2321 263.986 49.9947 266.092 50.046C266.584 50.0582 267.091 50.0816 267.539 50.286C268.785 50.8539 269.05 52.4818 269.092 53.8505C269.13 55.0956 269.123 56.3575 268.82 57.5661C268.518 58.7746 267.891 59.9389 266.89 60.6807C266.44 61.0142 265.918 61.2572 265.365 61.3497C264.512 61.4926 263.639 61.2735 262.827 60.9715C261.746 60.5693 260.721 60.0167 259.79 59.3349C259.336 59.0019 258.866 58.5661 258.852 58.0028C258.818 56.7038 258.963 55.4007 259.283 54.1408C259.487 53.336 259.77 52.5322 260.287 51.8819ZM263.685 60.099C265.367 60.5815 267.156 59.2805 267.794 57.6505C268.431 56.021 268.196 54.1901 267.845 52.4757C267.711 51.8173 267.007 51.4498 266.359 51.2738C265.355 51.0013 264.287 50.9652 263.267 51.1691C262.76 51.2703 262.242 51.4442 261.887 51.8189C261.693 52.0232 261.559 52.2759 261.427 52.5245L260.442 54.3869C260.268 54.7148 260.094 55.0453 259.992 55.4012C259.687 56.4669 260.09 57.6505 260.834 58.4716C261.578 59.2932 262.619 59.7929 263.685 60.099ZM241.168 78.9299C242.711 79.4678 244.109 80.4145 245.181 81.6469C246.103 82.7065 246.806 84.0812 246.612 85.4718C246.541 85.9827 246.353 86.4693 246.138 86.9381C245.324 88.7125 243.925 90.4136 242.003 90.7573C240.994 90.9373 239.955 90.7212 238.985 90.3913C237.864 90.0099 236.794 89.4751 235.817 88.806C235.298 88.4511 234.783 88.0297 234.556 87.444C234.399 87.0403 234.394 86.5959 234.4 86.1627C234.414 85.092 234.486 84.0029 234.859 82.9993C235.332 81.7293 236.256 80.6809 237.236 79.7454C237.63 79.3692 238.049 78.9986 238.555 78.7967C239.383 78.4668 240.326 78.6361 241.168 78.9299ZM242.746 88.2635C243.861 87.1608 244.509 85.5618 244.333 84.0035C244.156 82.4452 243.101 80.9829 241.626 80.4511C241.013 80.23 240.333 80.1679 239.705 80.3418C239.366 80.4359 239.048 80.5955 238.751 80.7841C237.482 81.5915 236.59 82.9688 236.374 84.458C236.157 85.9472 236.619 87.5217 237.607 88.6571C238.239 89.3846 239.271 89.6963 240.227 89.5753C241.183 89.4548 242.061 88.9413 242.746 88.2635ZM101.947 69.7438C101.896 69.0091 100.913 68.8169 100.177 68.8383C96.3111 68.9522 92.4506 69.2414 88.6109 69.7061C87.9804 69.7824 87.929 70.7987 88.4355 71.1831C88.9414 71.567 89.6462 71.4958 90.2752 71.4058L101.947 69.7438ZM89.5893 74.7121C89.6228 74.3338 90.0983 74.197 90.4756 74.1543L113.245 71.5761C113.657 71.5294 114.096 71.4871 114.467 71.6727C114.837 71.8578 115.076 72.3652 114.834 72.7018C114.656 72.9494 114.314 72.9997 114.01 73.0292L90.7202 75.2891C90.2361 75.3359 89.5471 75.1966 89.5893 74.7121ZM140.636 78.5471C139.362 78.8267 138.054 78.3671 136.833 77.9105C132.882 76.4346 128.947 74.9175 125.028 73.3602C123.446 72.7313 121.71 73.6729 120.287 74.6073C116.169 77.3121 112.205 80.2498 108.419 83.402C107.446 84.2114 105.95 83.6435 104.969 82.8438C104.762 82.675 104.558 82.4945 104.353 82.3135C103.589 81.6383 102.815 80.955 101.827 80.8147C100.308 80.5991 98.9721 81.7501 97.8717 82.8188L90.7746 89.7105C89.8196 90.6373 88.8153 92.1214 89.6645 93.1454C90.2254 93.8211 91.2541 93.7865 92.1262 93.6858C96.6793 93.1581 101.21 92.4178 105.739 91.6781C113.224 90.4558 120.706 89.2341 128.277 88.9718C129.955 88.9138 131.634 88.9031 133.313 88.8924C134.364 88.8858 135.415 88.8792 136.466 88.8609C141.207 88.7786 145.943 88.4588 150.652 87.9046C150.88 87.8776 151.139 87.8309 151.257 87.6341C151.347 87.4856 151.324 87.2986 151.299 87.1272L149.305 73.5584C149.203 72.8685 149.026 72.0718 148.396 71.7739C147.759 71.4729 147.009 71.8608 146.486 72.3332C145.669 73.0714 145.039 74.0526 144.417 75.0202C143.398 76.6075 142.402 78.1587 140.636 78.5471ZM108.245 85.9716C112.505 82.4696 116.947 79.1887 121.546 76.1468C122.491 75.5225 123.638 74.8829 124.694 75.2927L135.848 79.6265C137.709 80.3494 139.745 81.0821 141.656 80.5025C143.878 79.8283 145.206 77.6182 146.325 75.5845C146.542 75.189 147.176 75.2342 147.489 75.5591C147.802 75.8845 147.881 76.3624 147.946 76.8093L148.762 82.468C148.888 83.3369 149.011 84.2383 148.759 85.0798C148.508 85.9207 147.771 86.6849 146.893 86.6681C132.536 86.391 118.151 87.5746 104.032 90.195C103.595 90.2759 103.158 90.3587 102.72 90.4411C99.3474 91.0781 95.9613 91.7172 92.534 91.7284C94.1887 89.3846 96.2862 87.3936 98.3691 85.4194C99.5122 84.3355 100.942 83.1666 102.477 83.521C103.307 83.7127 103.942 84.308 104.575 84.9008L104.576 84.9013C104.778 85.091 104.981 85.2806 105.189 85.4565C106.047 86.181 107.377 86.6849 108.245 85.9716ZM292.436 125.444C292.056 125.586 291.631 125.49 291.243 125.368C288.618 124.542 286.486 122.697 284.39 120.883C284.106 120.638 283.823 120.393 283.54 120.151C280.068 117.19 276.299 114.575 272.31 112.36C271.904 112.134 271.478 111.897 271.229 111.505C270.981 111.113 270.988 110.516 271.372 110.254C273.161 109.033 274.321 106.937 274.406 104.773C274.429 104.196 275.081 103.812 275.656 103.858C276.232 103.905 276.733 104.25 277.204 104.584L295.435 117.523C295.789 117.775 296.171 118.067 296.258 118.493C296.329 118.842 296.184 119.193 296.037 119.517C295.251 121.251 294.346 122.933 293.333 124.545C293.103 124.91 292.841 125.294 292.436 125.444ZM274.198 110.095C273.984 110.473 273.798 111.02 274.145 111.281L289.022 122.481C289.837 123.094 291.103 123.669 291.744 122.876C292.481 121.966 293.169 121.017 293.804 120.033C293.978 119.764 294.156 119.456 294.093 119.142C294.036 118.855 293.795 118.647 293.567 118.463C288.108 114.037 282.327 110.007 276.286 106.414L274.198 110.095ZM266.794 116.944C267.035 116.532 267.326 116.081 267.793 115.98C268.149 115.902 268.512 116.055 268.84 116.215C270.631 117.084 272.272 118.263 273.668 119.683C274.003 120.026 274.045 120.576 273.896 121.031C273.746 121.486 273.438 121.869 273.136 122.241C272.651 122.839 272.134 123.461 271.418 123.744C270.645 124.05 269.746 123.903 269.014 123.509C268.282 123.115 267.694 122.498 267.177 121.848C266.501 121 265.897 119.982 266.002 118.904C266.07 118.196 266.436 117.558 266.794 116.944ZM269.928 121.693C271.054 122.131 271.775 121.784 271.805 121.045C271.823 120.579 271.416 120.22 271.046 119.935L269.928 119.075C269.558 118.79 269.15 118.493 268.683 118.495C268.217 118.498 267.742 118.979 267.933 119.405C267.904 119.611 268.801 121.255 269.928 121.693ZM265.481 130.786C265.755 130.937 266.047 131.084 266.36 131.09C266.673 131.097 267.012 130.92 267.089 130.616C267.27 129.904 267.742 129.313 268.203 128.734C268.254 128.671 268.304 128.608 268.353 128.545C268.859 127.906 269.347 127.181 269.361 126.366C269.374 125.55 268.699 124.681 267.891 124.793C267.254 124.881 266.663 124.463 266.2 124.017C266.126 123.946 266.053 123.873 265.98 123.8C265.593 123.414 265.2 123.022 264.686 122.854C264.075 122.655 263.243 122.972 263.195 123.613C263.097 124.903 262.025 125.874 261.03 126.702C260.732 126.949 261.001 127.425 261.28 127.694C262.534 128.906 263.951 129.949 265.481 130.786ZM265.68 128.328L263.72 127.003C263.222 126.666 263.262 125.84 263.706 125.435C264.15 125.029 264.841 124.998 265.407 125.201C265.973 125.404 266.444 125.802 266.902 126.193C267.204 126.451 267.246 126.922 267.108 127.295C266.969 127.668 266.687 127.967 266.412 128.255C266.318 128.354 266.213 128.458 266.078 128.476C265.934 128.494 265.8 128.409 265.68 128.328ZM281.213 128.415L282.171 126.38C282.464 125.757 282.749 124.985 282.352 124.422C282.215 124.226 282.012 124.088 281.814 123.955L278.328 121.606C277.952 121.353 277.545 121.09 277.091 121.097C276.555 121.105 276.104 121.488 275.723 121.867C275.152 122.433 274.618 123.036 274.125 123.673C273.75 124.157 273.442 124.954 273.955 125.29L279.288 128.789C279.709 129.065 280.244 129.349 280.686 129.108C280.945 128.967 281.087 128.683 281.213 128.415ZM280.031 126.974C279.807 127.026 279.573 126.969 279.353 126.903C278.006 126.497 276.774 125.72 275.827 124.68C275.512 124.335 275.691 123.723 276.09 123.481C276.49 123.239 277.011 123.294 277.442 123.475C277.72 123.592 277.975 123.755 278.231 123.919C278.37 124.008 278.51 124.097 278.654 124.179C278.809 124.267 278.971 124.348 279.132 124.429C279.591 124.659 280.049 124.889 280.362 125.286C280.785 125.824 280.698 126.821 280.031 126.974ZM281.832 129.248C282.447 129.101 282.635 128.475 282.83 127.824C282.992 127.285 283.158 126.73 283.574 126.415C284.291 125.873 285.307 126.326 286.08 126.786L288.537 128.247C288.928 128.48 289.33 128.721 289.61 129.08C289.891 129.439 290.029 129.947 289.832 130.358C289.701 130.632 289.454 130.814 289.204 130.997C288.999 131.148 288.793 131.299 288.649 131.503C288.465 131.764 288.396 132.093 288.328 132.416C288.243 132.823 288.159 133.224 287.848 133.479C287.283 133.945 286.442 133.572 285.816 133.19L282.354 131.075C282.006 130.862 281.637 130.627 281.466 130.256C281.294 129.884 281.434 129.342 281.832 129.248ZM286.371 131.348C286.866 131.179 287.265 130.811 287.647 130.453C287.924 130.194 287.553 129.767 287.223 129.581L285.102 128.387C284.881 128.263 284.573 128.149 284.401 128.336C283.849 128.939 283.769 129.923 284.216 130.607C284.664 131.291 285.597 131.612 286.371 131.348ZM262.037 131.274C261.562 131.14 261.079 131.004 260.691 130.74C260.089 130.329 259.251 130.428 258.619 130.791C257.987 131.154 257.515 131.736 257.06 132.305C256.806 132.62 256.546 132.949 256.449 133.342C256.353 133.734 256.468 134.21 256.822 134.407L260.52 136.468C260.8 136.624 261.113 136.785 261.426 136.716C261.737 136.647 261.952 136.37 262.14 136.112L263.091 134.803C263.621 134.074 264.175 133.145 263.788 132.332C263.477 131.68 262.767 131.48 262.037 131.274ZM260.867 134.665C260.673 134.716 260.474 134.623 260.296 134.532L257.776 133.25C258.261 132.565 259.182 132.301 260.018 132.384C260.853 132.468 261.628 132.839 262.384 133.204L261.226 134.407C261.122 134.515 261.011 134.626 260.867 134.665ZM243.411 83.3995C243.801 83.9943 243.679 84.789 243.421 85.4514C243.079 86.3244 242.503 87.1333 241.689 87.598C240.874 88.0622 239.805 88.1303 239.011 87.6311C238.218 87.1318 237.819 86.0219 238.245 85.1866C238.343 84.9934 238.477 84.822 238.611 84.6507C238.74 84.487 238.868 84.3233 238.966 84.1397C239.029 84.0192 239.079 83.8911 239.129 83.7635C239.201 83.5789 239.272 83.3949 239.386 83.2342C239.789 82.6623 240.585 82.5499 241.285 82.5601C242.08 82.5712 242.976 82.7355 243.411 83.3995ZM241.639 83.7772C240.552 83.7635 239.533 84.6746 239.426 85.7555C239.382 86.1973 239.569 86.7464 240.009 86.8074C240.339 86.8527 240.628 86.5984 240.85 86.3498C241.318 85.8251 241.721 85.241 242.045 84.6161C242.153 84.4061 242.249 84.1372 242.106 83.9496C242.002 83.8123 241.811 83.7792 241.639 83.7772ZM267.623 55.4459C267.539 54.4515 266.874 53.4733 265.907 53.2236C264.679 52.9074 263.489 53.7717 262.514 54.5826C262.225 54.8226 261.924 55.0809 261.802 55.4353C261.595 56.0372 261.968 56.6712 262.335 57.1908C262.756 57.7862 263.205 58.3846 263.819 58.7781C264.432 59.1717 265.25 59.3247 265.894 58.9825C266.222 58.8081 266.478 58.5234 266.699 58.2255C267.295 57.4247 267.707 56.4404 267.623 55.4459ZM264.9 57.9962C264.484 58.0582 264.052 57.8904 263.745 57.6022C263.287 57.17 263.104 56.475 263.265 55.8654C263.434 55.2238 263.973 54.6935 264.617 54.5354C265.262 54.3767 265.985 54.5969 266.432 55.0875C266.415 55.2212 266.401 55.356 266.387 55.4907C266.34 55.9483 266.292 56.4063 266.134 56.8355C265.929 57.3917 265.486 57.9082 264.9 57.9962ZM231.846 213.148C234.11 205.139 238.384 197.871 242.615 190.703C243.33 189.492 244.217 188.158 245.605 187.928C246.152 187.837 246.441 187.242 246.627 186.72C248.922 180.285 249.143 173.129 247.25 166.564C246.71 164.69 247.375 162.704 248.033 160.868L253.128 146.656C252.598 145.739 251.596 145.337 250.581 144.929C249.732 144.587 248.874 144.243 248.275 143.59C246.583 141.747 247.859 138.816 249.184 136.694L272.41 99.5052C273.359 97.9866 275.44 97.5102 277.184 97.9149C278.929 98.3196 280.419 99.4173 281.853 100.489L298.792 113.139C301.822 115.402 305.168 118.293 304.993 122.07C304.897 124.161 303.7 126.019 302.543 127.763L289.119 147.989C287.383 150.604 287.172 153.784 286.961 156.978C286.865 158.423 286.769 159.87 286.532 161.27C285.374 168.098 280.826 173.754 276.468 179.172C276.294 179.388 276.121 179.604 275.948 179.82C271.437 185.436 266.925 191.707 266.671 198.905C266.369 207.484 262.293 215.864 255.729 221.397L261.441 207.543C262.799 204.248 264.057 200.149 261.784 197.404C260.755 196.162 259.201 195.505 257.708 194.893L248.838 191.253C248.226 191.003 247.595 190.748 246.934 190.743C244.873 190.731 243.647 192.966 242.812 194.849C239.921 201.365 236.229 207.526 231.846 213.148ZM261.015 194.332C262.536 194.895 264.677 195.237 265.398 193.784C268.886 186.753 272.471 179.587 278.024 174.04C281.224 170.842 283.186 166.576 284.296 162.19C285.406 157.804 285.72 153.263 286.03 148.749C284.682 149.24 284.565 151.058 284.571 152.492C284.584 155.653 284.031 158.815 282.947 161.784C282.72 162.405 282.415 163.077 281.808 163.339C281.201 163.601 280.306 163.075 280.51 162.445C282.077 157.616 282.661 152.469 282.216 147.412C282.078 145.843 281.786 144.166 280.671 143.055C280.792 145.531 280.913 148.018 280.662 150.484C280.227 154.751 278.697 158.82 277.18 162.832C276.984 163.353 276.746 163.921 276.245 164.165C275.745 164.41 274.968 164.022 275.099 163.481L277.371 154.093C278.62 148.932 279.848 143.379 277.914 138.433C276.94 138.368 276.711 139.76 276.798 140.732C277.394 147.388 275.553 153.995 273.731 160.425C273.518 161.176 272.766 162.114 272.18 161.598C271.928 161.376 271.916 160.992 271.937 160.656C272.052 158.765 272.57 156.934 273.088 155.106C273.249 154.538 273.409 153.971 273.558 153.402C274.927 148.158 275.277 142.65 274.58 137.275C273.381 138.813 272.872 140.763 272.391 142.653L269.541 153.873C268.252 158.945 266.605 164.521 262.137 167.245C261.781 167.462 261.368 167.664 260.962 167.568C260.458 167.448 260.173 166.927 259.963 166.454C257.11 160.031 256.754 152.538 258.984 145.874C259.119 145.47 258.708 145.047 258.283 145.014C257.857 144.98 257.459 145.211 257.11 145.457C253.452 148.039 252.05 152.715 250.886 157.038L249.339 162.786C249.113 163.626 248.886 164.473 248.839 165.342C248.767 166.661 249.112 167.952 249.454 169.237C249.534 169.534 249.613 169.832 249.687 170.129C251.176 176.101 250.503 182.588 247.822 188.128C247.426 188.945 248.47 189.688 249.321 190.003L261.015 194.332ZM266.795 139.469C266.185 139.049 265.531 138.569 265.343 137.853C265.054 136.754 266.1 135.651 267.226 135.503C268.352 135.356 269.454 135.899 270.388 136.546C271.703 137.458 273.367 136.068 274.351 134.806C273.023 134.012 271.756 132.779 271.704 131.233C271.652 129.686 273.532 128.213 274.784 129.123C275.27 129.477 275.857 129.693 276.438 129.906C277.308 130.227 278.164 130.541 278.641 131.303C279.184 132.17 278.991 133.343 278.439 134.203C277.886 135.064 277.035 135.681 276.204 136.278C277.397 136.397 278.557 136.822 279.544 137.502L280.619 134.369C280.703 134.126 280.793 133.871 280.985 133.7C281.353 133.37 281.927 133.472 282.399 133.621C283.637 134.014 284.851 134.627 285.668 135.637C286.486 136.647 286.826 138.114 286.255 139.28C285.684 140.447 284.073 141.069 282.98 140.366C282.754 140.22 282.526 140.024 282.299 139.83C281.69 139.308 281.081 138.786 280.494 139.204C282.288 140.601 283.52 142.7 283.866 144.947C289.515 136.344 295.102 127.702 300.629 119.021C301.156 118.192 301.582 116.886 300.723 116.41C297.052 114.374 293.809 111.647 290.572 108.927C286.487 105.494 282.414 102.071 277.512 100.061C277.201 99.9333 276.861 99.8103 276.536 99.8957C276.195 99.9857 275.956 100.282 275.741 100.562C266.613 112.474 258.421 125.103 251.265 138.293C250.267 140.134 251.603 142.327 252.881 143.985C253.52 144.814 254.753 145.689 255.449 144.909C256.327 143.925 257.766 143.363 259.009 143.802C260.252 144.241 261.026 145.857 260.35 146.989C259.861 147.808 260.818 148.718 261.654 149.176C263.326 150.092 265.04 150.928 266.79 151.682C267.033 151.787 267.316 151.89 267.553 151.771C267.778 151.658 267.87 151.39 267.94 151.148L269.879 144.479C270.198 143.382 270.411 141.959 269.47 141.311L266.795 139.469ZM301.471 120.775C301.213 120.687 300.978 120.944 300.827 121.171L286.313 142.893C285.923 143.478 285.523 144.085 285.409 144.779C285.295 145.472 285.55 146.278 286.181 146.587C287.226 147.099 288.32 146.024 288.99 145.074L302.476 125.964C303.477 124.545 302.629 122.605 301.773 121.095C301.698 120.965 301.612 120.824 301.471 120.775ZM260.607 149.782C260.352 149.596 259.969 149.707 259.756 149.94C259.542 150.172 259.454 150.491 259.373 150.797C259.175 151.549 258.976 152.308 258.947 153.086C258.917 153.863 259.059 154.636 259.199 155.401L260.589 162.955C260.647 163.271 260.715 163.608 260.94 163.838C261.165 164.069 261.602 164.119 261.784 163.854C263.841 160.845 265.927 157.778 267.003 154.297C267.137 153.864 267.176 153.256 266.752 153.096C264.567 152.274 262.494 151.156 260.607 149.782ZM276.657 131.145C275.961 130.481 275.04 130.057 274.083 129.96C273.21 129.871 272.707 131.096 273.105 131.877C273.503 132.659 274.383 133.046 275.197 133.372C275.772 133.603 276.469 133.82 276.97 133.456C277.69 132.933 277.301 131.758 276.657 131.145ZM270.927 139.898C271.212 139.696 271.248 139.283 271.169 138.943C270.869 137.665 269.467 137.011 268.208 136.637C267.721 136.492 267.116 136.391 266.772 136.766C266.486 137.079 266.547 137.597 266.794 137.941C267.041 138.286 267.428 138.499 267.801 138.699L269.746 139.747C270.115 139.946 270.585 140.141 270.927 139.898ZM281.991 135.289C281.58 135.841 281.622 136.642 281.965 137.238C282.309 137.834 282.904 138.248 283.531 138.53C283.746 138.627 283.983 138.712 284.214 138.665C284.413 138.626 284.583 138.491 284.705 138.329C285.154 137.729 284.936 136.825 284.421 136.28C283.906 135.735 283.174 135.462 282.469 135.207C282.348 135.162 282.206 135.12 282.095 135.186C282.085 135.192 282.075 135.199 282.066 135.207C282.038 135.23 282.014 135.26 281.991 135.289ZM86.9776 185.25C87.2466 183.26 87.6239 181.071 89.187 179.811C90.4339 178.807 92.145 178.647 93.7458 178.616C98.9894 178.515 104.25 179.367 109.195 181.116C110.759 181.67 112.396 182.399 113.251 183.82C114.177 185.359 113.951 187.3 113.695 189.078L109.724 216.661C112.462 208.673 114.428 200.42 115.585 192.056C116.125 188.154 116.313 183.675 113.589 180.829C109.337 176.386 109.453 170.057 109.571 163.622C109.673 158.068 109.776 152.435 107.074 147.866C106.192 146.376 108.158 144.837 109.793 144.265C116.998 141.742 124.679 140.585 132.308 140.872C133.707 151.919 134.085 163.095 133.437 174.211C133.292 176.704 136.828 177.348 139.311 177.073L225.432 167.524C225.863 167.477 226.329 167.413 226.634 167.105C226.991 166.746 227.009 166.182 227.004 165.676C226.8 145.501 226.219 125.33 225.262 105.177C225.224 104.39 225.124 103.487 224.473 103.044C223.985 102.712 223.342 102.756 222.755 102.813L161.284 108.771C165.323 89.7283 169.384 70.3285 167.542 50.9495C154.104 59.9073 136.765 59.8402 120.642 58.892C119.972 58.8524 119.3 58.8122 118.628 58.772C103.112 57.8447 86.9319 56.8782 72.9832 63.5888C80.2868 82.95 87.6742 104.084 81.6032 123.866C81.0658 125.616 80.4271 127.335 79.7879 129.054C78.8035 131.703 77.819 134.351 77.2103 137.107C76.207 141.651 76.3581 146.738 79.0475 150.536C82.9416 156.035 86.0369 162.288 86.7427 168.989C87.4124 175.348 85.9159 181.654 84.4209 187.954C82.8587 194.536 81.2982 201.11 82.213 207.728C82.368 208.848 82.6477 210.052 83.5244 210.766L86.9776 185.25ZM93.0705 105.341C94.6992 105.399 95.3465 107.443 95.555 109.059L97.2036 121.855C93.9843 120.187 89.455 123.019 89.5476 126.644C86.8347 121.409 86.4223 115.408 86.0145 109.469C85.9255 108.177 85.837 106.887 85.7252 105.609C84.5271 91.9445 80.4083 78.7271 76.3148 65.6347C75.7311 63.7678 78.2522 62.5572 80.1881 62.273C92.89 60.4112 105.745 60.6684 118.607 60.9257C124.437 61.0421 130.268 61.1586 136.087 61.0782C146.425 60.9349 157.364 59.9561 165.751 53.9095C167.636 66.4736 165.074 79.1496 162.544 91.6664C162.202 93.3594 161.861 95.0494 161.531 96.7364C158.762 110.891 156.877 125.979 162.175 139.394C162.398 139.96 161.637 140.386 161.042 140.51C156.684 141.419 152.18 141.615 147.76 141.087C145.864 140.861 143.988 140.503 142.112 140.146C140.699 139.876 139.286 139.607 137.864 139.394C127.159 137.788 115.985 139.455 106.215 144.116C105.823 144.302 105.357 144.215 104.947 144.073C102.968 143.388 101.557 141.56 100.853 139.589C100.148 137.617 100.048 135.489 99.9535 133.398L99.5595 124.626C99.5452 124.311 99.6281 123.883 99.9434 123.873C117.058 123.339 134.153 122.185 151.185 120.415C150.464 116.386 150.393 112.242 150.974 108.191C151.341 105.633 148.935 103.301 146.374 102.959C143.812 102.616 141.279 103.776 139.152 105.244C138.357 105.793 137.593 106.39 136.83 106.986C135.552 107.983 134.276 108.979 132.855 109.751C131.925 110.256 130.806 110.664 129.83 110.256C128.634 109.757 128.233 108.335 127.875 107.065C127.853 106.986 127.831 106.907 127.808 106.829C127.342 105.194 126.573 103.567 125.218 102.539C123.865 101.511 121.822 101.255 120.486 102.306C119.343 103.204 118.982 104.76 118.79 106.2C118.774 106.328 118.757 106.457 118.741 106.587C118.571 107.911 118.395 109.28 117.605 110.342C116.737 111.508 114.801 112.007 113.849 110.909C111.967 108.737 108.664 108.281 105.893 109.044C103.121 109.806 100.75 111.567 98.4504 113.291C97.0632 111.121 96.9488 108.198 98.1611 105.926L98.1814 105.888C98.4097 105.461 98.6716 104.971 98.4697 104.537C98.3452 104.268 98.0696 104.102 97.797 103.985C96.1662 103.286 94.0829 103.884 93.0705 105.341ZM142.075 142.022C142.987 142.204 144.108 142.61 144.164 143.539C144.702 152.388 151.736 160.34 160.384 162.299C169.032 164.258 178.617 160.297 183.659 153.004C188.702 145.712 189.096 135.58 184.962 127.737C180.527 119.327 169.751 114.86 160.665 117.667C160.243 115.808 160.291 113.845 160.802 112.009C160.897 111.668 161.02 111.311 161.296 111.089C161.565 110.871 161.928 110.822 162.271 110.78L187.866 107.698C190.116 107.427 192.372 107.156 194.638 107.137C204.383 107.057 214.122 106.085 223.691 104.239C225.179 124.202 225.878 144.224 225.788 164.243C225.784 165.193 225.495 166.455 224.546 166.482C208.438 166.951 192.457 169.07 176.47 171.189C165.729 172.613 154.985 174.037 144.198 174.962C141.794 175.168 139.373 175.349 136.97 175.12C136.535 175.079 136.044 174.99 135.807 174.622C135.665 174.4 135.649 174.123 135.637 173.859L134.201 141.84C134.182 141.426 134.207 140.927 134.565 140.72C134.803 140.582 135.1 140.631 135.369 140.685L142.075 142.022ZM98.0065 134.609C97.7517 136.272 97.4654 138.143 98.5552 139.402C102.62 144.095 106.842 149.109 107.922 155.223C108.427 158.077 108.21 161.016 107.994 163.942C107.722 167.628 107.452 171.295 108.626 174.753C108.657 174.843 108.688 174.933 108.72 175.024C108.936 175.64 109.155 176.268 109.086 176.912C109.005 177.65 108.365 178.393 107.633 178.267L99.1359 176.802C96.3218 176.316 93.3491 175.844 90.6764 176.848C90.1593 177.043 89.5649 176.702 89.2877 176.224C89.0106 175.747 88.9745 175.172 88.9506 174.62C88.9216 173.955 88.8997 173.284 88.8779 172.612C88.7406 168.383 88.6007 164.074 86.643 160.368L80.3961 148.545C79.4737 146.8 78.5299 144.976 78.4663 143.003C78.4241 141.686 78.7796 140.391 79.1325 139.121L82.2486 127.898C82.905 125.535 83.5991 123.096 85.1526 121.199C88.9272 127.602 89.2999 135.885 86.1152 142.601C85.8203 143.222 86.7203 143.862 87.362 143.614C88.0033 143.367 88.3292 142.664 88.5555 142.015C89.4611 139.414 89.779 136.672 90.0973 133.926C90.3546 131.705 90.6119 129.481 91.1819 127.327C91.5307 126.007 92.0347 124.66 93.0537 123.751C94.0727 122.843 95.735 122.532 96.8029 123.383C97.6205 124.034 97.886 125.145 98.0416 126.179C98.4519 128.904 98.4499 131.691 98.036 134.416C98.0263 134.48 98.0162 134.544 98.0065 134.609ZM112.668 112.451C113.92 113.41 115.147 114.348 116.65 114.174C118.56 113.954 119.75 111.987 120.305 110.146C120.426 109.744 120.534 109.331 120.642 108.918C121.029 107.443 121.418 105.957 122.43 104.847C122.724 104.524 123.148 104.224 123.566 104.351C123.904 104.453 124.101 104.796 124.258 105.113C124.481 105.562 124.692 106.018 124.903 106.474C125.498 107.762 126.092 109.05 126.955 110.168C128.125 111.684 129.944 112.876 131.847 112.667C133.549 112.481 134.878 111.276 136.174 110.102C136.44 109.861 136.704 109.621 136.97 109.393C140.091 106.701 144.156 105.127 148.276 105.013C147.72 106.402 148.091 107.917 148.454 109.403C148.542 109.761 148.629 110.117 148.703 110.469C149.284 113.249 148.99 116.206 147.873 118.817L120.356 120.935C113.932 121.43 107.492 121.925 101.053 121.698C100.646 121.684 100.229 121.664 99.8549 121.504C99.1481 121.202 98.7281 120.448 98.576 119.694C98.2353 118.005 99.0143 116.246 100.194 114.989C101.374 113.733 102.915 112.887 104.428 112.062C106.003 111.204 107.751 110.316 109.507 110.682C110.675 110.926 111.68 111.695 112.668 112.451ZM164.774 152.528C160.606 152.443 156.994 149.042 155.756 145.061C155.503 144.248 156.029 143.357 156.754 142.91C157.479 142.464 158.356 142.359 159.202 142.263L165.31 141.578C163.453 137.968 162.13 134.083 161.397 130.09C161.331 129.728 161.271 129.348 161.385 128.998C161.586 128.383 162.248 128.06 162.861 127.854C167.824 126.186 173.783 128.211 176.701 132.557C179.619 136.903 179.237 143.185 175.812 147.143C174.329 148.858 172.386 150.123 170.339 151.096C168.593 151.926 166.707 152.568 164.774 152.528ZM184.556 131.072C185.298 133.521 185.512 136.097 185.614 138.654C183.948 138.402 182.266 138.259 180.581 138.226C180.252 133.925 177.39 130.04 173.626 127.932C169.862 125.824 165.319 125.369 161.067 126.091C161.031 125.484 160.92 124.852 160.809 124.219C160.518 122.55 160.226 120.881 161.306 119.696C161.958 118.98 162.951 118.694 163.903 118.516C168.239 117.709 172.862 118.555 176.631 120.846C180.399 123.137 183.278 126.852 184.556 131.072ZM153.983 144.627C153.976 144.706 153.969 144.785 153.966 144.859C153.937 145.453 154.214 145.998 154.488 146.538C154.562 146.683 154.635 146.827 154.702 146.971C155.02 147.656 155.174 148.557 154.643 149.094C153.358 150.39 152.222 151.835 151.266 153.39C151.029 153.775 150.447 153.806 150.058 153.577C149.669 153.348 149.428 152.938 149.203 152.547C147.782 150.068 146.324 147.476 146.147 144.624C146.125 144.269 146.164 143.84 146.478 143.675C146.617 143.602 146.78 143.6 146.937 143.6L153.296 143.58C153.447 143.58 153.608 143.581 153.74 143.656C154.051 143.833 154.016 144.245 153.983 144.627Z" fill="#00160A"/>
</svg>
