<svg width="289" height="289" viewBox="0 0 289 289" fill="none" xmlns="http://www.w3.org/2000/svg">
<path fill-rule="evenodd" clip-rule="evenodd" d="M254.691 149.237C255.329 227.798 220.965 285.187 155.268 288.445C107.385 290.82 136.029 215.691 76.0164 165.809C37.6028 133.88 12.2487 50.92 106.924 29.4697C201.599 8.01974 254.054 70.6777 254.691 149.237Z" fill="#64FCD9"/>
<path d="M60.8222 263.312C54.8625 252.325 55.8358 239.03 57.0661 226.592C59.8966 197.98 64.2537 167.171 84.2946 146.555C89.5949 141.103 96.0647 136.48 103.49 134.838C109.243 133.567 114.786 131.347 119.828 128.296C121.043 121.18 114.347 115.577 109.669 110.078C104.43 103.92 101.162 96.1114 100.453 88.0585C100.034 83.2912 99.0333 76.7961 94.2523 76.5932C90.322 76.4258 87.3635 71.6837 88.9408 68.0804C90.5186 64.4771 96.0102 63.4347 98.7988 66.2092C94.8207 51.2967 103.224 34.0911 117.43 28.0598C115.114 24.7471 120.17 20.7769 124.184 21.2514C128.198 21.7259 132.084 24.1509 136.025 23.255C134.675 20.8762 136.839 17.7162 139.506 17.1069C142.172 16.4976 144.909 17.6554 147.301 18.9825C162.655 27.5007 172.802 44.6795 172.85 62.2384C173.247 59.0333 178.057 57.9358 180.409 60.1487C182.761 62.3611 182.649 66.3216 180.979 69.0858C179.309 71.8496 176.462 73.6644 173.644 75.2417C173.715 86.8857 169.287 98.5005 161.481 107.142C155.802 113.429 147.755 120.099 149.619 128.364C152.64 127.696 155.696 131.182 154.639 134.09C167.593 133.01 179.682 140.829 188.86 150.035C202.314 163.53 211.983 180.759 216.495 199.273C217.283 202.506 221.884 203.388 224.731 201.663C227.577 199.937 229.04 196.674 230.337 193.609L255.962 133.053C254.311 124.895 255.647 116.464 256.985 108.248L261.427 80.9839C261.831 78.5092 263.562 75.2436 265.847 76.2754C266.636 76.6316 267.077 77.4025 267.356 78.2517C267.485 78.6454 267.579 79.0557 267.658 79.4499C269.043 86.4409 269.486 93.6182 268.97 100.726L277.841 85.5522C279.276 83.097 282.251 80.3804 284.471 81.3966C285.305 81.5601 285.871 82.3928 285.991 83.242C286.307 84.3964 286.039 85.7848 285.678 86.9825C284.06 92.3461 281.422 97.4006 277.947 101.796C282.632 103.393 288.058 105.819 288.878 110.701C288.391 119.55 281.869 129.71 277.06 134.984C278.163 134.318 278.885 136.299 278.665 137.57C273.39 168.087 260.537 197.267 241.579 221.757C235.985 228.985 229.488 234.578 219.296 235.586C205.407 236.961 196.3 216.473 188.758 217.021C188.758 217.021 181.7 253.46 176.59 258.327C171.48 263.193 137.9 273.413 127.781 270.007C117.662 266.6 107.54 275.71 94.2523 274.797C80.4806 273.85 60.8222 263.312 60.8222 263.312Z" fill="white"/>
<path d="M271.862 141.58C271.742 141.419 271.66 141.229 271.625 141.032C271.492 140.285 272.161 139.504 272.919 139.519C273.678 139.534 274.314 140.342 274.152 141.083C273.989 141.824 273.073 142.291 272.378 141.988C272.175 141.899 271.995 141.757 271.862 141.58Z" fill="#00160A"/>
<path d="M148.084 63.659C147.569 63.5427 147.317 62.8964 147.46 62.3874C147.602 61.8788 148.021 61.4972 148.453 61.1931C151.395 59.1194 155.87 59.6562 158.238 62.3664C158.427 62.582 158.612 62.8356 158.602 63.1222C158.593 63.4089 158.28 63.6863 158.026 63.5539C156.692 62.8585 155.333 62.1543 153.854 61.8856C152.374 61.6175 150.729 61.8472 149.602 62.8434C149.153 63.241 148.669 63.7909 148.084 63.659Z" fill="#00160A"/>
<path d="M122.83 63.5588C122.669 64.0557 122.022 64.2372 121.518 64.097C121.015 63.9564 120.611 63.5933 120.184 63.2916C118.782 62.2993 117.004 61.9202 115.289 62.0316C113.575 62.1426 111.917 62.7168 110.381 63.4867C110.03 63.6634 109.611 63.2536 109.632 62.8609C109.654 62.4677 109.949 62.1484 110.248 61.8915C111.845 60.5161 114.016 59.8878 116.121 59.9964C118.226 60.1049 120.261 60.9133 121.995 62.1119C122.488 62.4526 123.015 62.9889 122.83 63.5588Z" fill="black"/>
<path d="M272.586 147.129C272.407 147.367 272.152 147.535 271.892 147.682C271.623 147.834 271.327 147.974 271.019 147.95C270.609 147.918 270.267 147.596 270.098 147.221C269.682 146.298 270.389 145.037 271.4 145.001C272.412 144.965 273.192 146.318 272.586 147.129Z" fill="#00160A"/>
<path d="M182.566 185.607C183.057 185.832 182.707 186.626 182.206 186.828C181.705 187.031 181.074 187.037 180.748 187.468C180.515 187.775 180.525 188.195 180.548 188.579C180.595 189.364 180.644 190.196 180.271 190.888C179.897 191.579 178.922 192.006 178.299 191.527C177.726 191.087 177.777 190.234 177.757 189.513C177.738 188.791 177.375 187.888 176.654 187.921C173.125 188.083 169.596 188.244 166.066 188.405C165.619 188.426 165.11 188.422 164.805 188.094C164.387 187.645 164.671 186.852 165.198 186.538C165.725 186.225 166.38 186.25 166.992 186.286C169.585 186.436 172.179 186.586 174.772 186.736C175.175 186.758 175.597 186.778 175.962 186.605C176.326 186.432 176.6 185.998 176.453 185.622C176.057 184.616 176.583 183.343 177.574 182.91C177.918 182.76 178.074 182.362 178.159 181.997C178.244 181.631 178.305 181.233 178.566 180.963C178.826 180.692 179.373 180.675 179.51 181.025C179.825 181.831 180.597 182.352 181.14 183.028C181.682 183.703 181.934 184.825 181.247 185.352C181.285 185.847 182.115 185.4 182.566 185.607Z" fill="#00160A"/>
<path d="M113.543 94.5122C113.05 94.482 112.846 93.6927 113.261 93.4274C113.785 93.3905 114.015 94.2859 113.538 94.5059L113.543 94.5122Z" fill="#FFB61D"/>
<path d="M152.91 82.1572C152.769 81.9022 152.917 81.5348 153.195 81.4486C153.473 81.3625 153.803 81.5825 153.831 81.8725C153.753 82.2502 153.203 82.4215 152.925 82.1543L152.91 82.1572Z" fill="#FFB61D"/>
<path d="M151.258 77.294C151.051 77.7057 150.298 77.5908 150.222 77.1358C150.375 76.9285 150.593 76.7708 150.838 76.6915C151.045 76.8438 151.204 77.0604 151.289 77.3032L151.258 77.294Z" fill="#FFB61D"/>
<path d="M141.185 95.6389C141.493 95.6184 141.805 95.8033 141.934 96.0842C141.83 96.4015 141.436 96.6214 141.141 96.4657C140.845 96.31 140.874 95.7644 141.202 95.7012L141.185 95.6389Z" fill="#FFB61D"/>
<path d="M150.428 96.0988C150.58 95.7192 151.287 95.8642 151.277 96.2725C151.064 96.4842 150.787 96.6307 150.493 96.6886C150.255 96.6073 150.197 96.2331 150.397 96.0827L150.428 96.0988Z" fill="#FFB61D"/>
<path d="M134.516 78.9715C134.205 78.973 133.976 79.3735 134.133 79.6426C134.289 79.9117 134.751 79.9098 134.906 79.6392C135.06 79.3686 134.828 78.97 134.516 78.9715Z" fill="#FFB61D"/>
<path d="M115.729 83.7194C115.478 83.5311 115.051 83.7141 115.014 84.0256C114.976 84.337 115.348 84.6154 115.636 84.4918C115.925 84.3686 115.98 83.9073 115.729 83.7194Z" fill="#FFB61D"/>
<path d="M157.716 84.4674C157.416 84.5657 157.075 84.2299 157.165 83.9272C157.255 83.6245 157.717 83.5262 157.926 83.7622C158.136 83.9988 157.989 84.4402 157.681 84.5093L157.716 84.4674Z" fill="#FFB61D"/>
<path d="M132.727 93.7336C132.61 93.4421 132.15 93.3749 131.956 93.6212C131.761 93.8674 131.933 94.2996 132.244 94.3448C132.554 94.3901 132.843 94.0256 132.727 93.7336Z" fill="#FFB61D"/>
<path d="M132.236 101.441C132.018 101.505 131.849 101.239 131.812 101.015C132.027 100.607 132.773 100.721 132.856 101.174C132.725 101.373 132.47 101.483 132.235 101.442L132.236 101.441Z" fill="#FFB61D"/>
<path d="M135.215 101.076C134.876 101.159 134.4 100.994 134.434 100.647C134.636 100.439 134.951 100.289 135.214 100.412C135.476 100.534 135.491 101.018 135.205 101.065L135.215 101.076Z" fill="#FFB61D"/>
<path d="M150.492 100.917C150.352 100.814 150.256 100.653 150.233 100.481C150.379 100.271 150.597 100.112 150.841 100.038C150.985 100.183 151.13 100.329 151.274 100.475C151.115 100.749 150.808 100.93 150.492 100.938L150.492 100.917Z" fill="#FFB61D"/>
<path d="M137.145 79.8461C136.898 80.1819 136.254 80.0183 136.197 79.6052C136.407 79.1584 137.244 79.3574 137.231 79.8514L137.145 79.8461Z" fill="#FFB61D"/>
<path d="M143.999 96.3465C143.72 96.6156 143.153 96.3343 143.199 95.9489C143.245 95.5634 143.861 95.4223 144.07 95.7498C143.916 95.8627 143.853 96.0851 143.925 96.2623L143.999 96.3465Z" fill="#FFB61D"/>
<path d="M126.94 79.0985C127.24 79.0002 127.581 79.336 127.491 79.6387C127.401 79.9414 126.939 80.0402 126.73 79.8037C126.52 79.5672 126.667 79.1258 126.975 79.0567L126.94 79.0985Z" fill="#FFB61D"/>
<path d="M134.265 88.9039C134.559 88.6581 135.095 88.8723 135.139 89.2528C134.937 89.4363 134.662 89.5872 134.401 89.5083C134.14 89.43 134.016 89.0163 134.254 88.8825L134.265 88.9039Z" fill="#FFB61D"/>
<path d="M140.947 91.364C141.149 90.9537 141.897 91.0618 141.975 91.5124C141.75 91.9226 141.002 91.8127 140.906 91.3552L140.947 91.364Z" fill="#FFB61D"/>
<path d="M141.36 93.719C141.567 93.4143 142.155 93.6119 142.136 93.9793C142.003 94.192 141.787 94.3516 141.544 94.4178C141.302 94.2879 141.204 93.9462 141.339 93.7078L141.36 93.719Z" fill="#FFB61D"/>
<path d="M151.106 79.4124C150.914 79.1613 150.449 79.2221 150.328 79.5146C150.207 79.8066 150.492 80.1789 150.805 80.1376C151.119 80.0962 151.299 79.6635 151.106 79.4124Z" fill="#FFB61D"/>
<path d="M146.111 102.686C146.17 102.413 146.652 102.545 146.682 102.824C146.712 103.102 146.487 103.335 146.279 103.524C146.122 103.424 145.956 103.311 145.889 103.137C145.823 102.963 145.922 102.717 146.109 102.713L146.111 102.686Z" fill="#FFB61D"/>
<path d="M122.896 77.057C122.78 76.7654 122.32 76.6983 122.125 76.9445C121.931 77.1908 122.103 77.623 122.413 77.6682C122.724 77.7135 123.012 77.3485 122.896 77.057Z" fill="#FFB61D"/>
<path d="M134.845 102.687C134.686 102.435 134.245 102.451 134.105 102.715C133.966 102.979 134.201 103.353 134.5 103.342C134.797 103.331 135.004 102.939 134.845 102.687Z" fill="#FFB61D"/>
<path d="M115.286 93.2883C115.453 93.099 115.797 93.3291 115.789 93.5827C115.781 93.8358 115.578 94.0333 115.388 94.2017C114.98 94.1365 114.911 93.4382 115.298 93.2946L115.286 93.2883Z" fill="#FFB61D"/>
<path d="M137.153 98.6392C136.98 98.7462 136.808 98.8528 136.635 98.9599C136.319 98.8441 136.282 98.3194 136.579 98.1603C136.875 98.0012 137.292 98.3209 137.214 98.6484L137.153 98.6392Z" fill="#FFB61D"/>
<path d="M157.281 93.5365C157.185 93.2377 157.768 93.1413 157.883 93.4333C157.998 93.7253 157.766 94.0411 157.507 94.2183C157.251 94.1049 157.085 93.8163 157.116 93.5384L157.281 93.5365Z" fill="#FFB61D"/>
<path d="M150.23 93.809C150.419 93.536 150.834 93.4518 151.115 93.6289C151.188 94.0382 150.67 94.4139 150.304 94.2173C150.268 94.083 150.232 93.9487 150.196 93.8144L150.23 93.809Z" fill="#FFB61D"/>
<path d="M122.376 91.036C122.676 90.9372 123.016 91.273 122.926 91.5757C122.836 91.8784 122.375 91.9772 122.166 91.7407C121.956 91.5046 122.102 91.0627 122.41 90.9936L122.376 91.036Z" fill="#FFB61D"/>
<path d="M154.953 75.0251C154.956 74.7618 155.231 74.537 155.489 74.5856C155.748 74.6343 155.922 74.9434 155.83 75.1896C155.558 75.396 155.121 75.3322 154.919 75.0568L154.953 75.0251Z" fill="#FFB61D"/>
<path d="M148.295 88.8912C148.548 88.6883 149 88.9185 148.984 89.2421C148.762 89.5881 148.169 89.5881 147.946 89.2426C148.063 89.1263 148.18 89.0095 148.297 88.8927L148.295 88.8912Z" fill="#FFB61D"/>
<path d="M119.585 95.8204C119.841 95.5503 120.348 95.5965 120.55 95.908C120.397 96.1202 120.195 96.3377 119.933 96.3499C119.671 96.3625 119.424 96.0224 119.605 95.833L119.585 95.8204Z" fill="#FFB61D"/>
<path d="M157.775 98.5462C157.671 98.6854 157.512 98.7813 157.34 98.8076C157.027 98.6294 157.028 98.0732 157.364 97.9442C157.7 97.8147 158.062 98.336 157.793 98.5744L157.775 98.5462Z" fill="#FFB61D"/>
<path d="M115.594 98.6883C115.839 98.5175 115.802 98.0766 115.532 97.9496C115.262 97.8225 114.898 98.0751 114.923 98.373C114.948 98.6703 115.349 98.8587 115.594 98.6883Z" fill="#FFB61D"/>
<path d="M157.638 89.6208C157.393 89.8709 156.979 89.3507 157.217 89.0927C157.454 88.8348 157.914 88.9667 158.125 89.246C157.98 89.3915 157.834 89.5371 157.688 89.6826L157.638 89.6208Z" fill="#FFB61D"/>
<path d="M112.867 77.6526C112.8 77.2273 113.489 76.9489 113.736 77.3022C113.531 77.5719 113.326 77.8415 113.12 78.1111C112.971 78.0069 112.867 77.8395 112.84 77.6595L112.867 77.6526Z" fill="#FFB61D"/>
<path d="M115.507 89.6208C115.262 89.8709 114.849 89.3507 115.086 89.0927C115.323 88.8348 115.783 88.9667 115.995 89.246C115.849 89.3915 115.703 89.5371 115.557 89.6826L115.507 89.6208Z" fill="#FFB61D"/>
<path d="M152.898 77.4536C152.689 77.2541 152.729 76.8574 152.975 76.7046C153.221 76.5513 153.595 76.69 153.681 76.9664C153.559 77.2453 153.249 77.4293 152.946 77.4035L152.898 77.4536Z" fill="#FFB61D"/>
<path d="M121.978 79.5998C122.171 79.2538 122.751 79.2338 122.968 79.5657C122.9 80.051 122.031 80.0772 121.933 79.5969L121.978 79.5998Z" fill="#FFB61D"/>
<path d="M139.656 81.6044C139.662 81.8521 139.576 82.1003 139.419 82.2915C139.147 82.4448 138.782 82.1017 138.876 81.8039C138.971 81.5056 139.392 81.399 139.652 81.5737L139.656 81.6044Z" fill="#FFB61D"/>
<path d="M132.497 98.3116C132.409 98.0304 131.984 97.9345 131.784 98.1515C131.584 98.3681 131.714 98.7852 132.002 98.8494C132.29 98.9141 132.585 98.5929 132.497 98.3116Z" fill="#FFB61D"/>
<path d="M141.675 100.632C141.802 100.964 141.55 101.383 141.197 101.428C140.963 101.329 140.854 101.012 140.977 100.79C141.1 100.569 141.428 100.494 141.635 100.64L141.675 100.632Z" fill="#FFB61D"/>
<path d="M126.685 103.111C126.685 102.791 126.874 102.479 127.157 102.33C127.362 102.535 127.509 102.851 127.384 103.112C127.258 103.373 126.774 103.381 126.732 103.095L126.685 103.111Z" fill="#FFB61D"/>
<path d="M152.998 100.453C153.244 100.202 153.657 100.723 153.42 100.981C153.182 101.239 152.723 101.107 152.511 100.828C152.657 100.682 152.803 100.537 152.948 100.391L152.998 100.453Z" fill="#FFB61D"/>
<path d="M132.108 79.3871C132.353 79.137 132.768 79.6572 132.53 79.9152C132.293 80.1731 131.833 80.0412 131.621 79.7623C131.767 79.6163 131.913 79.4708 132.059 79.3253L132.108 79.3871Z" fill="#FFB61D"/>
<path d="M117.67 94.0713C117.491 93.8771 117.735 93.5355 117.999 93.5443C118.263 93.5525 118.47 93.7706 118.617 93.99C118.408 94.2942 117.912 94.3405 117.651 94.0796L117.67 94.0713Z" fill="#FFB61D"/>
<path d="M122.749 85.9785C122.999 85.9586 123.099 86.3504 122.928 86.5333C122.756 86.7158 122.472 86.7246 122.223 86.6954C121.996 86.3864 122.391 85.8763 122.748 86.0189L122.749 85.9785Z" fill="#FFB61D"/>
<path d="M135.041 107.937C134.781 108.269 134.137 108.098 134.076 107.68C134.298 107.286 135.044 107.485 135.039 107.938L135.041 107.937Z" fill="#FFB61D"/>
<path d="M122.113 94.2047C121.974 93.9326 122.157 93.5443 122.46 93.499C122.762 93.4537 123.054 93.8002 122.941 94.0844C122.828 94.3682 122.351 94.4013 122.215 94.1278L122.113 94.2047Z" fill="#FFB61D"/>
<path d="M132.06 103.371C131.841 103.442 131.683 103.162 131.624 102.939C131.849 102.594 132.441 102.59 132.669 102.934C132.52 103.141 132.304 103.301 132.061 103.383L132.06 103.371Z" fill="#FFB61D"/>
<path d="M134.043 84.3263C134.127 83.8747 134.858 83.7457 135.092 84.1419C134.982 84.5643 134.32 84.6928 134.06 84.3414L134.043 84.3263Z" fill="#FFB61D"/>
<path d="M157.776 91.4652C157.688 91.1839 157.262 91.0881 157.062 91.3051C156.862 91.5217 156.993 91.9387 157.281 92.0035C157.568 92.0677 157.864 91.747 157.776 91.4652Z" fill="#FFB61D"/>
<path d="M137.414 94.1604C137.161 94.3633 136.709 94.1331 136.725 93.8095C136.947 93.4635 137.54 93.4635 137.763 93.809C137.646 93.9253 137.529 94.0421 137.413 94.1589L137.414 94.1604Z" fill="#FFB61D"/>
<path d="M132.408 107.241C132.627 107.17 132.785 107.45 132.843 107.673C132.619 108.018 132.028 108.022 131.799 107.679C131.949 107.471 132.164 107.311 132.407 107.229L132.408 107.241Z" fill="#FFB61D"/>
<path d="M160.409 74.6733C160.524 74.7886 160.639 74.9035 160.754 75.0183C160.55 75.3303 160.023 75.4388 159.818 75.1283C159.612 74.8173 160.19 74.3764 160.359 74.7083L160.409 74.6733Z" fill="#FFB61D"/>
<path d="M150.504 82.2944C150.73 82.493 151.152 82.3499 151.211 82.055C151.27 81.7596 150.935 81.4657 150.65 81.562C150.365 81.6589 150.278 82.0959 150.504 82.2944Z" fill="#FFB61D"/>
<path d="M136.459 100.927C136.55 100.717 136.881 100.669 137.028 100.845C137.193 101.11 137.043 101.539 136.732 101.574C136.422 101.61 136.209 101.107 136.482 100.953L136.459 100.927Z" fill="#FFB61D"/>
<path d="M122.402 95.8301C122.622 95.7601 122.779 96.0399 122.838 96.2628C122.691 96.472 122.474 96.6307 122.23 96.7081C122.091 96.6 121.995 96.4389 121.966 96.2657C122.112 96.1192 122.258 95.9727 122.404 95.8267L122.402 95.8301Z" fill="#FFB61D"/>
<path d="M153.714 89.3195C153.775 89.7288 153.176 90.0432 152.874 89.7604C152.745 89.3506 153.422 88.9711 153.65 89.3346L153.714 89.3195Z" fill="#FFB61D"/>
<path d="M129.947 88.9876C130.148 89.1102 130.259 89.3638 130.214 89.5945C129.964 89.6913 129.689 89.7225 129.424 89.6831C129.342 89.5546 129.311 89.3945 129.339 89.2441C129.543 89.156 129.747 89.0684 129.952 88.9803L129.947 88.9876Z" fill="#FFB61D"/>
<path d="M141.55 98.2776C141.641 98.4649 141.662 98.6854 141.61 98.8869C141.371 99.0942 140.924 98.902 140.91 98.5861C140.896 98.2707 141.325 98.0401 141.581 98.2255L141.55 98.2776Z" fill="#FFB61D"/>
<path d="M156.007 94.1414C155.73 94.3945 155.195 94.193 155.152 93.8197C155.245 93.6041 155.521 93.4883 155.74 93.5735C155.958 93.6586 156.083 93.9312 156.005 94.1526L156.007 94.1414Z" fill="#FFB61D"/>
<path d="M132.495 77.3037C132.655 77.4113 132.727 77.6346 132.659 77.8157C132.417 78.0444 131.932 77.9675 131.849 77.6453C131.766 77.3236 132.301 77.0501 132.463 77.3407L132.495 77.3037Z" fill="#FFB61D"/>
<path d="M115.667 91.6102C115.682 91.3148 115.315 91.0769 115.051 91.2112C114.788 91.3455 114.766 91.783 115.014 91.9436C115.262 92.1047 115.652 91.9051 115.667 91.6102Z" fill="#FFB61D"/>
<path d="M139.072 89.9176C138.782 89.8251 138.76 89.3438 139.029 89.1993C139.298 89.0552 139.67 89.2884 139.691 89.5925C139.566 89.7916 139.312 89.9001 139.081 89.8548L139.072 89.9176Z" fill="#FFB61D"/>
<path d="M115.193 79.3808C114.998 79.119 115.604 78.8951 115.742 79.1905C115.879 79.4864 115.635 79.8203 115.37 80.0096C115.177 79.8859 115.074 79.6363 115.124 79.4129L115.193 79.3808Z" fill="#FFB61D"/>
<path d="M134.779 98.5467C134.674 98.6864 134.513 98.7823 134.341 98.8085C134.202 98.7068 134.106 98.5467 134.084 98.3754C134.223 98.1656 134.44 98.0089 134.684 97.9427C134.923 98.0245 134.987 98.3983 134.788 98.555L134.779 98.5467Z" fill="#FFB61D"/>
<path d="M155.494 98.7234C155.289 98.811 155.084 98.8985 154.879 98.9866C154.74 98.8757 154.642 98.7131 154.609 98.5384C154.791 98.389 155 98.2367 155.234 98.2552C155.468 98.2742 155.67 98.573 155.515 98.7496L155.494 98.7234Z" fill="#FFB61D"/>
<path d="M139.12 100.316C139.32 100.419 139.52 100.523 139.72 100.627C139.502 100.857 139.213 101.019 138.904 101.087C138.764 100.985 138.668 100.825 138.644 100.654C138.748 100.514 138.909 100.418 139.081 100.395L139.12 100.316Z" fill="#FFB61D"/>
<path d="M115.642 100.475C115.803 100.583 115.874 100.806 115.807 100.988C115.565 101.216 115.08 101.139 114.997 100.817C114.914 100.495 115.449 100.222 115.611 100.512L115.642 100.475Z" fill="#FFB61D"/>
<path d="M131.998 91.8726C132.069 92.2916 132.869 92.1572 132.799 91.7382C132.728 91.3192 131.928 91.4535 131.998 91.8726Z" fill="#FFB61D"/>
<path d="M141.092 81.2759C141.47 81.2355 141.787 81.7168 141.602 82.0477C141.418 82.1889 141.119 82.1431 140.986 81.9533C140.854 81.7635 140.913 81.4676 141.108 81.3435L141.092 81.2759Z" fill="#FFB61D"/>
<path d="M113.152 91.4973C113.357 91.292 113.751 91.6029 113.659 91.8794C113.567 92.1553 113.186 92.2434 112.926 92.1125C112.751 91.9125 112.857 91.5445 113.111 91.4672L113.152 91.4973Z" fill="#FFB61D"/>
<path d="M132.056 86.5192C132.268 86.2165 132.856 86.4195 132.837 86.7888C132.666 87.0229 132.337 87.1271 132.063 87.0346C131.934 86.8945 131.93 86.6579 132.052 86.5124L132.056 86.5192Z" fill="#FFB61D"/>
<path d="M153.121 79.1521C153.264 79.246 153.358 79.4105 153.367 79.5813C153.217 79.958 152.517 79.8217 152.519 79.4163C152.639 79.2148 152.895 79.1044 153.123 79.1555L153.121 79.1521Z" fill="#FFB61D"/>
<path d="M120.412 103.066C120.551 103.338 120.368 103.726 120.066 103.772C119.763 103.817 119.471 103.47 119.584 103.187C119.697 102.902 120.174 102.869 120.31 103.143L120.412 103.066Z" fill="#FFB61D"/>
<path d="M126.792 98.2932C127.084 98.2615 127.458 98.2752 127.569 98.5467C127.437 98.756 127.222 98.9112 126.981 98.9691C126.843 98.8932 126.695 98.8076 126.631 98.663C126.567 98.5185 126.646 98.3058 126.804 98.3009L126.792 98.2932Z" fill="#FFB61D"/>
<path d="M157.688 79.8524C157.968 79.755 158.051 79.3234 157.827 79.1292C157.602 78.935 157.187 79.0795 157.131 79.3706C157.076 79.6621 157.408 79.9497 157.688 79.8524Z" fill="#FFB61D"/>
<path d="M146.361 81.6968C146.673 81.8871 146.476 82.4862 146.111 82.4531C145.904 82.3826 145.778 82.13 145.848 81.9217C145.917 81.7134 146.169 81.5869 146.378 81.6555L146.361 81.6968Z" fill="#FFB61D"/>
<path d="M137.186 102.771C137.105 102.365 136.329 102.519 136.41 102.925C136.491 103.331 137.267 103.177 137.186 102.771Z" fill="#FFB61D"/>
<path d="M117.276 79.7541C117.357 80.1604 118.133 80.0062 118.052 79.5998C117.971 79.1934 117.195 79.3477 117.276 79.7541Z" fill="#FFB61D"/>
<path d="M155.756 101.088C155.565 101.401 154.966 101.203 154.999 100.839C155.07 100.631 155.323 100.506 155.531 100.575C155.739 100.645 155.865 100.897 155.797 101.106L155.756 101.088Z" fill="#FFB61D"/>
<path d="M115.457 76.7484C115.761 76.6336 116.114 77.0054 115.983 77.3018C115.716 77.4453 115.377 77.4458 115.109 77.3037C115.144 77.0891 115.285 76.8944 115.477 76.7937L115.457 76.7484Z" fill="#FFB61D"/>
<path d="M132.237 82.3071C132.094 82.2132 132 82.0492 131.991 81.8784C132.141 81.5017 132.841 81.6379 132.839 82.0433C132.719 82.2448 132.463 82.3548 132.235 82.3042L132.237 82.3071Z" fill="#FFB61D"/>
<path d="M145.847 96.6156C145.712 96.3708 145.942 96.018 146.221 96.0389C146.5 96.0603 146.676 96.4375 146.515 96.6667C146.354 96.8959 145.944 96.8633 145.819 96.6132L145.847 96.6156Z" fill="#FFB61D"/>
<path d="M138.644 84.3317C138.738 84.1886 138.902 84.0942 139.073 84.0854C139.45 84.2348 139.313 84.9356 138.908 84.9327C138.706 84.813 138.596 84.558 138.647 84.3292L138.644 84.3317Z" fill="#FFB61D"/>
<path d="M158.075 76.8623C158.096 77.0098 158.116 77.1572 158.136 77.3047C157.865 77.4429 157.527 77.4439 157.255 77.3076C157.245 76.9207 157.734 76.6224 158.073 76.8073L158.075 76.8623Z" fill="#FFB61D"/>
<path d="M130.213 105.22C130.028 104.85 129.322 105.202 129.507 105.572C129.691 105.941 130.397 105.589 130.213 105.22Z" fill="#FFB61D"/>
<path d="M146.551 86.4248C146.259 86.1343 145.705 86.6925 145.997 86.9825C146.289 87.2731 146.843 86.7149 146.551 86.4248Z" fill="#FFB61D"/>
<path d="M139.341 76.9567C139.157 76.5873 138.451 76.9392 138.635 77.3086C138.819 77.6779 139.525 77.3266 139.341 76.9567Z" fill="#FFB61D"/>
<path d="M155.514 96.4312C155.336 96.0472 154.602 96.3879 154.78 96.7723C154.959 97.1568 155.693 96.8156 155.514 96.4312Z" fill="#FFB61D"/>
<path d="M114.865 96.3484C115.045 96.7154 115.746 96.3698 115.564 96.0034C115.384 95.6369 114.684 95.982 114.865 96.3484Z" fill="#FFB61D"/>
<path d="M143.905 103.284C143.812 103.428 143.648 103.521 143.477 103.531C143.1 103.381 143.236 102.68 143.642 102.683C143.843 102.803 143.953 103.058 143.903 103.287L143.905 103.284Z" fill="#FFB61D"/>
<path d="M130.294 91.4428C130.113 91.0759 129.413 91.4214 129.594 91.7879C129.774 92.1543 130.474 91.8093 130.294 91.4428Z" fill="#FFB61D"/>
<path d="M153.115 84.0679C153.338 84.2995 153.102 84.7672 152.783 84.7263C152.552 84.6597 152.425 84.3579 152.537 84.1453C152.65 83.9326 152.972 83.8698 153.156 84.0236L153.115 84.0679Z" fill="#FFB61D"/>
<path d="M136.535 108.027C136.419 107.911 136.302 107.794 136.186 107.678C136.403 107.331 136.993 107.324 137.218 107.665C137.106 107.928 136.814 108.101 136.531 108.074L136.535 108.027Z" fill="#FFB61D"/>
<path d="M158.215 82.1344C158.098 82.2507 157.982 82.367 157.865 82.4833C157.518 82.2667 157.511 81.6759 157.853 81.4511C158.115 81.563 158.289 81.8545 158.262 82.1382L158.215 82.1344Z" fill="#FFB61D"/>
<path d="M124.6 81.6983C124.694 81.5552 124.858 81.4613 125.029 81.452C125.406 81.6019 125.27 82.3023 124.864 82.2998C124.663 82.1801 124.553 81.9246 124.603 81.6959L124.6 81.6983Z" fill="#FFB61D"/>
<path d="M116.058 82.3134C115.84 82.4307 115.532 82.3183 115.441 82.0886C115.35 81.8584 115.499 81.5654 115.738 81.5027C116.057 81.5552 116.233 81.9976 116.035 82.2546L116.058 82.3134Z" fill="#FFB61D"/>
<path d="M143.932 84.5039C143.93 84.0951 143.15 84.0985 143.152 84.5073C143.153 84.9161 143.934 84.9127 143.932 84.5039Z" fill="#FFB61D"/>
<path d="M139.516 98.5491C139.332 98.1797 138.627 98.5316 138.811 98.901C138.995 99.2704 139.701 98.9185 139.516 98.5491Z" fill="#FFB61D"/>
<path d="M159.407 79.7541C159.488 80.1604 160.263 80.0062 160.183 79.5998C160.102 79.1934 159.326 79.3477 159.407 79.7541Z" fill="#FFB61D"/>
<path d="M136.262 91.4306C136.52 91.1606 137.029 91.2097 137.231 91.5236C137.087 91.7324 136.87 91.8901 136.627 91.964C136.444 91.8438 136.305 91.657 136.243 91.4467L136.262 91.4306Z" fill="#FFB61D"/>
<path d="M152.562 91.3835C152.848 91.2126 153.278 91.3937 153.355 91.7178C153.189 91.9451 152.866 92.0434 152.602 91.9485C152.473 91.8093 152.468 91.5737 152.59 91.4292L152.562 91.3835Z" fill="#FFB61D"/>
<path d="M136.569 89.0572C136.466 88.8689 136.699 88.6362 136.912 88.6654C137.125 88.6951 137.279 88.882 137.383 89.0698C137.223 89.4008 136.664 89.4125 136.49 89.0893L136.569 89.0572Z" fill="#FFB61D"/>
<path d="M159.796 93.7248C159.986 93.4124 160.585 93.61 160.552 93.974C160.482 94.1818 160.229 94.3073 160.021 94.2378C159.813 94.1682 159.686 93.9161 159.755 93.7078L159.796 93.7248Z" fill="#FFB61D"/>
<path d="M134.341 91.271C134.587 91.1357 134.939 91.3654 134.918 91.6448C134.897 91.9241 134.52 92.0993 134.29 91.9387C134.061 91.7776 134.094 91.3679 134.344 91.2418L134.341 91.271Z" fill="#FFB61D"/>
<path d="M136.364 96.0924C136.512 95.9664 136.75 95.963 136.9 96.0852C136.914 96.4 136.727 96.7149 136.444 96.8541C136.162 96.7227 136.111 96.272 136.355 96.0803L136.364 96.0924Z" fill="#FFB61D"/>
<path d="M157.063 96.4511C157.355 96.7417 157.91 96.1835 157.618 95.8934C157.326 95.6034 156.771 96.1611 157.063 96.4511Z" fill="#FFB61D"/>
<path d="M130.027 82.4088C129.693 82.1309 130.084 81.4657 130.489 81.6214C130.672 81.9339 130.4 82.3996 130.038 82.3942L130.027 82.4088Z" fill="#FFB61D"/>
<path d="M130.118 79.5054C129.937 79.1389 129.237 79.4844 129.418 79.8509C129.599 80.2174 130.299 79.8723 130.118 79.5054Z" fill="#FFB61D"/>
<path d="M112.75 80.0266C112.61 79.9239 112.514 79.7633 112.491 79.592C112.634 79.3842 112.848 79.227 113.089 79.1521C113.333 79.446 113.13 79.9779 112.751 80.0339L112.75 80.0266Z" fill="#FFB61D"/>
<path d="M152.783 99.0334C152.507 99.0329 152.297 98.6864 152.427 98.443C152.558 98.1997 152.969 98.188 153.11 98.425C153.251 98.6625 153.039 99.0202 152.763 99.0056L152.783 99.0334Z" fill="#FFB61D"/>
<path d="M157.521 74.7341C157.768 74.8149 157.985 74.9838 158.124 75.2028C157.927 75.4899 157.482 75.5658 157.201 75.36C157.281 75.1517 157.362 74.9429 157.442 74.7346L157.521 74.7341Z" fill="#FFB61D"/>
<path d="M134.341 96.091C134.345 95.8486 134.604 95.6452 134.841 95.6987C135.077 95.7523 135.224 96.0472 135.123 96.2681C134.85 96.454 134.428 96.3645 134.255 96.0827L134.341 96.091Z" fill="#FFB61D"/>
<path d="M138.597 86.8088C138.469 86.5635 138.672 86.216 138.949 86.2078C139.226 86.1995 139.449 86.5343 139.335 86.7869C139.13 86.9236 138.843 86.9246 138.638 86.7888L138.597 86.8088Z" fill="#FFB61D"/>
<path d="M120.342 77.2278C120.257 77.5573 119.78 77.7023 119.526 77.476C119.43 77.273 119.534 76.9951 119.745 76.9183C119.956 76.8414 120.222 77.0029 120.238 77.2268L120.342 77.2278Z" fill="#FFB61D"/>
<path d="M117.105 91.8059C117.026 91.6029 117.141 91.346 117.346 91.2701C117.55 91.1941 117.805 91.3134 117.878 91.5187C117.811 91.8404 117.379 92.019 117.105 91.838V91.8059Z" fill="#FFB61D"/>
<path d="M124.686 96.528C124.547 96.4224 124.451 96.2623 124.423 96.09C124.568 95.9469 124.712 95.8038 124.857 95.6613C125.232 95.8214 125.094 96.5168 124.687 96.5227L124.686 96.528Z" fill="#FFB61D"/>
<path d="M117.66 98.9609C117.382 99.0626 117.146 98.61 117.351 98.3968C117.556 98.1832 117.955 98.2912 118.098 98.5506C117.953 98.6956 117.808 98.8411 117.664 98.9866L117.66 98.9609Z" fill="#FFB61D"/>
<path d="M117.312 77.7461C117.108 77.495 117.338 77.0419 117.662 77.0594C117.864 77.1796 117.975 77.4346 117.927 77.6638C117.738 77.7558 117.519 77.7826 117.314 77.7388L117.312 77.7461Z" fill="#FFB61D"/>
<path d="M151.01 89.157C151.258 89.2241 151.155 89.6534 150.904 89.7088C150.653 89.7643 150.413 89.5935 150.217 89.4285C150.392 89.1891 150.728 89.0815 151.01 89.1745V89.157Z" fill="#FFB61D"/>
<path d="M155.194 89.3852C155.057 89.2849 154.921 89.1847 154.784 89.0849C154.999 88.7243 155.609 88.7131 155.838 89.0655C155.715 89.266 155.46 89.3754 155.231 89.3268L155.194 89.3852Z" fill="#FFB61D"/>
<path d="M159.4 77.6317C159.246 77.4166 159.449 77.0652 159.714 77.0745C159.978 77.0842 160.161 77.4215 160.039 77.657C159.84 77.7957 159.554 77.7972 159.354 77.6599L159.4 77.6317Z" fill="#FFB61D"/>
<path d="M143.909 91.8779C143.657 92.0813 143.205 91.8516 143.221 91.5275C143.305 91.382 143.469 91.2861 143.637 91.2851C143.873 91.3693 144.021 91.6472 143.959 91.8901L143.909 91.8779Z" fill="#FFB61D"/>
<path d="M122.621 100.161C122.758 100.266 122.896 100.37 123.033 100.475C122.809 100.689 122.528 100.841 122.227 100.912C122.021 100.664 122.258 100.211 122.579 100.238L122.621 100.161Z" fill="#FFB61D"/>
<path d="M120.382 81.6968C120.198 81.3275 119.492 81.6793 119.676 82.0487C119.861 82.4181 120.566 82.0662 120.382 81.6968Z" fill="#FFB61D"/>
<path d="M117.226 100.655C117.331 100.516 117.491 100.419 117.664 100.393C117.803 100.498 117.899 100.658 117.927 100.83C117.781 100.975 117.635 101.121 117.49 101.267C117.292 101.139 117.184 100.886 117.228 100.655H117.226Z" fill="#FFB61D"/>
<path d="M134.091 77.4711C134.336 77.7714 134.909 77.3037 134.665 77.0034C134.42 76.7027 133.846 77.1708 134.091 77.4711Z" fill="#FFB61D"/>
<path d="M154.963 86.7913C154.942 86.3883 155.637 86.2272 155.795 86.5986C155.744 86.9689 155.161 87.1086 154.947 86.802L154.963 86.7913Z" fill="#FFB61D"/>
<path d="M159.797 91.7903C159.654 92.0628 159.131 91.8195 159.248 91.5343C159.277 91.3134 159.555 91.1669 159.754 91.2676C159.953 91.3688 159.999 91.6798 159.837 91.8336L159.797 91.7903Z" fill="#FFB61D"/>
<path d="M136.969 84.3905C136.692 84.4923 136.456 84.0397 136.661 83.8265C136.866 83.6133 137.265 83.7214 137.408 83.9803C137.263 84.1258 137.118 84.2708 136.974 84.4163L136.969 84.3905Z" fill="#FFB61D"/>
<path d="M120.128 100.426C120.316 100.318 120.554 100.554 120.524 100.768C120.494 100.983 120.305 101.138 120.116 101.244C119.799 101.09 119.812 100.541 120.136 100.402L120.128 100.426Z" fill="#FFB61D"/>
<path d="M126.888 77.8371C126.799 77.4667 127.276 77.0395 127.552 77.3022C127.535 77.511 127.51 77.7383 127.363 77.8877C127.216 78.0376 126.905 78.0269 126.846 77.8259L126.888 77.8371Z" fill="#FFB61D"/>
<path d="M144.263 105.038C144.285 105.441 143.589 105.602 143.431 105.23C143.482 104.86 144.065 104.721 144.278 105.027L144.263 105.038Z" fill="#FFB61D"/>
<path d="M124.948 100.472C124.547 100.526 124.652 101.292 125.052 101.237C125.453 101.183 125.349 100.417 124.948 100.472Z" fill="#FFB61D"/>
<path d="M143.464 100.397C143.811 100.618 143.815 101.212 143.472 101.439C143.126 101.213 143.124 100.619 143.469 100.392L143.464 100.397Z" fill="#FFB61D"/>
<path d="M127.403 84.3263C127.125 84.5141 126.7 84.4256 126.521 84.1423C126.704 83.9949 126.913 83.8421 127.148 83.8606C127.382 83.8796 127.584 84.1798 127.427 84.3555L127.403 84.3263Z" fill="#FFB61D"/>
<path d="M134.694 105.658C134.551 105.931 134.028 105.688 134.145 105.402C134.174 105.181 134.452 105.035 134.651 105.136C134.85 105.237 134.895 105.548 134.734 105.702L134.694 105.658Z" fill="#FFB61D"/>
<path d="M113.271 87.0239C112.993 87.1256 112.757 86.673 112.962 86.4594C113.167 86.2462 113.567 86.3543 113.71 86.6132C113.565 86.7587 113.42 86.9042 113.275 87.0492L113.271 87.0239Z" fill="#FFB61D"/>
<path d="M151.195 75.2894C151.052 75.5619 150.529 75.3181 150.646 75.0329C150.675 74.812 150.953 74.6655 151.152 74.7667C151.351 74.8679 151.397 75.1784 151.235 75.3327L151.195 75.2894Z" fill="#FFB61D"/>
<path d="M141.251 79.4231C141.357 79.7 141.249 80.0441 141.002 80.2101C140.841 80.011 140.67 79.773 140.725 79.5229C140.779 79.2727 141.211 79.173 141.272 79.4217L141.251 79.4231Z" fill="#FFB61D"/>
<path d="M134.692 93.719C134.896 93.9711 134.667 94.4236 134.342 94.4071C134.197 94.3234 134.101 94.1589 134.1 93.9905C134.184 93.7545 134.462 93.607 134.705 93.6688L134.692 93.719Z" fill="#FFB61D"/>
<path d="M136.48 77.5719C136.456 77.9544 137.187 78.0001 137.21 77.6181C137.234 77.2356 136.504 77.1898 136.48 77.5719Z" fill="#FFB61D"/>
<path d="M148.558 83.8902C148.698 83.9929 148.794 84.154 148.817 84.3263C148.693 84.5253 148.44 84.6349 148.21 84.5896C148.001 84.3414 148.237 83.8854 148.559 83.9121L148.558 83.8902Z" fill="#FFB61D"/>
<path d="M139.167 107.675C139.062 107.814 138.902 107.911 138.729 107.937C138.59 107.833 138.494 107.673 138.468 107.5C138.601 107.342 138.792 107.199 138.996 107.23C139.201 107.261 139.336 107.563 139.169 107.685L139.167 107.675Z" fill="#FFB61D"/>
<path d="M155.666 84.1477C155.489 84.4227 155.075 84.5098 154.802 84.3302C154.677 84.1428 154.874 83.8737 155.099 83.8567C155.323 83.8396 155.526 83.989 155.679 84.154L155.666 84.1477Z" fill="#FFB61D"/>
<path d="M122.188 82.1869C122.017 81.9811 122.214 81.6112 122.481 81.6224C122.749 81.6336 122.92 81.9913 122.776 82.2161C122.631 82.441 122.255 82.4468 122.089 82.2375L122.188 82.1869Z" fill="#FFB61D"/>
<path d="M130.029 103.113C130.08 103.252 130.051 103.418 129.954 103.531C129.684 103.657 129.304 103.402 129.371 103.113C129.438 102.823 129.973 102.832 129.988 103.129L130.029 103.113Z" fill="#FFB61D"/>
<path d="M152.955 96.3275C152.758 96.3105 152.744 95.9893 152.906 95.8773C153.068 95.7659 153.286 95.8029 153.478 95.8442C153.57 95.9664 153.602 96.1304 153.564 96.2783C153.374 96.3674 153.155 96.3922 152.95 96.3474L152.955 96.3275Z" fill="#FFB61D"/>
<path d="M134.341 81.6073C134.517 81.6073 134.692 81.6073 134.868 81.6068C134.951 81.7368 134.982 81.8983 134.953 82.0497C134.756 82.1285 134.527 82.2064 134.338 82.1095C134.148 82.0127 134.136 81.656 134.347 81.6321L134.341 81.6073Z" fill="#FFB61D"/>
<path d="M144.291 81.8044C144.154 81.4462 143.471 81.7075 143.608 82.0657C143.744 82.4234 144.428 82.1621 144.291 81.8044Z" fill="#FFB61D"/>
<path d="M154.977 82.4006C154.933 82.2025 154.975 81.966 155.143 81.8516C155.31 81.7372 155.6 81.8404 155.601 82.0438C155.569 82.2205 155.528 82.4142 155.384 82.5222C155.24 82.6298 154.972 82.5548 154.979 82.3757L154.977 82.4006Z" fill="#FFB61D"/>
<path d="M113.311 82.568C113.034 82.6614 112.723 82.3324 112.831 82.0618C112.939 81.7912 113.391 81.7674 113.527 82.0253C113.443 82.1782 113.358 82.3305 113.273 82.4833L113.311 82.568Z" fill="#FFB61D"/>
<path d="M124.247 105.573C124.218 105.25 124.676 105.012 124.923 105.222C125.03 105.399 124.957 105.66 124.773 105.757C124.589 105.853 124.333 105.764 124.248 105.575L124.247 105.573Z" fill="#FFB61D"/>
<path d="M146.403 94.1993C146.683 93.9423 146.191 93.4065 145.911 93.664C145.631 93.9209 146.122 94.4568 146.403 94.1993Z" fill="#FFB61D"/>
<path d="M132.408 96.8604C132.167 96.9373 131.922 96.6258 132.024 96.3942C132.127 96.162 132.472 96.1056 132.67 96.2637C132.73 96.4935 132.614 96.7567 132.405 96.8687L132.408 96.8604Z" fill="#FFB61D"/>
<path d="M148.093 75.7561C147.829 75.4982 148.222 74.9643 148.547 75.14C148.8 75.3896 148.423 75.904 148.109 75.7381L148.093 75.7561Z" fill="#FFB61D"/>
<path d="M132.585 84.2324C132.29 84.2655 131.913 84.2455 131.802 83.9705C131.979 83.7413 132.305 83.6396 132.581 83.7282C132.709 83.8688 132.714 84.1049 132.592 84.2509L132.585 84.2324Z" fill="#FFB61D"/>
<path d="M145.827 79.3852C146.125 79.2621 146.483 79.6368 146.346 79.9288C146.205 80.0772 145.94 80.0787 145.798 79.9322C145.655 79.7862 145.665 79.5205 145.817 79.3847L145.827 79.3852Z" fill="#FFB61D"/>
<path d="M143.382 77.1319C143.487 76.9927 143.648 76.8964 143.82 76.8701C143.959 76.9742 144.055 77.1348 144.081 77.3066C143.977 77.4458 143.816 77.5417 143.645 77.568C143.505 77.4638 143.409 77.3027 143.385 77.1304L143.382 77.1319Z" fill="#FFB61D"/>
<path d="M132.558 89.2752C132.37 89.5964 131.812 89.5789 131.644 89.2465C131.804 88.9136 132.365 88.8981 132.543 89.2212L132.558 89.2752Z" fill="#FFB61D"/>
<path d="M120.116 98.2713C120.305 98.2464 120.447 98.4854 120.386 98.665C120.324 98.845 120.133 98.9506 119.945 98.9842C119.807 98.8796 119.711 98.7195 119.685 98.5477C119.789 98.408 119.95 98.3122 120.122 98.2878L120.116 98.2713Z" fill="#FFB61D"/>
<path d="M139.477 103.19C139.485 103.327 139.493 103.464 139.501 103.601C139.331 103.844 138.865 103.713 138.847 103.418C138.828 103.122 139.274 102.934 139.473 103.154L139.477 103.19Z" fill="#FFB61D"/>
<path d="M148.559 95.8277C148.698 95.9323 148.794 96.0929 148.821 96.2652C148.717 96.4044 148.556 96.5008 148.384 96.5266C148.245 96.4224 148.149 96.2618 148.123 96.09C148.227 95.9503 148.388 95.8545 148.56 95.8301L148.559 95.8277Z" fill="#FFB61D"/>
<path d="M126.897 105.745C126.833 105.55 126.887 105.307 127.061 105.199C127.235 105.091 127.514 105.187 127.543 105.39C127.469 105.541 127.394 105.692 127.32 105.844C127.171 105.827 127.023 105.81 126.875 105.793L126.897 105.745Z" fill="#FFB61D"/>
<path d="M139.535 79.7653C139.555 80.0003 139.304 80.2159 139.074 80.1609C138.845 80.1054 138.72 79.7988 138.846 79.5988C139.038 79.4139 139.417 79.5185 139.488 79.7765L139.535 79.7653Z" fill="#FFB61D"/>
<path d="M119.755 93.8854C119.93 93.6309 120.427 93.8513 120.356 94.1516C120.283 94.3034 120.118 94.4061 119.95 94.4061C119.756 94.3317 119.66 94.0718 119.76 93.8898L119.755 93.8854Z" fill="#FFB61D"/>
<path d="M155.246 79.1462C155.461 79.4801 155.038 79.9867 154.671 79.8353C154.62 79.5059 154.898 79.1638 155.232 79.1458L155.246 79.1462Z" fill="#FFB61D"/>
<path d="M117.218 86.6126C117.207 86.2841 117.66 86.0525 117.92 86.253C118.055 86.6165 117.432 86.9411 117.212 86.6219L117.218 86.6126Z" fill="#FFB61D"/>
<path d="M159.441 86.345C159.56 86.1883 159.782 86.1187 159.969 86.1795C160.056 86.3007 160.087 86.4598 160.052 86.6044C159.908 86.6886 159.763 86.7733 159.618 86.8579C159.427 86.7801 159.334 86.5217 159.433 86.3401L159.441 86.345Z" fill="#FFB61D"/>
<path d="M141.46 77.1159C141.715 77.2911 141.495 77.7879 141.194 77.7169C141.042 77.6434 140.94 77.4789 140.94 77.3105C141.014 77.1168 141.274 77.0209 141.456 77.1207L141.46 77.1159Z" fill="#FFB61D"/>
<path d="M120.219 79.5735C120.474 79.7487 120.254 80.2456 119.953 80.1745C119.802 80.1011 119.699 79.9366 119.699 79.7682C119.773 79.5745 120.033 79.4786 120.215 79.5784L120.219 79.5735Z" fill="#FFB61D"/>
<path d="M141.798 86.2589C141.609 86.5314 141.195 86.6156 140.915 86.4379C140.91 86.0238 141.626 85.8827 141.778 86.2681L141.798 86.2589Z" fill="#FFB61D"/>
<path d="M126.705 96.4418C126.81 96.3027 126.971 96.2063 127.143 96.18C127.282 96.2842 127.378 96.4448 127.405 96.6166C127.3 96.7557 127.14 96.8516 126.967 96.8779C126.828 96.7738 126.732 96.6127 126.708 96.4404L126.705 96.4418Z" fill="#FFB61D"/>
<path d="M130.215 84.5034C130.109 84.6426 129.949 84.7385 129.777 84.7653C129.637 84.6606 129.541 84.5005 129.515 84.3282C129.62 84.1891 129.78 84.0932 129.952 84.0674C130.092 84.1711 130.187 84.3326 130.212 84.5049L130.215 84.5034Z" fill="#FFB61D"/>
<path d="M154.986 91.7129C155.125 91.3917 155.668 91.3791 155.821 91.6935C155.666 92.0297 155.101 92.0492 154.922 91.7246L154.986 91.7129Z" fill="#FFB61D"/>
<path d="M141.444 107.666C141.298 107.754 141.153 107.844 141.007 107.932C140.869 107.831 140.775 107.672 140.754 107.502C140.88 107.303 141.133 107.194 141.364 107.239C141.448 107.366 141.477 107.527 141.444 107.675L141.444 107.666Z" fill="#FFB61D"/>
<path d="M141.099 102.937C141.018 102.742 141.337 102.645 141.547 102.676C141.638 102.864 141.664 103.083 141.62 103.288C141.494 103.372 141.334 103.403 141.185 103.373C141.102 103.246 141.072 103.085 141.105 102.937H141.099Z" fill="#FFB61D"/>
<path d="M126.705 82.2224C126.81 82.0833 126.971 81.9874 127.143 81.9606C127.282 82.0653 127.378 82.2254 127.405 82.3976C127.3 82.5368 127.14 82.6327 126.967 82.6585C126.828 82.5548 126.732 82.3933 126.708 82.221L126.705 82.2224Z" fill="#FFB61D"/>
<path d="M150.664 86.3479C150.858 86.2622 150.957 86.583 150.926 86.7922C150.737 86.8837 150.519 86.9115 150.314 86.8706C150.231 86.7431 150.2 86.583 150.23 86.4336C150.356 86.3499 150.517 86.3202 150.665 86.3533L150.664 86.3479Z" fill="#FFB61D"/>
<path d="M120.376 84.3307C120.42 84.4767 120.392 84.6426 120.303 84.7667C120.151 84.8028 119.984 84.7716 119.856 84.683C119.857 84.5069 119.859 84.3307 119.86 84.1545C120.008 83.9642 120.381 84.0874 120.386 84.3287L120.376 84.3307Z" fill="#FFB61D"/>
<path d="M127.51 91.9753C127.334 92.2293 126.838 92.0093 126.909 91.7085C126.982 91.5572 127.147 91.4545 127.315 91.4545C127.509 91.5285 127.605 91.7884 127.505 91.9709L127.51 91.9753Z" fill="#FFB61D"/>
<path d="M122.835 83.8255C123.006 83.863 123.068 84.1243 122.934 84.2358C122.642 84.2655 122.27 84.2499 122.158 83.9788C122.28 83.7369 122.624 83.6401 122.855 83.7827L122.835 83.8255Z" fill="#FFB61D"/>
<path d="M132.409 105.307C132.548 105.412 132.644 105.572 132.671 105.745C132.567 105.884 132.406 105.98 132.234 106.006C132.095 105.902 131.999 105.742 131.973 105.569C132.077 105.43 132.238 105.334 132.41 105.309L132.409 105.307Z" fill="#FFB61D"/>
<path d="M138.639 91.346C138.862 91.1839 139.224 91.2817 139.335 91.5338C139.158 91.763 138.831 91.8643 138.556 91.7752C138.438 91.6565 138.492 91.42 138.65 91.3645L138.639 91.346Z" fill="#FFB61D"/>
<path d="M125.052 89.6928C124.877 89.9473 124.38 89.7273 124.451 89.4266C124.524 89.2752 124.689 89.172 124.857 89.1725C125.051 89.2465 125.147 89.5064 125.047 89.6884L125.052 89.6928Z" fill="#FFB61D"/>
<path d="M139.089 95.9966C138.898 95.7036 138.338 96.0681 138.529 96.3611C138.72 96.6541 139.28 96.2896 139.089 95.9966Z" fill="#FFB61D"/>
<path d="M120.331 91.6156C120.292 91.9825 119.653 92.0497 119.54 91.6983C119.666 91.4156 120.118 91.3635 120.305 91.6102L120.331 91.6156Z" fill="#FFB61D"/>
<path d="M136.634 105.806C136.255 105.662 136.391 104.957 136.797 104.965C136.984 105.236 136.898 105.655 136.62 105.832L136.634 105.806Z" fill="#FFB61D"/>
<path d="M117.803 84.2942C117.669 84.1964 117.535 84.0985 117.401 84.0002C117.541 83.663 118.113 83.6508 118.267 83.9813C118.168 84.1209 118.008 84.2158 117.838 84.2363L117.803 84.2942Z" fill="#FFB61D"/>
<path d="M143.555 98.1924C143.812 98.3681 143.763 98.8343 143.474 98.9521C143.126 98.8363 143.189 98.2041 143.553 98.1593L143.555 98.1924Z" fill="#FFB61D"/>
<path d="M155.046 77.7514C155.237 78.0444 155.797 77.6799 155.606 77.3869C155.415 77.0934 154.855 77.458 155.046 77.7514Z" fill="#FFB61D"/>
<path d="M138.66 105.054C138.801 104.732 139.347 104.722 139.499 105.039C139.351 105.36 138.799 105.357 138.655 105.034L138.66 105.054Z" fill="#FFB61D"/>
<path d="M129.635 77.2701C129.733 77.1363 129.831 77.0025 129.929 76.8686C130.266 77.0078 130.279 77.5806 129.948 77.7344C129.809 77.6351 129.714 77.4755 129.693 77.3056L129.635 77.2701Z" fill="#FFB61D"/>
<path d="M150.677 84.2183C150.453 84.1822 150.481 83.7953 150.695 83.7189C150.909 83.642 151.142 83.7915 151.274 83.9769C151.15 84.1754 150.896 84.284 150.667 84.2363L150.677 84.2183Z" fill="#FFB61D"/>
<path d="M148.14 91.5353C148.251 91.2871 148.603 91.1859 148.829 91.3372C148.897 91.529 148.773 91.766 148.576 91.8185C148.38 91.8716 148.154 91.729 148.117 91.5285L148.14 91.5353Z" fill="#FFB61D"/>
<path d="M127.308 88.827C127.532 88.8635 127.504 89.2499 127.291 89.3268C127.077 89.4032 126.843 89.2538 126.712 89.0689C126.835 88.8698 127.089 88.7613 127.318 88.809L127.308 88.827Z" fill="#FFB61D"/>
<path d="M145.918 91.9704C146.109 92.2633 146.669 91.8988 146.477 91.6059C146.287 91.3129 145.727 91.6774 145.918 91.9704Z" fill="#FFB61D"/>
<path d="M130.397 101.014C130.69 100.823 130.325 100.263 130.032 100.454C129.739 100.645 130.104 101.205 130.397 101.014Z" fill="#FFB61D"/>
<path d="M152.912 86.9275C152.778 86.8297 152.644 86.7314 152.51 86.6336C152.649 86.2963 153.222 86.2837 153.376 86.6146C153.277 86.7538 153.117 86.8487 152.947 86.8696L152.912 86.9275Z" fill="#FFB61D"/>
<path d="M151.086 91.5149C150.946 91.8365 150.4 91.8463 150.248 91.5299C150.395 91.2087 150.947 91.2117 151.092 91.5348L151.086 91.5149Z" fill="#FFB61D"/>
<path d="M157.933 86.5995C157.792 86.9212 157.245 86.9309 157.094 86.6146C157.242 86.2934 157.793 86.2963 157.938 86.6195L157.933 86.5995Z" fill="#FFB61D"/>
<path d="M124.177 98.6903C124.273 98.4893 124.369 98.2883 124.465 98.0878C124.656 98.2187 124.829 98.4377 124.774 98.663C124.72 98.8883 124.322 98.9526 124.276 98.7253L124.177 98.6903Z" fill="#FFB61D"/>
<path d="M160.113 84.3107C159.912 84.2149 159.711 84.1185 159.51 84.0226C159.641 83.8314 159.86 83.6586 160.086 83.7131C160.311 83.7676 160.375 84.1647 160.148 84.211L160.113 84.3107Z" fill="#FFB61D"/>
<path d="M148.212 100.399C148.367 100.357 148.539 100.387 148.669 100.479C148.6 100.728 148.432 100.948 148.21 101.08C147.937 100.979 147.941 100.507 148.216 100.41L148.212 100.399Z" fill="#FFB61D"/>
<path d="M112.915 89.2752C112.805 88.8761 113.573 88.6752 113.673 89.0767C113.562 89.3171 113.217 89.4095 113 89.2572L112.915 89.2752Z" fill="#FFB61D"/>
<path d="M112.935 84.394C112.711 84.3575 112.739 83.971 112.952 83.8946C113.166 83.8177 113.4 83.9671 113.531 84.1526C113.408 84.3511 113.154 84.4597 112.925 84.412L112.935 84.394Z" fill="#FFB61D"/>
<path d="M146.38 98.1953C146.37 98.3715 146.26 98.5389 146.103 98.6182C145.779 98.4698 145.783 97.9145 146.108 97.77C146.246 97.8693 146.341 98.0289 146.361 98.1982L146.38 98.1953Z" fill="#FFB61D"/>
<path d="M117.667 96.9076C117.402 96.911 117.362 96.5265 117.415 96.2667C117.549 96.1338 117.79 96.1323 117.925 96.2637C117.984 96.4939 117.868 96.7567 117.659 96.8692L117.667 96.9076Z" fill="#FFB61D"/>
<path d="M148.8 98.5535C148.714 98.2104 148.058 98.3744 148.144 98.7175C148.23 99.0606 148.885 98.8966 148.8 98.5535Z" fill="#FFB61D"/>
<path d="M148.46 80.0938C148.27 80.2003 148.065 79.8933 148.176 79.7064C148.287 79.52 148.54 79.4786 148.757 79.4976C148.845 79.7263 148.697 80.0159 148.46 80.0782L148.46 80.0938Z" fill="#FFB61D"/>
<path d="M141.351 83.9117C141.576 83.9482 141.548 84.3346 141.334 84.4115C141.12 84.4879 140.887 84.3385 140.755 84.1535C140.879 83.9545 141.132 83.846 141.362 83.8941L141.351 83.9117Z" fill="#FFB61D"/>
<path d="M115.743 86.4034C115.853 86.8025 115.084 87.0034 114.984 86.6019C115.095 86.362 115.44 86.2691 115.657 86.4214L115.743 86.4034Z" fill="#FFB61D"/>
<path d="M127.488 93.7209C127.665 93.9175 127.576 94.2835 127.328 94.3765C126.937 94.2874 127.128 93.5365 127.515 93.6455L127.488 93.7209Z" fill="#FFB61D"/>
<path d="M134.549 86.1669C134.574 86.3163 134.597 86.4652 134.622 86.6146C134.399 86.781 134.032 86.6861 133.918 86.4326C134.036 86.2331 134.29 86.125 134.516 86.1781L134.549 86.1669Z" fill="#FFB61D"/>
<path d="M122.322 103.463C121.96 103.549 121.909 102.888 122.223 102.69C122.508 102.822 122.566 103.274 122.323 103.472L122.322 103.463Z" fill="#FFB61D"/>
<path d="M130.292 107.61C130.516 107.647 130.489 108.033 130.275 108.11C130.061 108.187 129.828 108.037 129.696 107.852C129.82 107.653 130.073 107.545 130.303 107.592L130.292 107.61Z" fill="#FFB61D"/>
<path d="M148.463 86.2618C148.506 86.4078 148.479 86.5723 148.392 86.6969C148.161 86.7499 147.896 86.6467 147.786 86.4375C147.909 86.1951 148.253 86.0978 148.484 86.2399L148.463 86.2618Z" fill="#FFB61D"/>
<path d="M147.771 77.3091C147.869 77.1669 148.032 77.072 148.204 77.0574C148.473 77.1679 148.475 77.6288 148.207 77.7412C148.061 77.5967 147.916 77.4516 147.77 77.3066L147.771 77.3091Z" fill="#FFB61D"/>
<path d="M120.033 86.6044C119.836 86.782 119.47 86.6925 119.377 86.4448C119.466 86.053 120.217 86.2443 120.108 86.6307L120.033 86.6044Z" fill="#FFB61D"/>
<path d="M139.441 93.9521C139.551 94.3511 138.782 94.5521 138.683 94.1506C138.794 93.9102 139.139 93.8178 139.355 93.9696L139.441 93.9521Z" fill="#FFB61D"/>
<path d="M143.196 79.3939C143.386 79.3034 143.642 79.3983 143.727 79.591C143.583 79.7341 143.44 79.8772 143.296 80.0203C143.06 79.9317 143 79.5618 143.197 79.4042L143.196 79.3939Z" fill="#FFB61D"/>
<path d="M145.651 77.6779C145.477 77.5563 145.474 77.2565 145.647 77.1319C145.819 77.0073 146.103 77.1037 146.164 77.3076C146.062 77.4979 145.874 77.6395 145.662 77.6828L145.651 77.6779Z" fill="#FFB61D"/>
<path d="M146.217 100.83C146.199 101.074 145.826 101.191 145.672 101.001C145.593 100.77 145.74 100.51 145.948 100.383C146.038 100.526 146.128 100.67 146.217 100.813V100.83Z" fill="#FFB61D"/>
<path d="M162.25 82.1251C162.104 82.1684 161.939 82.1412 161.815 82.0541C161.762 81.8239 161.865 81.5576 162.074 81.4486C162.317 81.5718 162.414 81.9149 162.272 82.147L162.25 82.1251Z" fill="#FFB61D"/>
<path d="M136.445 82.1363C136.28 81.9188 136.375 81.5562 136.626 81.4477C136.824 81.5693 136.932 81.8214 136.883 82.0482C136.757 82.1314 136.596 82.1611 136.448 82.1285L136.445 82.1363Z" fill="#FFB61D"/>
<path d="M148.067 81.8346C148.166 81.6988 148.266 81.5635 148.364 81.4282C148.58 81.5387 148.701 81.8063 148.641 82.0409C148.499 82.2356 148.12 82.1105 148.121 81.8696L148.067 81.8346Z" fill="#FFB61D"/>
<path d="M150.84 103.377C150.675 103.159 150.77 102.797 151.021 102.689C151.219 102.81 151.327 103.062 151.278 103.289C151.151 103.372 150.991 103.402 150.843 103.37L150.84 103.377Z" fill="#FFB61D"/>
<path d="M124.509 86.7051C124.396 86.5509 124.46 86.3012 124.632 86.2185C124.804 86.1362 125.038 86.2438 125.088 86.4282C125.017 86.6677 124.732 86.8195 124.494 86.7441L124.509 86.7051Z" fill="#FFB61D"/>
<path d="M122.437 104.71C122.636 104.805 122.836 104.9 123.035 104.996C122.923 105.219 122.653 105.352 122.407 105.303C122.282 105.157 122.276 104.923 122.393 104.77L122.437 104.71Z" fill="#FFB61D"/>
<path d="M141.572 105.301C141.595 105.448 141.617 105.596 141.64 105.743C141.514 105.832 141.348 105.859 141.201 105.815C140.944 105.614 141.272 105.111 141.559 105.265L141.572 105.301Z" fill="#FFB61D"/>
<path d="M148.663 103.287C148.651 103.463 148.541 103.63 148.384 103.712C148.177 103.602 148.065 103.34 148.129 103.115C148.273 102.922 148.649 103.049 148.647 103.289L148.663 103.287Z" fill="#FFB61D"/>
<path d="M143.82 86.6978C143.705 86.8069 143.589 86.9154 143.474 87.0239C143.233 86.9743 143.14 86.6068 143.328 86.4491C143.517 86.291 143.862 86.4467 143.869 86.6925L143.82 86.6978Z" fill="#FFB61D"/>
<path d="M160.044 81.875C160.146 82.1426 159.91 82.477 159.623 82.4702C159.379 82.2103 159.746 81.7012 160.07 81.8521L160.044 81.875Z" fill="#FFB61D"/>
<path d="M159.972 89.5074C159.776 89.5896 159.679 89.2684 159.71 89.0577C159.931 88.8995 160.289 88.9993 160.396 89.2499C160.297 89.3881 160.138 89.4825 159.969 89.5025L159.972 89.5074Z" fill="#FFB61D"/>
<path d="M117.922 82.0453C117.966 82.3061 117.629 82.5383 117.401 82.4045C117.392 82.2137 117.395 81.9952 117.538 81.8686C117.68 81.7416 117.985 81.8686 117.915 82.0463L117.922 82.0453Z" fill="#FFB61D"/>
<path d="M145.753 105.656C145.612 105.558 145.517 105.395 145.502 105.223C145.612 104.954 146.073 104.952 146.186 105.22C146.041 105.365 145.896 105.511 145.751 105.657L145.753 105.656Z" fill="#FFB61D"/>
<path d="M129.777 98.81C129.638 98.7054 129.542 98.5447 129.515 98.372C129.62 98.2328 129.78 98.1369 129.953 98.1097C130.123 98.3243 130.022 98.6922 129.767 98.7905L129.777 98.81Z" fill="#FFB61D"/>
<path d="M145.741 89.6918C145.604 89.4694 145.827 89.1307 146.086 89.1686C146.345 89.3691 146.021 89.8763 145.73 89.7254L145.741 89.6918Z" fill="#FFB61D"/>
<path d="M118.162 89.0299C118.329 89.3244 117.807 89.6713 117.6 89.4042C117.42 89.1565 117.9 88.8431 118.103 89.0723L118.162 89.0299Z" fill="#FFB61D"/>
<path d="M152.95 75.1234C153.09 75.0694 153.26 75.102 153.37 75.2042C153.487 75.4223 153.244 75.7293 153.004 75.6627C152.765 75.5965 152.714 75.2076 152.927 75.0816L152.95 75.1234Z" fill="#FFB61D"/>
<path d="M151.027 98.0995C151.165 98.3219 150.941 98.6611 150.683 98.6226C150.423 98.4226 150.747 97.915 151.038 98.0659L151.027 98.0995Z" fill="#FFB61D"/>
<path d="M143.554 89.7595C143.323 89.8665 143.179 89.4952 143.209 89.2431C143.333 89.0956 143.599 89.1097 143.706 89.2694C143.814 89.429 143.728 89.6811 143.545 89.741L143.554 89.7595Z" fill="#FFB61D"/>
<path d="M127.502 86.5168C127.609 86.6769 127.537 86.9266 127.362 87.0049C127.186 87.0837 126.951 86.9699 126.904 86.783C127.017 86.5815 127.273 86.4725 127.496 86.5314L127.502 86.5168Z" fill="#FFB61D"/>
<path d="M130.045 86.8195C129.897 86.8433 129.75 86.8667 129.602 86.8901C129.455 86.6725 129.687 86.3246 129.944 86.3766C130.117 86.4146 130.18 86.6798 130.043 86.7918L130.045 86.8195Z" fill="#FFB61D"/>
<path d="M124.692 80.033C124.377 80.1123 124.419 79.5375 124.68 79.3433C124.956 79.4358 124.955 79.9147 124.678 80.0062L124.692 80.033Z" fill="#FFB61D"/>
<path d="M122.414 98.2747C122.551 98.4976 122.328 98.8363 122.069 98.7978C121.81 98.5978 122.133 98.0907 122.424 98.2416L122.414 98.2747Z" fill="#FFB61D"/>
<path d="M119.623 89.558C119.719 89.4373 119.815 89.3161 119.91 89.1954C120.13 89.2042 120.279 89.4971 120.156 89.6796C120.033 89.8621 119.705 89.8344 119.615 89.6339L119.623 89.558Z" fill="#FFB61D"/>
<path d="M145.91 84.0742C145.813 83.8883 145.911 83.6284 146.107 83.5525C146.247 83.6464 146.341 83.8065 146.353 83.9749C146.294 84.1428 146.043 84.1998 145.918 84.0742H145.91Z" fill="#FFB61D"/>
<path d="M122.036 89.5161C121.939 89.3302 122.037 89.0698 122.232 88.9944C122.373 89.0879 122.466 89.2484 122.479 89.4168C122.421 89.5842 122.169 89.6417 122.044 89.5161H122.036Z" fill="#FFB61D"/>
<path d="M162.288 79.4976C162.311 79.6519 162.334 79.8057 162.357 79.9594C162.204 79.9896 162.051 80.0198 161.898 80.0499C161.753 79.8212 161.98 79.4679 162.248 79.5039L162.288 79.4976Z" fill="#FFB61D"/>
<path d="M124.877 91.4297C125.003 91.6652 124.773 91.9986 124.508 91.9645C124.427 91.8351 124.396 91.6745 124.424 91.5246C124.551 91.4404 124.712 91.4107 124.861 91.4438L124.877 91.4297Z" fill="#FFB61D"/>
<path d="M124.52 84.5672C124.244 84.4849 124.236 84.0075 124.509 83.916C124.783 84.0066 124.777 84.4849 124.501 84.5682L124.52 84.5672Z" fill="#FFB61D"/>
<path d="M124.955 103.283C124.971 103.453 124.854 103.626 124.691 103.675C124.476 103.648 124.354 103.35 124.487 103.18C124.622 103.01 124.94 103.06 125.016 103.263L124.955 103.283Z" fill="#FFB61D"/>
<path d="M126.951 101.102C126.854 100.916 126.952 100.656 127.148 100.58C127.288 100.674 127.382 100.835 127.394 101.003C127.336 101.17 127.084 101.228 126.959 101.102L126.951 101.102Z" fill="#FFB61D"/>
<path d="M124.586 77.1339C124.604 76.8706 124.915 76.6068 125.117 76.7771C125.144 76.9489 125.145 77.1489 125.018 77.2677C124.891 77.3869 124.615 77.2979 124.65 77.1275L124.586 77.1339Z" fill="#FFB61D"/>
<path d="M148.47 94.3176C148.303 94.4003 148.099 94.1993 148.136 94.0168C148.172 93.8343 148.371 93.7199 148.557 93.718C148.71 93.8951 148.668 94.2047 148.472 94.3341L148.47 94.3176Z" fill="#FFB61D"/>
<path d="M129.628 96.0516C129.724 95.9333 129.821 95.8151 129.918 95.6968C130.126 95.688 130.286 95.9576 130.178 96.1357C130.07 96.3139 129.757 96.2973 129.669 96.109L129.628 96.0516Z" fill="#FFB61D"/>
<path d="M143.818 94.4144C143.668 94.4524 143.504 94.4275 143.373 94.3467C143.374 94.1112 143.579 93.8615 143.811 93.9107C144.041 93.9599 144.04 94.3959 143.805 94.3833L143.818 94.4144Z" fill="#FFB61D"/>
<path d="M141.529 88.8323C141.727 88.8869 141.829 89.1565 141.716 89.3287C141.549 89.3686 141.366 89.3297 141.231 89.2256C141.323 89.0791 141.416 88.9331 141.509 88.7871L141.529 88.8323Z" fill="#FFB61D"/>
<path d="M124.589 93.6007C124.875 93.59 124.735 94.0611 124.508 94.2363C124.358 94.0606 124.405 93.756 124.6 93.6328L124.589 93.6007Z" fill="#FFB61D"/>
<path d="M152.857 93.6319C153.085 93.7423 153.026 94.1594 152.775 94.2013C152.477 94.1429 152.565 93.5788 152.866 93.6143L152.857 93.6319Z" fill="#FFB61D"/>
<path d="M136.333 86.6696C136.19 86.5912 136.28 86.3431 136.439 86.3051C136.597 86.2671 136.755 86.3586 136.893 86.4462C136.885 86.6866 136.504 86.7981 136.368 86.5995L136.333 86.6696Z" fill="#FFB61D"/>
<path d="M130.128 94.2431C130.017 94.4719 129.6 94.4115 129.559 94.1609C129.617 93.863 130.181 93.9511 130.146 94.2528L130.128 94.2431Z" fill="#FFB61D"/>
<path d="M117.592 102.768C117.657 102.562 118.013 102.556 118.084 102.76C118.014 102.965 117.657 102.96 117.593 102.753L117.592 102.768Z" fill="#FFB61D"/>
<path d="M127.072 107.508C127.136 107.301 127.493 107.296 127.564 107.5C127.494 107.705 127.136 107.699 127.072 107.493L127.072 107.508Z" fill="#FFB61D"/>
<path d="M162.136 77.2954C162.087 77.4916 161.823 77.5962 161.653 77.4857C161.569 77.328 161.634 77.0988 161.801 77.035C161.969 76.9713 162.184 77.1339 162.144 77.3081L162.136 77.2954Z" fill="#FFB61D"/>
<path d="M157.474 101.154C157.356 101.057 157.238 100.96 157.119 100.863C157.111 100.655 157.38 100.496 157.558 100.604C157.737 100.711 157.72 101.024 157.532 101.113L157.474 101.154Z" fill="#FFB61D"/>
<path d="M152.862 103.469C152.689 103.392 152.753 103.072 152.941 103.068C153.193 103.076 153.06 103.597 152.868 103.435L152.862 103.469Z" fill="#FFB61D"/>
<path d="M127.781 268.547C116.731 258.452 107.378 246.505 100.231 233.356C97.2156 227.81 94.5214 221.578 95.65 215.367C97.7607 203.749 93.3982 192.075 89.9619 180.778C86.525 169.481 84.0907 156.724 89.6183 146.29C80.8982 154.331 77.401 166.516 75.5317 178.23C71.1979 205.386 73.6371 233.597 82.5679 259.606C72.0812 240.41 71.669 217.443 72.6638 195.592C73.4376 178.589 75.339 160.483 86.0194 147.231C69.5764 160.641 64.5734 183.278 60.9448 204.184C57.5382 223.813 54.5058 244.416 60.8222 263.312C54.8625 252.325 55.8358 239.03 57.0661 226.592C59.8966 197.98 64.2537 167.171 84.2946 146.555C89.5949 141.103 96.0647 136.48 103.49 134.838C109.243 133.567 114.786 131.347 119.828 128.296C121.043 121.18 114.347 115.577 109.669 110.078C104.43 103.92 101.162 96.1114 100.453 88.0585C100.034 83.2912 99.0333 76.7961 94.2523 76.5932C90.322 76.4258 87.3635 71.6837 88.9408 68.0804C90.5186 64.4771 96.0102 63.4347 98.7988 66.2092C94.8207 51.2967 103.224 34.0911 117.43 28.0598C115.114 24.7471 120.17 20.7769 124.184 21.2514C128.198 21.7259 132.084 24.1509 136.025 23.255C134.675 20.8762 136.839 17.7162 139.506 17.1069C142.172 16.4976 144.909 17.6554 147.301 18.9825C162.655 27.5007 172.802 44.6795 172.85 62.2384C173.247 59.0333 178.057 57.9358 180.409 60.1487C182.761 62.3611 182.649 66.3216 180.979 69.0858C179.309 71.8496 176.462 73.6644 173.644 75.2417C173.715 86.8857 169.287 98.5005 161.481 107.142C155.802 113.429 147.755 120.099 149.619 128.364C152.64 127.696 155.696 131.182 154.639 134.09C167.593 133.01 179.682 140.829 188.86 150.035C202.314 163.53 211.983 180.759 216.495 199.273C217.283 202.506 221.884 203.388 224.731 201.663C227.577 199.937 229.04 196.674 230.337 193.609C238.879 173.424 247.42 153.238 255.962 133.053C253.103 115.485 255.647 116.464 256.985 108.248C260.646 98.7 259.947 90.0724 261.427 80.9839C261.831 78.5092 263.562 75.2436 265.847 76.2754C267.003 76.7971 267.411 78.206 267.658 79.4499C269.043 86.4409 269.486 93.6182 268.97 100.726C271.927 95.6686 274.884 90.6106 277.841 85.5522C279.459 82.7841 283.033 79.6845 285.278 81.9742C286.51 83.2323 286.186 85.2962 285.678 86.9825C284.06 92.3461 281.422 97.4006 277.947 101.796C282.632 103.393 288.058 105.819 288.878 110.701C289.218 112.726 288.645 114.786 287.965 116.724C285.602 123.459 281.869 129.71 277.06 134.984C278.163 134.318 278.885 136.299 278.665 137.57C273.39 168.087 260.537 197.267 241.579 221.757C235.985 228.985 228.396 236.439 219.296 235.586C213.601 235.053 208.787 231.315 204.331 227.728C199.532 223.866 194.734 220.003 189.935 216.141C201.105 218.636 207.326 232.57 218.689 233.946C227.927 235.064 235.682 227.327 241.266 219.882C259.485 195.59 271.928 166.995 277.287 137.107C270.001 138.329 262.418 137.733 255.413 135.385C248.462 156.935 239.71 177.902 229.275 197.997C227.471 201.47 224.263 205.507 220.559 204.244C218.901 203.678 217.78 202.157 216.847 200.675C207.509 185.866 205.34 166.118 191.721 155.117C197.21 189.156 188.557 223.77 178.761 256.829C186.26 231.069 190.828 204.457 192.349 177.671C192.698 171.521 192.872 165.237 191.132 159.328C189.391 153.419 185.418 147.86 179.651 145.696C175.895 170.126 153.894 188.299 148.327 212.38C143.825 231.853 136.907 250.766 127.781 268.547ZM150.396 201.671C158.766 185.759 169.74 171.192 176.553 154.553C178.102 150.77 179.38 146.274 177.274 142.77C176.514 141.505 175.38 140.515 174.266 139.548C172.504 138.018 170.572 136.413 168.246 136.224C165.16 135.973 162.483 138.281 160.497 140.657C155.682 146.419 152.573 153.383 149.616 160.286C142.544 176.796 135.969 193.599 131.834 211.078C127.699 228.556 126.05 246.801 128.894 264.536C132.495 248.272 144.602 234.491 146.262 217.916C146.535 215.186 146.517 212.415 147.111 209.736C147.741 206.894 149.04 204.248 150.396 201.671ZM166.966 51.4919C165.833 49.3067 164.418 47.2165 162.484 45.6932C158.176 42.3012 152.111 42.2919 146.721 43.3003C143.276 43.9446 139.896 44.9384 136.65 46.2612C135.802 46.6062 134.903 46.9819 134.002 46.8184C133.102 46.6544 132.292 45.684 132.661 44.8464C132.732 44.6853 132.842 44.5359 132.861 44.3607C132.914 43.8707 132.291 43.6254 131.803 43.5553C124.385 42.4856 116.486 43.7363 110.251 47.8935C104.014 52.0506 99.6976 59.299 99.9283 66.7897C99.9804 68.4707 101.244 69.846 102.513 70.9503C104.453 72.6385 106.591 74.0995 108.87 75.2938C109.892 75.8296 111.295 76.2544 112.077 75.4047C113.627 73.7194 116.203 73.5885 118.493 73.6376C126.451 73.808 134.452 74.7258 142.341 73.6659C147.148 73.0196 151.828 71.6481 156.616 70.8763C158.083 70.6398 159.597 70.4616 161.042 70.8043C162.487 71.1464 163.868 72.108 164.328 73.5203C166.192 71.4141 167.868 69.1413 169.33 66.7386C169.769 66.0174 170.195 65.2679 170.358 64.4396C170.502 63.7048 170.431 62.9456 170.333 62.2029C169.843 58.4731 168.698 54.8309 166.966 51.4919ZM155.03 103.818C157.839 102.587 159.417 99.5998 160.479 96.7227C163.011 89.866 163.826 82.3821 162.827 75.1414C162.726 74.4134 162.592 73.6508 162.128 73.0814C161.392 72.1791 160.078 72.0389 158.915 72.0866C156.18 72.1981 153.519 72.9514 150.856 73.587C145.25 74.9253 139.506 75.7571 133.743 75.7765C128.047 75.7955 122.361 75.0232 116.669 75.2441C115.536 75.2884 114.339 75.3945 113.419 76.0578C111.961 77.1095 111.705 79.1467 111.647 80.9435C111.425 87.7734 112.231 94.6358 114.029 101.229C114.137 101.625 114.259 102.038 114.547 102.331C114.858 102.646 115.308 102.769 115.733 102.893C122.61 104.906 128.558 110.674 135.706 110.176C141.008 109.807 145.466 106.004 150.656 104.858C152.123 104.535 153.655 104.421 155.03 103.818ZM96.2462 216.646C95.8194 222.843 99.3258 228.55 102.698 233.767C106.112 239.047 109.525 244.329 112.939 249.609C107.904 232.854 105.529 215.415 103.914 197.995C102.227 179.804 101.39 161.144 106.364 143.566C107.153 140.777 108.099 138 109.626 135.536C105.048 135.417 100.177 135.768 96.4413 138.419C94.0134 140.142 92.2901 142.7 91.0135 145.389C87.0686 153.702 87.0589 163.402 88.8026 172.436C90.5468 181.47 93.9301 190.091 96.581 198.902C97.3514 201.462 98.0668 204.091 97.9734 206.762C97.8561 210.11 96.4759 213.305 96.2462 216.646ZM118.485 105.588C116.125 104.682 113.262 103.942 112.324 101.595C111.883 100.493 111.991 99.2601 111.864 98.08C111.737 96.8998 111.242 95.6053 110.138 95.1692C107.478 94.118 104.926 92.7928 102.537 91.2214C103.722 98.1929 106.879 104.818 111.547 110.131C113.884 112.791 116.595 115.135 118.666 118.008C120.738 120.88 122.146 124.495 121.383 127.954C121.14 129.055 122.724 129.535 123.852 129.508C131.347 129.331 138.841 129.122 146.334 128.881C147.604 128.839 148.353 127.356 148.323 126.086C148.294 124.816 147.782 123.589 147.799 122.318C147.824 120.452 148.968 118.803 150.133 117.344C153.584 113.022 157.614 109.197 161.202 104.987C164.789 100.778 167.985 96.0613 169.349 90.7016C166.975 94.7054 161.967 96.7699 160.109 101.038C159.055 103.461 156.506 104.886 153.982 105.666C151.457 106.444 148.781 106.761 146.372 107.844C145.136 108.4 143.997 109.147 142.787 109.756C138.537 111.896 133.415 112.236 128.92 110.675C125.26 109.405 122.101 106.977 118.485 105.588ZM268.572 116.177C271.176 116.022 274.321 117.036 276.046 115.079C276.441 114.631 276.702 114.014 276.559 113.434C276.363 112.645 275.533 112.211 274.777 111.912C269.947 110.005 264.542 109.585 259.476 110.725C257.712 111.121 256.681 112.75 256.294 114.517C255.908 116.283 256.002 118.196 256.294 119.98C257.038 124.513 257.782 129.045 258.525 133.577C258.559 133.782 258.595 133.993 258.71 134.165C258.882 134.424 259.195 134.543 259.489 134.644C263.149 135.891 267.043 136.447 270.905 136.274C272.441 136.205 274.102 135.963 275.18 134.866C280.456 129.502 284.313 122.753 286.258 115.485C285.199 116.432 283.839 117.17 282.422 117.06C281.006 116.951 279.629 115.745 279.721 114.327C277.005 116.42 273.806 118.635 270.448 117.94C267.881 117.409 265.047 118.546 263.56 120.705C262.653 120.467 263.002 119.064 263.662 118.397C264.955 117.093 266.739 116.286 268.572 116.177ZM112.628 156.522C110.85 156.799 109.08 157.13 107.325 157.526C106.09 157.805 104.621 158.372 104.461 159.627C104.143 162.13 103.97 164.652 103.944 167.174C117.368 164.008 131.621 164.434 144.831 168.395C146.235 165.107 147.639 161.818 149.042 158.529C137.222 155.328 124.728 154.639 112.628 156.522ZM162.221 136.795C160.097 135.671 157.624 135.219 155.239 135.521C154.769 135.58 154.24 135.71 154.014 136.127C153.108 137.791 151.13 138.51 149.299 138.995C140.087 141.434 130.361 141.379 120.919 140.092C119.164 139.853 117.385 139.563 115.79 138.792C114.195 138.02 112.785 136.694 112.312 134.986C111.055 134.967 110.3 136.341 109.853 137.516C108.503 141.069 107.335 144.692 106.358 148.365C121.666 144.898 137.844 145.346 152.936 149.656C154.376 147.898 155.445 145.837 156.053 143.646C156.337 142.624 157.121 141.829 157.877 141.084C159.325 139.654 160.773 138.225 162.221 136.795ZM137.219 188.591C138.698 185.319 139.954 181.947 140.976 178.505C129.191 176.553 117.121 176.324 105.269 177.829C104.767 177.892 104.209 177.99 103.905 178.396C103.638 178.752 103.652 179.239 103.678 179.684C103.804 181.891 103.93 184.098 104.056 186.305C104.09 186.898 104.373 187.7 104.955 187.58C115.591 185.387 126.741 185.736 137.219 188.591ZM284.231 87.2945C284.569 86.4569 284.893 85.576 284.819 84.6762C284.746 83.7764 284.159 82.8541 283.272 82.6872C282.719 82.5831 282.148 82.7836 281.669 83.0795C280.495 83.8041 279.759 85.0475 279.069 86.2428C275.945 91.6545 272.822 97.0658 269.699 102.477C269.294 103.178 268.124 102.961 267.68 102.284C267.236 101.606 267.295 100.73 267.358 99.9225C267.883 93.1539 267.489 86.3153 266.19 79.6523C266.109 79.2387 266.019 78.8109 265.77 78.4707C265.049 77.4847 263.366 77.8273 262.639 78.8094C261.913 79.792 261.871 81.1041 261.861 82.3261C261.789 91.6326 261.877 101.27 258.117 109.783C261.936 108.301 266.235 108.087 270.182 109.183C270.746 109.34 271.33 109.524 271.906 109.415C272.481 109.306 273.027 108.782 272.927 108.206C272.55 106.044 274.102 104.08 275.466 102.361C279.091 97.7948 282.053 92.7028 284.231 87.2945ZM153.285 131.855C153.025 130.788 152.069 129.809 150.975 129.906C139.817 130.906 128.595 131.19 117.401 130.757C116.738 130.731 116.04 130.71 115.452 131.017C115.038 131.234 114.713 131.601 114.493 132.014C113.6 133.691 114.507 135.877 116.03 137.014C117.552 138.15 119.514 138.482 121.399 138.72C129.629 139.759 138.015 139.649 146.185 138.214C147.949 137.904 149.758 137.509 151.218 136.472C152.678 135.435 153.709 133.595 153.285 131.855ZM133.393 200.181C133.458 199.958 133.519 199.705 133.402 199.505C133.277 199.291 133.002 199.228 132.758 199.186C123.888 197.682 114.809 198.421 105.843 199.164C105.589 199.185 105.301 199.225 105.158 199.436C105.047 199.601 105.063 199.816 105.083 200.014C105.343 202.559 105.603 205.105 105.863 207.651C105.912 208.139 106.119 208.773 106.61 208.748C114.407 208.35 122.241 208.695 129.972 209.778C130.463 209.847 130.759 209.261 130.897 208.784C131.729 205.917 132.561 203.049 133.393 200.181ZM128.309 223.085C128.347 222.719 128.369 222.301 128.116 222.034C127.922 221.83 127.621 221.777 127.342 221.739C121.273 220.893 115.105 221.493 109.007 222.094C108.702 222.124 108.35 222.184 108.203 222.453C108.102 222.637 108.133 222.863 108.169 223.071C108.577 225.509 108.987 227.948 109.396 230.387C109.455 230.738 109.64 231.188 109.992 231.136C115.809 230.269 122 230.014 127.32 232.521C127.65 229.375 127.979 226.23 128.309 223.085ZM103.909 90.2777C106.107 91.7869 108.519 92.9831 111.051 93.8177C109.948 88.734 109.733 83.4595 110.415 78.3028C110.502 77.6507 109.768 77.2297 109.161 76.9742C105.617 75.4802 102.4 73.2137 99.7988 70.3794C100.067 75.7595 100.649 81.1235 101.54 86.436C101.673 87.2327 101.822 88.0512 102.254 88.7345C102.659 89.3769 103.283 89.8475 103.909 90.2777ZM162.485 95.7401C164.846 93.8216 166.914 91.5596 168.743 89.1297C169.73 87.8191 170.66 86.4379 171.207 84.8908C171.757 83.335 171.9 81.6676 171.965 80.0188C172.136 75.704 171.807 71.3693 170.986 67.1294C169.09 69.7044 167.195 72.2793 165.3 74.8543C165.009 75.2495 164.711 75.6592 164.599 76.1372C164.509 76.5197 164.546 76.9197 164.578 77.3115C165.084 83.5126 164.369 89.8105 162.485 95.7401ZM125.868 253.211C126.283 253.295 126.473 252.715 126.483 252.292C126.544 249.762 126.603 247.231 126.664 244.701C126.669 244.473 126.673 244.235 126.574 244.03C126.392 243.65 125.935 243.505 125.528 243.4C123.225 242.801 120.888 242.198 118.508 242.226C116.531 242.25 114.574 242.711 112.598 242.662C112.374 242.657 112.082 242.694 112.035 242.913C112.019 242.989 112.04 243.067 112.061 243.142C112.933 246.169 114.082 249.116 115.487 251.936C115.671 252.306 115.891 252.702 116.275 252.852C116.547 252.958 116.85 252.918 117.139 252.882C120.041 252.519 123.002 252.631 125.868 253.211ZM173.279 63.2079C172.827 63.9067 172.427 64.6703 172.353 65.4991C172.307 66.0077 172.386 66.5182 172.465 67.0224C172.77 68.9656 173.075 70.9094 173.38 72.8526C173.398 72.9656 173.418 73.0853 173.494 73.1709C173.67 73.3729 173.998 73.2658 174.237 73.1442C175.202 72.6541 176.179 72.1567 176.993 71.4442C177.647 70.8729 178.179 70.1774 178.681 69.4688C179.728 67.9884 180.691 66.3367 180.759 64.5238C180.827 62.711 179.714 60.74 177.93 60.413C176.041 60.066 174.322 61.5951 173.279 63.2079ZM91.1741 67.0564C90.45 67.6906 90.1877 68.6985 90.0675 69.6538C89.957 70.5283 89.938 71.4394 90.2417 72.2672C90.6602 73.4089 91.655 74.2649 92.7553 74.7823C93.8562 75.3001 95.0684 75.522 96.2652 75.7386C96.856 75.8461 97.4463 75.9532 98.0371 76.0603C98.1836 76.0865 98.3569 76.1055 98.46 75.9985C98.5462 75.9099 98.5462 75.7712 98.5403 75.648C98.443 73.4605 98.3452 71.2729 98.2474 69.0854C98.206 68.1558 97.5417 67.3372 96.7226 66.8958C95.9036 66.4544 94.9502 66.3357 94.0207 66.3123C93.0162 66.2865 91.9294 66.3941 91.1741 67.0564ZM281.037 104.49C280.603 104.015 279.961 103.798 279.345 103.613C278.692 103.418 277.986 103.239 277.338 103.452C276.603 103.694 276.116 104.382 275.728 105.052C275.141 106.065 274.654 107.136 274.277 108.245C274.143 108.638 274.022 109.05 274.077 109.461C274.133 109.872 274.413 110.281 274.821 110.357C276.485 110.669 277.938 111.923 278.491 113.523C279.263 111.903 280.036 110.284 280.809 108.664C281.129 107.995 281.453 107.313 281.563 106.579C281.672 105.844 281.539 105.037 281.037 104.49ZM286.829 107.881C286.037 107.137 284.721 107.189 283.806 107.775C282.891 108.361 282.321 109.362 281.952 110.384C281.533 111.548 281.329 112.789 281.354 114.027C281.36 114.322 281.381 114.627 281.517 114.889C281.846 115.522 282.713 115.663 283.404 115.489C284.914 115.107 285.92 113.704 286.667 112.338C287.051 111.634 287.409 110.894 287.509 110.098C287.609 109.302 287.413 108.431 286.829 107.881ZM127.577 265.828C127.206 263.68 126.835 261.533 126.463 259.386C126.42 259.135 126.362 258.861 126.158 258.71C126.025 258.61 125.852 258.584 125.687 258.563C123.773 258.314 121.828 258.301 119.911 258.526C122.174 261.244 124.752 263.699 127.577 265.828Z" fill="#00160A"/>
<path d="M17.6602 56.4661C15.7494 60.1288 14.7582 64.1929 14.7823 68.3043C13.1955 65.1784 11.2954 61.9465 7.63168 60.9989C4.56315 60.1784 1.00946 61.8642 0.59399 65.1789C0.0969574 69.1613 3.68321 72.6385 6.37321 75.0928C9.52467 77.9923 13.167 80.3205 16.9005 82.4195C18.8122 83.4897 20.7442 84.4786 22.6841 85.4894C22.2548 86.8472 21.8451 88.3943 22.6641 89.6169C23.307 90.56 24.6045 90.9708 25.5486 90.1366C26.4927 89.3025 26.4679 87.8644 25.8474 86.9129C25.3038 86.1056 24.4551 85.5561 23.5562 85.0738C23.6049 84.9337 23.6394 84.8227 23.6881 84.6825C24.0399 83.5243 24.422 82.3796 24.8337 81.2491C25.6279 78.9735 26.5034 76.7173 27.2894 74.4202C28.6881 70.3794 29.8619 66.1999 30.0488 61.9138C30.1841 58.6517 30.0323 53.7778 26.8796 51.835C23.0656 49.4464 19.2944 53.3451 17.6602 56.4661ZM25.3802 87.549C25.6751 88.153 25.7146 88.9477 25.2079 89.4757C24.3538 90.3507 23.2827 89.465 23.0335 88.5749C22.7843 87.6848 23.0296 86.7124 23.3202 85.7975C24.1519 86.2306 24.9846 86.7368 25.3802 87.549ZM29.3251 59.6513C29.4239 61.7737 29.2706 63.8892 28.8798 65.9692C28.1294 70.2149 26.6344 74.2664 25.1393 78.3174C24.3645 80.4388 23.5752 82.5899 22.9118 84.7443C22.3955 84.4908 21.8947 84.2806 21.4304 84.0328C19.5957 83.1062 17.7977 82.1421 16.0057 81.127C12.3462 79.0255 8.80615 76.635 5.77899 73.6659C4.03078 71.9479 2.0919 69.9803 1.35081 67.6015C0.57034 65.1142 1.54187 62.5042 4.15771 61.6014C9.10302 59.8995 12.701 64.9171 14.7684 68.6771C14.7827 68.991 14.797 69.3044 14.8113 69.6183C14.843 70.048 15.4774 69.9395 15.4614 69.553C15.3334 65.4305 16.0507 61.3683 17.8481 57.5991C18.7396 55.7298 19.894 53.6911 21.773 52.6146C23.857 51.415 26.3506 51.6841 27.7493 53.6765C28.9421 55.3765 29.2361 57.6234 29.3251 59.6513Z" fill="#FFB61D"/>
<path d="M271.755 5.76229C267.936 7.34001 264.565 9.81617 261.941 12.981C262.734 9.56651 263.356 5.86916 261.159 2.78851C259.335 0.187519 255.529 -0.80533 253.08 1.46697C250.14 4.19804 250.652 9.16696 251.135 12.7761C251.686 17.0227 252.979 21.1477 254.49 25.1559C255.266 27.2043 256.111 29.2035 256.947 31.2246C255.746 31.9892 254.437 32.9109 254.279 34.3739C254.165 35.5093 254.895 36.6578 256.154 36.6257C257.414 36.594 258.319 35.4767 258.455 34.349C258.558 33.3806 258.261 32.4141 257.882 31.467C258.01 31.3906 258.107 31.3283 258.235 31.2519C259.249 30.591 260.277 29.9598 261.32 29.3583C263.39 28.1255 265.511 26.96 267.59 25.7054C271.259 23.5095 274.845 21.0621 277.743 17.8987C279.943 15.4868 282.96 11.6553 281.794 8.14092C280.407 3.85957 275.012 4.42196 271.755 5.76229ZM257.689 34.5359C257.526 35.1876 257.046 35.8222 256.318 35.901C255.102 36.0222 254.85 34.6552 255.231 33.8132C255.613 32.9708 256.426 32.3839 257.237 31.8695C257.595 32.7357 257.908 33.659 257.689 34.5359ZM278.643 15.7005C277.354 17.3897 275.877 18.912 274.241 20.2537C270.937 23.0243 267.187 25.1666 263.438 27.3089C261.481 28.436 259.494 29.5763 257.601 30.8008C257.368 30.2742 257.12 29.7914 256.923 29.3033C256.113 27.414 255.356 25.5199 254.635 23.5903C253.183 19.6279 252.007 15.5214 251.597 11.301C251.362 8.86133 251.141 6.10772 252.103 3.809C253.104 1.402 255.526 0.0271606 258.11 1.01685C262.992 2.89192 262.523 9.0487 261.69 13.2579C261.499 13.5071 261.309 13.7567 261.118 14.0059C260.866 14.3558 261.422 14.6804 261.658 14.3743C264.21 11.1341 267.37 8.483 271.17 6.75124C273.055 5.89218 275.249 5.07244 277.381 5.45573C279.748 5.87597 281.485 7.68535 281.276 10.1106C281.097 12.1794 279.878 14.0901 278.643 15.7005Z" fill="#FFB61D"/>
</svg>
