<svg width="247" height="163" viewBox="0 0 247 163" fill="none" xmlns="http://www.w3.org/2000/svg">
<path fill-rule="evenodd" clip-rule="evenodd" d="M17.7067 149.022C39.7843 164.75 64.8608 150.757 83.6528 145.034C98.579 140.488 148.507 162.926 173.312 162.926C198.116 162.926 257.263 142.671 215.706 77.4548C158.409 -12.4636 120.519 16.5856 83.6528 47.7816C46.7864 78.978 46.7864 61.156 23.9536 78.978C1.12058 96.8 -4.37062 133.294 17.7067 149.022Z" fill="#64FCD9"/>
<path fill-rule="evenodd" clip-rule="evenodd" d="M2.38209 111.86C3.90777 110.784 5.9425 110.713 7.72028 111.241C9.49809 111.77 11.0756 112.829 12.6041 113.901C18.4461 117.996 24.0248 122.488 29.2925 127.337C30.3153 128.279 31.3373 129.246 32.1011 130.419C33.6024 132.723 33.8812 136.058 32.1218 138.161C30.8685 139.658 28.8148 140.269 26.8989 140.106C24.983 139.942 23.1819 139.098 21.5307 138.085C17.0448 135.335 13.4276 131.331 9.22933 128.137C6.48983 126.053 3.41752 124.228 1.54853 121.299C-0.320507 118.37 -0.428159 113.842 2.38209 111.86Z" fill="white"/>
<path d="M165.465 60.9704C164.759 60.612 164.498 59.7252 164.371 58.9272C163.803 55.3604 164.51 51.594 166.327 48.4996C167.28 46.8768 168.742 45.3256 170.585 45.2412C171.88 45.182 173.131 45.8908 173.981 46.8964C174.832 47.9016 175.326 49.1748 175.658 50.462C176.398 53.3364 176.985 58.8336 175.826 60.8444C174.668 62.8556 165.861 61.856 165.465 60.9704Z" fill="white"/>
<path d="M158.121 83.7016C156.682 79.0308 156.17 74.0608 156.626 69.184C156.668 68.7264 156.744 68.2208 157.092 67.9316C157.44 67.6424 182.782 65.7328 183.744 66.16C184.359 70.8232 184.573 75.542 184.385 80.2436C184.318 81.9004 183.736 84.0492 182.123 84.09C175.229 84.2636 168.335 84.4372 161.44 84.6112C161.051 84.6208 158.638 85.3768 158.121 83.7016Z" fill="white"/>
<path fill-rule="evenodd" clip-rule="evenodd" d="M150.339 116.38C150.121 109.542 149.476 94.3796 151.954 92.966C159.144 88.8648 157.647 84.1272 160.864 83.9356C165.796 83.642 179.182 80.8956 180.725 85.7176C182.269 90.5396 180.642 91.502 183.61 92.966C188.515 95.3852 190.087 93.4464 192.75 99.8072C193.511 101.624 193.444 103.709 193.545 105.684C193.779 110.273 193.455 114.884 193.752 119.468C194.046 124.018 194.788 147.371 192.75 154.414C191.775 157.782 177.615 155.802 173.805 155.454C166.714 154.804 158.881 156.105 151.954 154.414C151.954 154.414 150.753 129.409 150.339 116.38Z" fill="white"/>
<path d="M132.798 64.4616C134.005 64.1976 134.865 65.6104 135.309 66.7932C139.002 76.636 141.442 86.9204 144.597 96.9584C150.203 114.791 158.08 131.888 162.307 150.117C162.499 150.944 162.645 151.931 162.073 152.545C161.628 153.022 160.917 153.078 160.274 153.104C144.958 153.715 129.634 154.151 114.308 154.412C113.949 154.418 113.565 154.418 113.265 154.214C112.948 154 112.798 153.61 112.666 153.245C104.451 130.488 97.5493 107.23 92.0098 83.6344C91.8747 83.0592 88.7655 67.8488 88.9368 67.4628C89.1755 66.9256 89.8307 66.7644 90.3992 66.6772C104.42 64.5232 118.932 67.4924 132.798 64.4616Z" fill="white"/>
<path d="M89.228 74.1396C89.7318 74.552 89.8237 75.2884 89.8774 75.9476C90.2878 80.9812 90.6985 86.0144 91.1089 91.0476C91.1408 91.4364 91.1638 91.8612 90.9466 92.1812C90.6503 92.6184 90.0515 92.6696 89.5329 92.6792C74.4478 92.9544 59.3627 93.2296 44.2772 93.5048C43.5421 93.518 42.7362 93.5072 42.174 93.0204C41.6359 92.5548 41.4747 91.7828 41.3762 91.0668C41.1824 89.6524 41.1068 88.2208 41.1516 86.7928C41.1695 86.2124 41.0309 83.1208 40.2573 82.822C38.9106 82.3024 38.0759 80.8504 37.852 79.3908C37.6281 77.9312 37.9085 76.4452 38.1876 74.996C38.3589 74.1088 38.561 73.1616 39.2007 72.54C39.866 71.8932 40.8452 71.754 41.7566 71.6588C45.6577 71.2512 49.5822 71.0748 53.5032 71.1308C58.2379 71.1984 62.9613 71.6044 67.68 72.0104C74.4213 72.59 81.1622 73.1696 87.9035 73.7492C88.3684 73.7892 88.8632 73.8408 89.228 74.1396Z" fill="white"/>
<path d="M88.2893 95.3228C89.4663 113.405 89.2697 131.581 87.7015 149.632C87.638 150.36 87.5547 151.137 87.1042 151.704C86.4283 152.556 85.207 152.623 84.1371 152.619C72.1207 152.578 60.1043 152.409 48.0915 152.112C47.5927 152.099 47.0126 152.043 46.7409 151.613C46.5925 151.378 46.5758 151.084 46.5633 150.804C45.7687 133.008 44.9741 115.178 45.8933 97.3884C45.9443 96.4016 46.4617 95.0532 47.3813 95.3436C48.0268 95.5472 78.4178 95.0532 88.2893 95.3228Z" fill="white"/>
<path fill-rule="evenodd" clip-rule="evenodd" d="M174.521 59.2896C173.905 59.0364 173.813 58.1936 173.826 57.5116C173.832 57.2052 173.838 56.8984 173.845 56.5908C173.912 53.5916 173.98 50.5424 173.007 47.7284C172.734 46.9372 172.308 46.1036 171.54 45.8176C170.292 45.3528 169.08 46.5832 168.409 47.7596C166.958 50.3008 166.181 53.244 166.184 56.1904V56.2396C166.185 57.1852 166.186 58.274 165.466 58.8532C164.76 58.4948 164.498 57.608 164.371 56.81C163.803 53.2432 164.51 49.4768 166.327 46.3824C167.281 44.7596 168.743 43.2084 170.586 43.124C171.881 43.0648 173.131 43.7736 173.982 44.7792C174.832 45.7844 175.326 47.0576 175.658 48.3448C176.398 51.2192 176.393 54.2412 176.184 57.2068C176.147 57.732 176.096 58.2796 175.827 58.7272C175.557 59.1752 174.997 59.4852 174.521 59.2896ZM150.628 101.482L151.085 109.315C150.056 105.968 149.016 102.566 148.934 99.0572C148.853 95.548 149.857 91.854 152.363 89.4672C152.99 88.8696 153.695 88.3676 154.399 87.8656C155.102 87.3644 155.807 86.8624 156.434 86.2652C157.688 85.0708 158.638 83.2596 158.121 81.584C156.682 76.9136 156.17 71.9436 156.626 67.0668C156.668 66.6092 156.744 66.1036 157.092 65.8144C157.44 65.5252 158.121 65.7144 158.095 66.1736C157.846 70.5568 158.228 74.9772 159.227 79.2464C159.308 79.5952 159.409 79.968 159.682 80.1916C159.945 80.4064 160.304 80.4316 160.64 80.4468C167.061 80.7416 173.496 80.732 179.916 80.418C181.039 80.3628 182.515 79.9348 182.491 78.78L182.222 66.2328C182.199 65.1564 182.782 63.6156 183.744 64.0428C184.359 68.706 184.573 73.4244 184.385 78.126C184.318 79.7832 183.736 81.932 182.123 81.9724L161.44 82.494C161.051 82.5036 160.544 82.6172 160.505 83.016C160.283 85.2956 158.547 87.0936 156.765 88.4716C156.435 88.7272 156.097 88.978 155.758 89.2292C154.272 90.3316 152.774 91.4432 151.82 93.0304C150.339 95.4932 150.459 98.5928 150.628 101.482ZM169.414 106.218C169.454 105.337 169.516 104.402 170.019 103.688C170.819 102.553 172.384 102.412 173.748 102.374L186.837 102.008C187.504 101.99 188.232 101.991 188.754 102.418C189.444 102.982 189.479 104.026 189.456 104.931C189.43 105.974 189.395 107.051 188.966 107.996C188.537 108.942 187.603 109.727 186.592 109.628C182.179 109.194 177.751 108.911 173.319 108.781C172.471 108.756 171.3 109.065 171.385 109.933C172.161 117.897 172.091 125.949 171.176 133.898C171.056 134.942 172.425 135.383 173.448 135.434L182.996 135.916C183.749 135.954 184.721 136.193 184.789 136.965C184.871 137.894 183.601 138.188 182.695 138.129L172.221 137.452C171.346 137.396 170.392 137.304 169.762 136.678C169.064 135.984 169 134.874 168.985 133.876C168.845 124.655 168.988 115.43 169.414 106.218ZM193.346 149.586C193.799 133.952 193.762 118.304 193.237 102.673C193.162 100.428 193.071 98.1516 192.405 96.0124C191.74 93.8732 190.418 91.8524 188.454 90.8656C187.811 90.542 187.083 90.3044 186.358 90.068C184.656 89.5128 182.971 88.9628 182.444 87.3228C182.306 86.8928 182.276 86.4344 182.246 85.9776C182.21 85.422 182.174 84.8684 181.943 84.3712C181.523 83.4652 179.858 83.2672 179.799 84.2692C179.567 88.1668 182.566 91.986 186.322 92.5784C188.296 92.8892 189.832 94.6228 190.533 96.5432C191.235 98.464 191.254 100.566 191.263 102.617C191.328 118.566 191.238 134.516 190.995 150.463C190.988 150.912 190.961 151.41 190.648 151.722C190.351 152.018 189.896 152.048 189.482 152.055C185.764 152.12 182.044 151.81 178.329 151.5C173.284 151.08 168.246 150.66 163.223 151.18C162.345 151.272 161.181 152.143 161.82 152.769C162.021 152.966 162.323 152.993 162.601 153.008L188.914 154.495C189.847 154.548 190.84 154.587 191.65 154.108C193.078 153.265 193.297 151.278 193.346 149.586ZM168.623 61.234C164.921 60.96 161.071 61.0012 157.676 62.5428C157.136 62.788 156.529 63.444 156.934 63.886C160.886 61.8624 165.561 62.2276 169.935 62.846C170.285 62.8956 170.636 62.9464 170.987 62.9972C175.031 63.582 179.171 64.1804 183.076 63.0312C183.674 62.8552 184.391 62.4196 184.257 61.796C184.117 61.1508 183.25 61.0944 182.614 61.1984C182.378 61.2372 182.141 61.2772 181.905 61.3172H181.903C181.181 61.4396 180.459 61.5616 179.732 61.6456C176.876 61.9756 174.002 61.7124 171.132 61.4492C170.295 61.3728 169.459 61.296 168.623 61.234ZM175.949 119.636C175.208 119.625 174.418 119.599 173.806 119.168C174.022 118.774 174.537 118.704 174.978 118.68L183.133 118.231C183.542 118.208 184.044 118.236 184.232 118.61C184.402 118.947 184.18 119.379 183.857 119.561C183.534 119.743 183.146 119.742 182.777 119.737L175.949 119.636ZM185.171 112.588L174.987 113.107C174.427 113.135 173.707 113.308 173.645 113.881L185.623 114.322C186.109 114.34 186.706 114.293 186.914 113.841C187.098 113.442 186.822 112.947 186.438 112.748C186.053 112.549 185.6 112.566 185.171 112.588ZM50.7899 131.434C56.0728 130.278 61.5246 129.941 66.9044 130.438L66.9858 130.445C68.7394 130.607 70.6708 130.786 72.0697 129.697C74.0195 128.179 73.8268 125.175 73.5593 122.676C72.9469 116.951 72.9629 111.155 73.6068 105.433C73.7049 104.559 73.082 103.735 72.3166 103.341C71.5511 102.947 70.6685 102.89 69.8135 102.844C63.6531 102.511 57.4837 102.35 51.3148 102.359C50.9153 102.36 50.7845 101.729 51.05 101.422C51.3155 101.116 51.7559 101.065 52.1542 101.036C58.2515 100.595 64.3808 100.624 70.4738 101.121C72.2013 101.262 74.1978 101.616 75.0302 103.178C75.4573 103.98 75.4705 104.938 75.4733 105.852L75.5317 125.52C75.5356 126.947 75.5235 128.444 74.8562 129.696C73.3561 132.509 69.5488 132.67 66.4326 132.464L50.7899 131.434ZM90.3999 64.56C96.8582 63.568 103.42 63.6628 109.976 63.7572C117.652 63.8684 125.32 63.9792 132.799 62.344C134.006 62.0804 134.866 63.4932 135.31 64.6756C137.662 70.946 139.506 77.3952 141.351 83.846C142.402 87.5216 143.453 91.1976 144.598 94.8412C146.755 101.7 149.247 108.451 151.738 115.199C155.724 125.994 159.707 136.783 162.308 148C162.5 148.827 162.646 149.814 162.074 150.428C161.629 150.905 160.918 150.961 160.275 150.987C144.958 151.598 129.635 152.034 114.309 152.295C113.95 152.301 113.566 152.3 113.266 152.097C112.949 151.883 112.798 151.493 112.666 151.128C104.451 128.37 97.5496 105.113 92.0106 81.5172C91.8755 80.942 91.8373 80.1588 92.3731 79.9416C93.0108 79.6832 93.4971 80.5532 93.6645 81.236C99.2425 104.022 105.961 126.514 113.785 148.592C113.934 149.01 114.099 149.452 114.448 149.716C114.834 150.008 115.353 150.013 115.834 150.006L159.153 149.322C159.485 149.317 159.878 149.277 160.041 148.98C160.153 148.776 160.11 148.523 160.064 148.294C157.944 137.846 154.348 127.806 150.756 117.776L150.755 117.775C149.833 115.201 148.912 112.628 148.015 110.049C142.976 95.5488 138.713 80.7788 134.452 66.0176C134.097 64.7876 132.483 64.64 131.237 64.7288C117.672 65.6952 104.046 65.76 90.4739 64.9232C91.5796 69.0332 92.5642 73.1776 93.4258 77.3492C92.4864 77.7764 91.7116 76.4948 91.4324 75.4792L88.9882 66.5892C88.8757 66.1812 88.7659 65.7316 88.9376 65.3456C89.1762 64.8084 89.8315 64.6472 90.3999 64.56ZM103.966 72.354C102.222 73.4008 101.064 75.6204 101.633 77.6124C101.944 78.7016 102.711 79.6016 103.589 80.2912C105.57 81.8488 108.223 82.4648 110.664 81.9344C113.104 81.4036 115.287 79.7356 116.484 77.4872C116.815 76.8652 116.473 76.0936 116.059 75.5256C115.068 74.1648 113.658 73.1684 112.14 72.4924C111.403 72.164 110.636 71.906 109.853 71.7224C107.883 71.2612 105.711 71.3068 103.966 72.354ZM114.472 77.3104C112.376 80.3568 107.85 81.2728 104.785 79.2708C104.038 78.7828 103.355 78.1108 103.09 77.2428C102.672 75.872 103.447 74.3312 104.624 73.5556C105.801 72.7796 107.277 72.642 108.67 72.766C110.837 72.9592 112.981 73.7608 114.632 75.2156C115.202 75.7176 114.906 76.6808 114.472 77.3104ZM110.954 102.661C112.649 102.651 114.402 102.54 115.915 101.755C117.429 100.971 118.65 99.3544 118.514 97.6184C118.418 96.4068 117.681 95.3204 116.743 94.5796C115.107 93.288 112.803 92.9516 110.882 93.7248C109.883 94.1268 108.965 94.8444 108.512 95.8448C108.06 96.8452 108.162 98.142 108.918 98.9248C109.568 99.5964 110.52 99.7788 111.44 99.9556C111.576 99.9812 111.71 100.007 111.843 100.034C112.116 100.09 112.403 100.164 112.599 100.368C112.794 100.572 112.843 100.948 112.627 101.129C110.865 102.604 107.937 101.961 106.656 100.031C105.376 98.1016 105.696 95.324 107.134 93.5148C108.571 91.7056 110.928 90.826 113.2 90.8804C115.534 90.9364 117.903 91.9768 119.286 93.9092C120.668 95.8412 120.877 98.6864 119.517 100.636C118.619 101.922 117.166 102.71 115.666 103.072C114.167 103.433 112.607 103.408 111.068 103.342L110.954 102.661ZM147.348 116.878C147.153 116.646 146.859 116.533 146.575 116.44C144.518 115.765 142.275 115.696 140.182 116.242C138.931 116.569 137.705 117.132 136.807 118.084C135.909 119.036 135.387 120.422 135.67 121.716C135.99 123.176 137.236 124.238 138.549 124.887C140.496 125.85 142.773 126.14 144.862 125.572C146.951 125.003 148.823 123.554 149.823 121.586C150.03 121.18 150.204 120.733 150.165 120.276C150.126 119.819 149.815 119.36 149.373 119.295C148.767 119.206 148.324 119.82 147.954 120.331L147.924 120.373C146.008 123.018 142.055 123.814 139.309 122.107C138.805 121.794 138.307 121.348 138.236 120.748C138.142 119.947 138.835 119.291 139.505 118.872C141.835 117.416 144.75 116.987 147.383 117.712C147.595 117.496 147.542 117.11 147.348 116.878ZM130.111 135.611C131.535 135.918 133.081 136.618 133.544 138.035C133.929 139.213 133.399 140.552 132.516 141.4C131.633 142.249 130.456 142.693 129.292 143.027C128.216 143.336 127.12 143.568 126.014 143.724L126.125 144.337C128.146 144.463 130.199 143.995 131.978 143.002C133.404 142.206 134.73 140.938 134.974 139.29C135.205 137.726 134.374 136.136 133.151 135.175C131.929 134.214 130.375 133.802 128.843 133.648C125.495 133.312 121.806 134.299 119.774 137.052C119.323 137.663 118.958 138.37 118.898 139.134C118.796 140.43 119.615 141.663 120.683 142.362C121.75 143.062 123.032 143.319 124.286 143.49C124.712 143.548 125.185 143.587 125.532 143.328C125.88 143.068 125.911 142.392 125.502 142.258L122.689 141.342C122.045 141.133 121.349 140.883 120.988 140.296C120.367 139.286 121.114 137.955 122.015 137.2C124.216 135.355 127.33 135.011 130.111 135.611ZM126.355 118.353C126.536 117.997 126.692 117.606 126.662 117.205C126.604 116.427 125.892 115.887 125.208 115.548C122.23 114.07 118.47 114.424 115.804 116.433C115.375 116.756 114.96 117.136 114.753 117.638C114.545 118.141 114.599 118.792 115.002 119.148C115.241 119.358 115.568 119.447 115.889 119.535C116.316 119.651 116.73 119.764 116.905 120.156C117.174 120.754 116.555 121.408 115.931 121.561C114.683 121.867 113.336 120.997 112.859 119.774C112.382 118.551 112.678 117.106 113.408 116.022C114.138 114.939 115.25 114.181 116.424 113.65C119.053 112.459 122.119 112.322 124.839 113.273C125.839 113.622 126.816 114.131 127.522 114.939C128.228 115.747 128.624 116.895 128.355 117.944C128.187 118.603 127.78 119.168 127.343 119.68C124.931 122.507 120.876 124.182 117.508 122.715C117.793 122.118 118.62 122.186 119.264 122.256C122.096 122.566 125.037 120.948 126.355 118.353ZM122.458 79.9708C123.02 80.6876 123.863 81.1152 124.717 81.3944C128.486 82.6264 132.948 81.0984 135.243 77.79C136.046 76.634 136.589 75.0528 135.904 73.8188C135.303 72.7348 133.986 72.3312 132.781 72.172C130.837 71.9148 128.845 72.046 126.948 72.5556C125.314 72.9948 123.686 73.7664 122.662 75.1464C121.638 76.5264 121.397 78.62 122.458 79.9708ZM126.987 73.692C128.123 73.3356 129.296 73.1076 130.48 73.0132C131.916 72.8988 133.703 73.2216 134.161 74.6256C134.501 75.6716 133.889 76.7948 133.152 77.5968C131.256 79.6592 128.33 80.6632 125.608 80.1856C124.948 80.0696 124.274 79.8568 123.791 79.38C122.859 78.4596 122.968 76.802 123.735 75.7332C124.503 74.6644 125.751 74.0796 126.987 73.692ZM141.16 140.519C142.97 142.027 145.408 142.515 147.738 142.49C149.196 142.475 150.689 142.267 151.969 141.55C153.249 140.833 154.285 139.533 154.408 138.041C154.537 136.478 153.658 134.978 152.502 133.953C151.621 133.172 150.307 132.598 149.322 133.236C148.975 133.461 148.534 133.409 148.123 133.36L148.05 133.352C145.559 133.063 142.966 133.862 141.041 135.513C140.435 136.033 139.868 136.68 139.725 137.479C139.517 138.642 140.266 139.773 141.16 140.519ZM151.147 134.746C152.14 135.262 152.947 136.277 152.964 137.42C152.982 138.636 152.102 139.722 151.035 140.251C149.968 140.779 148.745 140.848 147.56 140.832C145.965 140.81 144.34 140.642 142.877 139.987C141.934 139.564 140.976 138.751 141.028 137.695C141.068 136.896 141.682 136.255 142.324 135.803C143.939 134.668 145.937 134.231 147.893 134.173C149.005 134.14 150.154 134.232 151.147 134.746ZM141.693 96.348C142.079 96.4008 142.311 96.812 142.43 97.192C143.182 99.5944 141.57 102.324 139.295 103.274C137.019 104.223 134.353 103.663 132.237 102.382C131.288 101.807 130.387 101.052 129.943 100.017C129.009 97.8436 130.527 95.2016 132.633 94.2196C134.739 93.2376 137.186 93.5116 139.447 94.0088C140.376 94.2128 141.492 94.6752 141.553 95.6484C140.019 95.0048 138.376 94.6352 136.72 94.5608C135.139 94.49 133.449 94.7292 132.233 95.7688C131.016 96.8084 130.513 98.8376 131.507 100.104C131.909 100.616 132.49 100.942 133.07 101.219C134.569 101.934 136.262 102.412 137.871 102.027C139.48 101.642 140.928 100.18 140.879 98.4832C140.874 98.332 140.859 98.1804 140.843 98.0288C140.813 97.7376 140.783 97.4472 140.833 97.1608C140.91 96.7256 141.267 96.2892 141.693 96.348ZM85.5555 149.989C85.4083 143.278 85.7268 136.557 86.5078 129.892C87.0563 125.208 86.9162 120.445 86.776 115.693C86.5724 108.781 86.3688 101.896 88.2893 95.3228C89.4663 113.405 89.2697 131.581 87.7015 149.632C87.638 150.36 87.5547 151.137 87.1042 151.704C86.4283 152.556 85.207 152.623 84.1371 152.619C72.1207 152.578 60.1043 152.409 48.0915 152.112C47.5927 152.099 47.0126 152.043 46.7409 151.613C46.5925 151.378 46.5758 151.084 46.5633 150.804C45.7687 133.008 44.9741 115.178 45.8933 97.3884C45.9443 96.4016 46.4617 95.0532 47.3813 95.3436C48.0268 95.5476 48.1479 96.4176 48.1491 97.1116L48.2324 148.61C48.2336 149.352 49.1878 149.602 49.9093 149.624C61.7874 149.983 73.6726 150.104 85.5555 149.989ZM89.8774 75.9476C89.8237 75.2884 89.7318 74.552 89.228 74.1396C88.8632 73.8408 88.3684 73.7892 87.9035 73.7492L67.68 72.0104C62.9613 71.6044 58.2379 71.1984 53.5032 71.1308C49.5822 71.0748 45.6577 71.2512 41.7566 71.6588C40.8452 71.754 39.866 71.8932 39.2007 72.54C38.561 73.1616 38.3589 74.1088 38.1876 74.996C37.9085 76.4452 37.6281 77.9312 37.852 79.3908C38.0759 80.8504 38.9106 82.3024 40.2573 82.822C41.0309 83.1208 41.8832 83.0864 42.7085 83.0484L79.3429 81.3536C79.8108 81.332 80.4575 81.06 80.2952 80.6084C67.335 80.5976 54.3745 81.0492 41.4448 81.9624C39.9252 82.0696 39.2824 80.006 39.284 78.4408C39.2855 77.1348 39.3887 75.7884 39.9583 74.6208C40.5279 73.4528 41.6581 72.4956 42.9297 72.492C58.0895 72.4492 73.2521 73.2996 88.3178 75.0364C88.6522 75.0752 88.7585 75.514 88.7822 75.8588L89.8202 90.8716C89.8303 91.0172 89.8366 91.1764 89.7528 91.2936C89.6423 91.4484 89.4278 91.4644 89.2413 91.4668L44.3472 92.0196C43.9832 92.024 43.5896 92.0188 43.2999 91.7924C42.9379 91.5096 42.8666 90.9872 42.8378 90.5208C42.7689 89.4184 42.7728 88.3112 42.8495 87.2088C42.9048 86.4096 42.6618 85.2564 41.8921 85.3852C41.3342 85.4784 41.1695 86.2124 41.1516 86.7928C41.1068 88.2208 41.1824 89.6524 41.3762 91.0668C41.4747 91.7828 41.6359 92.5548 42.174 93.0204C42.7362 93.5072 43.5421 93.518 44.2772 93.5048L89.5329 92.6792C90.0515 92.6696 90.6503 92.6184 90.9466 92.1812C91.1638 91.8612 91.1408 91.4364 91.1089 91.0476L89.8774 75.9476ZM69.2194 108.352C69.5589 108.316 69.6991 108.864 69.4717 109.125C69.2443 109.386 68.8643 109.418 68.5233 109.432L56.7919 109.917C56.3142 109.937 55.8116 109.951 55.3872 109.725C54.9628 109.499 54.665 108.943 54.8791 108.504C55.1407 107.967 55.8793 107.985 56.4575 108.072C60.6786 108.706 64.9761 108.801 69.2194 108.352ZM56.232 114.577C55.56 114.398 54.5708 114.377 54.4649 115.082C54.3695 115.717 55.1618 116.059 55.7808 116.148C59.8493 116.737 64.0428 116.396 67.9704 115.156C68.2546 115.066 68.1955 114.582 67.9319 114.44C67.6683 114.297 67.3487 114.384 67.0621 114.466C63.546 115.482 59.7672 115.521 56.232 114.577Z" fill="#00160A"/>
<path fill-rule="evenodd" clip-rule="evenodd" d="M2.38209 111.86C3.90777 110.784 5.9425 110.713 7.72028 111.241C9.49809 111.77 11.0756 112.829 12.6041 113.901C18.4461 117.996 24.0248 122.488 29.2925 127.337C30.3153 128.279 31.3373 129.246 32.1011 130.419C33.6024 132.723 33.8812 136.058 32.1218 138.161C30.8685 139.658 28.8148 140.269 26.8989 140.106C24.983 139.942 23.1819 139.098 21.5307 138.085C17.0448 135.335 13.4276 131.331 9.22933 128.137C6.48983 126.053 3.41752 124.228 1.54853 121.299C-0.320507 118.37 -0.428159 113.842 2.38209 111.86ZM9.94574 114.256C8.04408 113.322 5.67565 112.604 3.93066 113.82C2.29496 114.959 1.97621 117.424 2.7059 119.311C3.43559 121.198 4.96193 122.623 6.48555 123.916C8.07488 125.265 9.71678 126.548 11.4061 127.762C11.6993 127.973 12.2109 128.118 12.323 127.769C13.3474 124.581 15.5611 121.814 18.4067 120.164C15.8971 117.772 13.0339 115.773 9.94574 114.256ZM22.6878 133.939C20.5893 132.578 18.4912 131.216 16.3931 129.856C15.9707 129.582 15.2691 129.391 15.0955 129.872C17.6705 131.748 20.3304 133.5 23.0643 135.12C23.294 135.019 23.3454 134.684 23.2333 134.454C23.1212 134.224 22.8993 134.076 22.6878 133.939Z" fill="#00160A"/>
<path fill-rule="evenodd" clip-rule="evenodd" d="M208.688 34C208.903 34 209.077 34.1792 209.077 34.4V38.2H212.776C212.991 38.2 213.165 38.3792 213.165 38.6V40.6C213.165 40.8208 212.991 41 212.776 41H209.077V44.8C209.077 45.0208 208.903 45.2 208.688 45.2H206.741C206.526 45.2 206.352 45.0208 206.352 44.8V41H202.653C202.438 41 202.264 40.8208 202.264 40.6V38.6C202.264 38.3792 202.438 38.2 202.653 38.2H206.352V34.4C206.352 34.1792 206.526 34 206.741 34H208.688Z" fill="#FFB61D"/>
<path fill-rule="evenodd" clip-rule="evenodd" d="M223.872 18.8C224.087 18.8 224.261 18.9792 224.261 19.2V23H227.96C228.175 23 228.349 23.1792 228.349 23.4V25.4C228.349 25.6208 228.175 25.8 227.96 25.8H224.261V29.6C224.261 29.8208 224.087 30 223.872 30H221.925C221.71 30 221.536 29.8208 221.536 29.6V25.8H217.837C217.622 25.8 217.448 25.6208 217.448 25.4V23.4C217.448 23.1792 217.622 23 217.837 23H221.536V19.2C221.536 18.9792 221.71 18.8 221.925 18.8H223.872Z" fill="#FFB61D"/>
<path fill-rule="evenodd" clip-rule="evenodd" d="M241.781 44C241.996 44 242.171 44.1792 242.171 44.4V48.2H245.869C246.084 48.2 246.259 48.3792 246.259 48.6V50.6C246.259 50.8208 246.084 51 245.869 51H242.171V54.8C242.171 55.0208 241.996 55.2 241.781 55.2H239.835C239.62 55.2 239.445 55.0208 239.445 54.8V51H235.747C235.532 51 235.357 50.8208 235.357 50.6V48.6C235.357 48.3792 235.532 48.2 235.747 48.2H239.445V44.4C239.445 44.1792 239.62 44 239.835 44H241.781Z" fill="#FFB61D"/>
<path fill-rule="evenodd" clip-rule="evenodd" d="M14.8385 0C15.345 0 15.7554 0.0303979 16.0622 0.0927979L16.1369 0.1112L16.6964 0.302002C16.9966 0.407202 17.2057 0.680801 17.236 0.998401L17.2399 1.0784V5.0328L17.4498 4.8956C17.7503 4.6932 18.0894 4.4436 18.5165 4.116L19.6331 3.2524C19.9014 3.0484 20.1003 2.904 20.3273 2.7476C20.5056 2.6236 20.7252 2.5784 20.9359 2.622C21.1188 2.6592 21.2824 2.7604 21.3999 2.9068L21.4474 2.9724L21.6993 3.3616L24.0517 7.464C24.1603 7.6524 24.1907 7.8772 24.1366 8.0852C24.0828 8.2976 23.9477 8.4788 23.762 8.5884C23.4284 8.786 23.0663 9.03 22.6244 9.3504L22.0809 9.7528L21.1375 10.4604C20.9569 10.5944 20.7957 10.7124 20.6474 10.8188L20.4585 10.952L20.6871 11.0712C21.7519 11.6384 22.7817 12.31 23.6308 13.0204L23.8578 13.2152L24.0754 13.4112C24.3565 13.672 24.4204 14.098 24.2288 14.4316L23.8006 15.172C23.6324 15.46 23.442 15.7824 23.2407 16.12L22.8564 16.7584C22.3608 17.5748 21.9325 18.2468 21.6051 18.7112C21.4003 19.0004 21.0375 19.1192 20.7112 19.0128L20.6365 18.984L20.2273 18.804C20.1864 18.7852 20.1646 18.774 20.1416 18.7604L20.1179 18.7456C19.9033 18.6088 19.676 18.4696 19.4171 18.316L18.5559 17.816L17.9045 17.4392C17.7601 17.3548 17.6281 17.2764 17.5047 17.2028L17.2426 17.044L17.2395 18.2784C17.2333 19.3456 17.2185 20.2772 17.1924 20.9408L17.18 21.2208C17.1605 21.6296 16.8494 21.9568 16.4581 21.996L16.3717 22L14.0088 21.9276L12.731 21.8952L11.8644 21.88L11.5825 21.9288C11.3948 21.9608 11.2041 21.9232 11.0433 21.8268L10.9763 21.7816L10.9136 21.7296C10.7318 21.5628 10.6345 21.3208 10.6489 21.0732C10.7127 19.9452 10.7147 19.0044 10.6715 17.7632L10.6411 17.0048L7.03393 19.0656C6.70545 19.2552 6.30116 19.182 6.053 18.9112L6.00231 18.85L5.95691 18.7828C5.08722 17.348 4.35099 15.8744 3.49784 13.8628C3.35212 13.5196 3.45327 13.1224 3.73616 12.894L3.7995 12.8476L4.70205 12.2556L4.95255 12.1256C5.4845 11.846 6.26511 11.4016 7.14294 10.8868L7.35462 10.7616L6.71218 10.4576L6.01897 10.1356C5.9443 10.1 5.86632 10.0608 5.76505 10.0084L5.15578 9.6912C4.82473 9.5224 4.61605 9.428 4.42905 9.366L4.31868 9.3324C4.27437 9.3204 4.23147 9.3044 4.18981 9.2844L4.12833 9.252L3.71747 9.0112C3.4887 8.8768 3.33892 8.6364 3.31751 8.3696C3.29524 8.1016 3.40277 7.8392 3.60589 7.6684C3.94344 7.3836 4.17365 7.0104 4.58837 6.1124L4.89353 5.4436C5.43244 4.2812 5.78413 3.7216 6.40519 3.1692C6.65106 2.9496 6.999 2.9064 7.28805 3.0512L7.35902 3.0912L10.6103 5.1648L10.6107 5.0616C10.6096 4.8192 10.6002 4.5388 10.5843 4.194L10.5465 3.4276C10.4924 2.2276 10.5122 1.6176 10.6668 0.902002C10.7392 0.565202 11.0114 0.309998 11.3474 0.265198L11.804 0.209198C12.0244 0.183598 12.2806 0.156002 12.5652 0.128802C13.4046 0.0480025 14.1844 0 14.8385 0ZM14.7852 1.6C14.07 1.6 13.1877 1.6652 12.3254 1.758L12.1171 1.7812L12.1136 1.8208L12.1007 2.0196C12.084 2.3624 12.0918 2.7692 12.1178 3.3456L12.1611 4.2292C12.1646 4.3076 12.1673 4.3792 12.17 4.4556C12.2027 5.386 12.1688 6.0748 12.0244 6.7268C11.9672 6.986 11.7924 7.2016 11.556 7.3032C11.3438 7.3956 11.1048 7.3876 10.9 7.2852L10.8249 7.2424L7.07045 4.8168L7.02852 4.8748C6.81746 5.174 6.61637 5.5536 6.36972 6.0924L6.04883 6.8064C5.84136 7.2624 5.67523 7.6008 5.51152 7.88L5.43673 8.002L5.4954 8.0288C5.60842 8.0816 5.7237 8.1388 5.85288 8.2052L6.60204 8.5992L6.79667 8.6944L7.68668 9.1132L8.12791 9.3284L8.2655 9.3968C8.80138 9.6652 9.19726 9.884 9.4446 10.0584C9.66991 10.2176 9.80061 10.484 9.79193 10.7656C9.78324 11.0472 9.63619 11.3052 9.40049 11.4492L8.77183 11.8304C8.5505 11.964 8.31787 12.1036 8.07578 12.2476L7.17561 12.778C6.57747 13.1268 6.07469 13.4116 5.69236 13.6148L5.50556 13.7124L5.26129 13.8752L5.36186 14.1068C5.83949 15.1984 6.28684 16.1204 6.75824 16.9828L6.93165 17.2952L10.9763 14.9552C11.1943 14.8288 11.4544 14.8164 11.681 14.9168L11.7639 14.9596C12.0061 15.1036 12.1572 15.3684 12.1634 15.6576L12.1739 16.0524L12.2405 17.7152C12.272 18.616 12.281 19.3572 12.2623 20.1336L12.2568 20.3108L12.8494 20.3232C13.4404 20.3368 14.1486 20.3564 14.9082 20.38L15.5471 20.4L15.5611 19.6984C15.5658 19.396 15.5697 19.0684 15.5724 18.7196L15.5782 17.6376C15.5806 16.7848 15.5786 16.0088 15.5759 15.5656C15.5743 15.2564 15.7398 14.972 16.0084 14.828C16.2759 14.686 16.5975 14.7112 16.8416 14.894C17.2676 15.2144 17.7293 15.5188 18.316 15.874L18.7365 16.1248L20.0088 16.8704L20.1938 16.9812L20.5928 17.2268L20.6361 17.1608C21.0939 16.4448 21.6565 15.5016 22.2171 14.5316L22.392 14.2276L22.3702 14.2096C21.3684 13.3916 20.0089 12.5612 18.7026 11.9764L18.5169 11.8952L18.4998 11.8932C18.2171 11.8392 17.982 11.6304 17.8889 11.3448L17.8687 11.272C17.7842 10.9024 17.9547 10.52 18.2833 10.3472C18.6867 10.1356 19.1274 9.8496 19.6709 9.4556L19.8562 9.3204C20.0096 9.2072 20.1661 9.0896 20.3608 8.9416L21.3404 8.1976C21.6417 7.9716 21.8819 7.7964 22.1038 7.6424L22.1658 7.5996L20.4546 4.5764L19.9796 4.9488L19.5124 5.3164C18.2354 6.3132 17.5623 6.7572 16.666 7.128C16.4204 7.228 16.1424 7.1968 15.9236 7.0424C15.7301 6.9056 15.6059 6.6888 15.5806 6.4512L15.5759 6.3612L15.5755 1.6424L15.5163 1.6344C15.3606 1.6156 15.164 1.6044 14.93 1.6008L14.7852 1.6Z" fill="#FFB61D"/>
</svg>
